<svg xmlns="http://www.w3.org/2000/svg" width="71.523" height="71.471" viewBox="0 0 71.523 71.471">
  <path id="Path_51" data-name="Path 51" d="M46.524,40.243s-.927,1.252-5.269,6.833a2.75,2.75,0,0,1-3.511.728c-2.62-1.457-5.718-2.83-12.554-9.675s-8.217-9.934-9.675-12.554a2.75,2.75,0,0,1,.728-3.511c5.393-4.2,7.192-5.552,7.192-5.552l-12-17.319S10-.058,3.7,3.72A6.774,6.774,0,0,0,.628,7.7C-.888,13.23-1.194,25.425,18.35,44.97S50.089,64.208,55.618,62.691A6.773,6.773,0,0,0,59.6,59.615c3.619-6.032,4.588-7.878,4.588-7.878Z" transform="translate(7.716 0.801) rotate(7)" fill="#dba965"/>
</svg>
