<svg xmlns="http://www.w3.org/2000/svg" width="103.452" height="161.394" viewBox="0 0 103.452 161.394">
  <path id="Path_124" data-name="Path 124" d="M-18.093-99.83H12.543c0,19.536,37.3,29.3,37.3,62.6C49.839-8.588,25.2,6.508.111,6.508c-23.532,0-44.622-11.988-53.724-34.41l26.2-15.1C-22.755-31.01-14.1-23.24-1-23.24c12.876,0,20.2-5.994,20.2-16.206C19.2-61.424-18.093-70.526-18.093-99.83Zm15.318-55.056a18.854,18.854,0,0,1,18.87,18.87,18.854,18.854,0,0,1-18.87,18.87,18.854,18.854,0,0,1-18.87-18.87A18.854,18.854,0,0,1-2.775-154.886Z" transform="translate(49.839 6.508) rotate(180)" fill="#edf0fc"/>
</svg>
