<svg xmlns="http://www.w3.org/2000/svg" width="19.38" height="19.383" viewBox="0 0 19.38 19.383">
    <defs>
        <style>
            .prefix__cls-1{fill:#302f2e}
        </style>
    </defs>
    <g id="prefix__instagram_2_" data-name="instagram (2)">
        <path id="prefix__Path_7" d="M19.78 5.7a7.083 7.083 0 00-.451-2.352A4.965 4.965 0 0016.493.511a7.1 7.1 0 00-2.352-.45C13.1.011 12.774 0 10.143 0S7.182.011 6.148.057A7.085 7.085 0 003.8.507a4.729 4.729 0 00-1.723 1.121A4.772 4.772 0 00.96 3.344a7.1 7.1 0 00-.45 2.351c-.049 1.038-.061 1.367-.061 4s.011 2.961.057 3.995a7.082 7.082 0 00.451 2.35 4.965 4.965 0 002.836 2.836 7.1 7.1 0 002.352.451c1.034.046 1.363.057 3.995.057s2.961-.011 3.995-.057a7.081 7.081 0 002.351-.451 4.958 4.958 0 002.836-2.836 7.107 7.107 0 00.451-2.352c.045-1.034.057-1.363.057-3.995s-.005-2.96-.05-3.993zm-1.746 7.914a5.313 5.313 0 01-.333 1.8 3.215 3.215 0 01-1.84 1.84 5.332 5.332 0 01-1.8.333c-1.022.046-1.329.057-3.915.057s-2.9-.011-3.915-.057a5.31 5.31 0 01-1.8-.333 2.983 2.983 0 01-1.113-.723 3.013 3.013 0 01-.718-1.116 5.333 5.333 0 01-.333-1.8c-.046-1.022-.057-1.329-.057-3.915s.011-2.9.057-3.915a5.31 5.31 0 01.333-1.8 2.946 2.946 0 01.727-1.113 3.009 3.009 0 011.113-.723 5.335 5.335 0 011.8-.333c1.022-.045 1.329-.057 3.915-.057s2.9.011 3.915.057a5.313 5.313 0 011.8.333 2.98 2.98 0 011.113.723 3.013 3.013 0 01.717 1.115 5.334 5.334 0 01.333 1.8c.045 1.022.057 1.329.057 3.915s-.011 2.888-.056 3.911zm0 0" class="prefix__cls-1" data-name="Path 7" transform="translate(-.449)"/>
        <path id="prefix__Path_8" d="M129.928 124.5a4.979 4.979 0 104.979 4.979 4.981 4.981 0 00-4.979-4.979zm0 8.209a3.23 3.23 0 113.23-3.23 3.23 3.23 0 01-3.23 3.23zm0 0" class="prefix__cls-1" data-name="Path 8" transform="translate(-120.235 -119.786)"/>
        <path id="prefix__Path_9" d="M364.774 89.764a1.162 1.162 0 11-1.163-1.162 1.162 1.162 0 011.163 1.162zm0 0" class="prefix__cls-1" data-name="Path 9" transform="translate(-348.742 -85.247)"/>
    </g>
</svg>
