<svg xmlns="http://www.w3.org/2000/svg" id="prefix__premium" width="103.972" height="103.958" viewBox="0 0 103.972 103.958">
    <defs>
        <style>
            .prefix__cls-1{fill:#302f2e}
        </style>
    </defs>
    <path id="prefix__Path_117" d="M84.168 312.183l-11.194 7.4a8.189 8.189 0 00-7.048-4.036H56.04c-2.128 0-3.125-1.545-4.124-2.263a20.561 20.561 0 00-26.8 0l-2.158 1.861H2.031A2.031 2.031 0 000 317.175v24.368a2.031 2.031 0 002.031 2.031h21.083l36.386 6.064a2.029 2.029 0 001.529-.362l42.109-30.681a2.032 2.032 0 00.451-2.829 14.3 14.3 0 00-19.421-3.583zm-24.841 33.308l-35.711-5.951a2.047 2.047 0 00-.334-.028H4.061v-20.306H23.71c1.232 0 1.583-.874 4.06-2.85a16.48 16.48 0 0121.486 0c.853.574 2.848 3.255 6.785 3.255h9.885a3.961 3.961 0 110 7.92H41.557a2.031 2.031 0 100 4.061h24.369a8.09 8.09 0 008.12-7.848l12.347-8.165a10.26 10.26 0 0112.557 1.04zm0 0" class="prefix__cls-1" data-name="Path 117" transform="translate(0 -245.708)"/>
    <path id="prefix__Path_118" d="M310.054 187.968a2.031 2.031 0 11-2.031-2.031 2.031 2.031 0 012.031 2.031zm0 0" class="prefix__cls-1" data-name="Path 118" transform="translate(-243.854 -148.179)"/>
    <path id="prefix__Path_119" d="M163.5 49.942h48.736a2.03 2.03 0 002.031-2.03v-7.926l6.15-31.474a2.031 2.031 0 00-3.12-2.079l-16.591 11.058L189.649.9a2.031 2.031 0 00-3.379 0l-11.058 16.59-16.586-11.057A2.03 2.03 0 00155.5 8.5l5.96 31.479v7.932a2.03 2.03 0 002.04 2.031zM174.649 22a2.031 2.031 0 002.816-.563L187.96 5.692l10.495 15.742a2.03 2.03 0 002.815.563l14.223-9.482-4.933 25.243H197.2a2.031 2.031 0 100 4.061h13v4.061h-44.673v-4.06h13.4a2.031 2.031 0 000-4.061h-13.749l-4.785-25.266zm0 0" class="prefix__cls-1" data-name="Path 119" transform="translate(-123.898)"/>
</svg>
