<svg xmlns="http://www.w3.org/2000/svg" width="103.452" height="161.394" viewBox="0 0 103.452 161.394">
  <path id="Path_123" data-name="Path 123" d="M-18.093-52.17H12.543c0-19.536,37.3-29.3,37.3-62.6,0-28.638-24.642-43.734-49.728-43.734-23.532,0-44.622,11.988-53.724,34.41l26.2,15.1C-22.755-120.99-14.1-128.76-1-128.76c12.876,0,20.2,5.994,20.2,16.206C19.2-90.576-18.093-81.474-18.093-52.17ZM-2.775,2.886A18.854,18.854,0,0,0,16.1-15.984a18.854,18.854,0,0,0-18.87-18.87,18.854,18.854,0,0,0-18.87,18.87A18.854,18.854,0,0,0-2.775,2.886Z" transform="translate(53.613 158.508)" fill="#edf0fc"/>
</svg>
