<svg xmlns="http://www.w3.org/2000/svg" width="30.427" height="30.433" viewBox="0 0 30.427 30.433">
    <defs>
        <style>
            .prefix__cls-1{fill:#dea04a}
        </style>
    </defs>
    <g id="prefix__instagram_2_" data-name="instagram (2)">
        <path id="prefix__Path_7" d="M30.8 8.947a11.12 11.12 0 00-.707-3.692A7.8 7.8 0 0025.639.8a11.149 11.149 0 00-3.692-.7C20.318.018 19.8 0 15.669 0S11.02.018 9.4.089A11.123 11.123 0 005.7.8 7.426 7.426 0 003 2.56a7.493 7.493 0 00-1.748 2.69 11.15 11.15 0 00-.708 3.691c-.077 1.629-.1 2.146-.1 6.278s.018 4.649.089 6.272a11.12 11.12 0 00.708 3.692A7.795 7.795 0 005.7 29.637a11.15 11.15 0 003.692.707c1.623.072 2.14.089 6.272.089s4.649-.018 6.272-.089a11.117 11.117 0 003.692-.707 7.784 7.784 0 004.453-4.453 11.158 11.158 0 00.707-3.692c.071-1.623.089-2.14.089-6.272s-.006-4.649-.077-6.273zm-2.741 12.426a8.341 8.341 0 01-.523 2.824 5.048 5.048 0 01-2.889 2.889 8.371 8.371 0 01-2.824.523c-1.605.072-2.087.089-6.147.089s-4.548-.018-6.147-.089a8.337 8.337 0 01-2.829-.523 4.683 4.683 0 01-1.748-1.136A4.731 4.731 0 013.82 24.2a8.372 8.372 0 01-.52-2.821c-.072-1.605-.089-2.087-.089-6.147s.018-4.548.089-6.147a8.337 8.337 0 01.52-2.825 4.626 4.626 0 011.142-1.748A4.724 4.724 0 016.71 3.377a8.377 8.377 0 012.824-.523c1.605-.071 2.087-.089 6.147-.089s4.548.018 6.147.089a8.342 8.342 0 012.824.523A4.68 4.68 0 0126.4 4.512a4.73 4.73 0 011.135 1.748 8.375 8.375 0 01.523 2.824c.071 1.605.089 2.087.089 6.147s-.017 4.537-.088 6.142zm0 0" class="prefix__cls-1" data-name="Path 7" transform="translate(-.449)"/>
        <path id="prefix__Path_8" d="M132.767 124.5a7.818 7.818 0 107.818 7.818 7.82 7.82 0 00-7.818-7.818zm0 12.889a5.071 5.071 0 115.071-5.071 5.072 5.072 0 01-5.071 5.071zm0 0" class="prefix__cls-1" data-name="Path 8" transform="translate(-117.547 -117.098)"/>
        <path id="prefix__Path_9" d="M366.1 90.427a1.825 1.825 0 11-1.825-1.825 1.825 1.825 0 011.825 1.825zm0 0" class="prefix__cls-1" data-name="Path 9" transform="translate(-340.928 -83.334)"/>
    </g>
</svg>
