<svg xmlns="http://www.w3.org/2000/svg" width="59.909" height="104.583" viewBox="0 0 59.909 104.583">
    <g>
        <path d="M119.335 41.691a1.54 1.54 0 00-1.886 1.087 4.592 4.592 0 004.435 5.78h34.624a4.592 4.592 0 004.452-5.714 1.54 1.54 0 10-2.985.754 1.513 1.513 0 01-1.468 1.882h-34.623a1.513 1.513 0 01-1.462-1.9 1.539 1.539 0 00-1.087-1.889z" data-name="Path 121" transform="translate(-108.842)"/>
        <path d="M168.605 99.852L155.7 54.716h.812a10.748 10.748 0 0010.1-14.437l-5.408-14.8a1.539 1.539 0 00-2.891 1.056l5.408 14.8a7.67 7.67 0 01-7.2 10.3h-34.636a7.67 7.67 0 01-7.2-10.3l11.225-30.721a11.511 11.511 0 0110.777-7.536h5.029a11.512 11.512 0 0110.777 7.536l3.7 10.135a1.54 1.54 0 002.891-1.057l-3.7-10.135A14.6 14.6 0 00141.711 0h-5.029a14.6 14.6 0 00-13.668 9.558l-11.225 30.721a10.748 10.748 0 0010.1 14.437h.011l-7.833 27.39a1.54 1.54 0 102.96.846l8.073-28.237h4.345l-16.291 46.366a.634.634 0 01-.6.423.633.633 0 01-.608-.807l3.48-12.169a1.54 1.54 0 10-2.96-.847l-3.48 12.169a3.711 3.711 0 007.069 2.251l7.738-22.022a1.533 1.533 0 00.264-.169l14.626-11.85 14.877 11.427c.012.009.025.015.038.024l7.938 22.591a3.711 3.711 0 007.069-2.25zM132.429 55.5l3.731 3.145-2.317 1.812-2.485-1.909zm3.841-.788h4.92l-2.552 2zm2.294 5.961l2.129 1.795-2.06 1.669-2.269-1.737zm4.565-.178l-2.087-1.759 4.124-3.225.912 2.595zM125.718 74.6l4.566-13 5.89 4.524zm15.426-8.536l6.018-4.876 4.571 13.012zm24.4 35.185a.621.621 0 01-.505.252.633.633 0 01-.6-.423L148.15 54.716h4.345l13.151 45.984a.622.622 0 01-.1.555z" data-name="Path 122" transform="translate(-108.842)"/>
    </g>
</svg>
