<svg id="svg" xmlns="http://www.w3.org/2000/svg" xmlns:xlink="http://www.w3.org/1999/xlink" width="400" height="120" viewBox="0, 0, 400,120"><g id="svgg"><path id="path0" d="M354.167 73.667 C 354.167 73.758,353.904 73.833,353.583 73.833 C 353.262 73.833,353.000 73.908,353.000 74.000 C 353.000 74.092,352.813 74.167,352.583 74.167 C 352.324 74.167,352.167 74.261,352.167 74.417 C 352.167 74.556,352.019 74.667,351.833 74.667 C 351.650 74.667,351.500 74.742,351.500 74.833 C 351.500 74.925,351.313 75.000,351.083 75.000 C 350.824 75.000,350.667 75.094,350.667 75.250 C 350.667 75.387,350.588 75.500,350.492 75.500 C 350.266 75.500,349.500 76.266,349.500 76.492 C 349.500 76.588,349.420 76.667,349.321 76.667 C 349.091 76.667,348.667 77.091,348.667 77.321 C 348.667 77.420,348.586 77.500,348.488 77.500 C 348.218 77.500,347.833 77.941,347.833 78.250 C 347.833 78.559,347.449 79.000,347.179 79.000 C 347.080 79.000,347.000 79.262,347.000 79.583 C 347.000 79.904,346.925 80.167,346.833 80.167 C 346.742 80.167,346.667 80.354,346.667 80.583 C 346.667 80.843,346.572 81.000,346.417 81.000 C 346.228 81.000,346.167 81.204,346.167 81.833 C 346.167 82.292,346.092 82.667,346.000 82.667 C 345.899 82.667,345.833 83.361,345.833 84.417 C 345.833 85.472,345.899 86.167,346.000 86.167 C 346.092 86.167,346.167 86.542,346.167 87.000 C 346.167 87.630,346.228 87.833,346.417 87.833 C 346.591 87.833,346.667 88.009,346.667 88.417 C 346.667 88.737,346.742 89.000,346.833 89.000 C 346.925 89.000,347.000 89.188,347.000 89.417 C 347.000 89.676,347.094 89.833,347.250 89.833 C 347.406 89.833,347.500 89.991,347.500 90.250 C 347.500 90.479,347.575 90.667,347.667 90.667 C 347.758 90.667,347.833 90.817,347.833 91.000 C 347.833 91.183,347.908 91.333,348.000 91.333 C 348.092 91.333,348.167 91.446,348.167 91.583 C 348.167 91.721,348.279 91.833,348.417 91.833 C 348.572 91.833,348.667 91.991,348.667 92.250 C 348.667 92.479,348.742 92.667,348.833 92.667 C 348.925 92.667,349.000 92.817,349.000 93.000 C 349.000 93.185,349.111 93.333,349.250 93.333 C 349.406 93.333,349.500 93.491,349.500 93.750 C 349.500 93.979,349.575 94.167,349.667 94.167 C 349.758 94.167,349.833 94.279,349.833 94.417 C 349.833 94.554,349.908 94.667,350.000 94.667 C 350.092 94.667,350.167 94.817,350.167 95.000 C 350.167 95.185,350.278 95.333,350.417 95.333 C 350.572 95.333,350.667 95.491,350.667 95.750 C 350.667 95.979,350.742 96.167,350.833 96.167 C 350.925 96.167,351.000 96.354,351.000 96.583 C 351.000 96.813,351.080 97.000,351.179 97.000 C 351.473 97.000,351.833 97.452,351.833 97.821 C 351.833 98.011,351.908 98.167,352.000 98.167 C 352.092 98.167,352.167 98.354,352.167 98.583 C 352.167 98.813,352.247 99.000,352.345 99.000 C 352.639 99.000,353.000 99.452,353.000 99.821 C 353.000 100.017,353.108 100.167,353.250 100.167 C 353.406 100.167,353.500 100.324,353.500 100.583 C 353.500 100.813,353.575 101.000,353.667 101.000 C 353.758 101.000,353.833 101.155,353.833 101.345 C 353.833 101.714,354.194 102.167,354.488 102.167 C 354.586 102.167,354.667 102.354,354.667 102.583 C 354.667 102.813,354.742 103.000,354.833 103.000 C 354.925 103.000,355.000 103.188,355.000 103.417 C 355.000 103.646,355.080 103.833,355.179 103.833 C 355.473 103.833,355.833 104.286,355.833 104.655 C 355.833 104.845,355.908 105.000,356.000 105.000 C 356.092 105.000,356.167 105.188,356.167 105.417 C 356.167 105.676,356.261 105.833,356.417 105.833 C 356.558 105.833,356.667 105.983,356.667 106.179 C 356.667 106.548,357.027 107.000,357.321 107.000 C 357.420 107.000,357.500 107.188,357.500 107.417 C 357.500 107.646,357.575 107.833,357.667 107.833 C 357.758 107.833,357.833 108.021,357.833 108.250 C 357.833 108.479,357.908 108.667,358.000 108.667 C 358.092 108.667,358.167 108.817,358.167 109.000 C 358.167 109.185,358.278 109.333,358.417 109.333 C 358.554 109.333,358.667 109.446,358.667 109.583 C 358.667 109.721,358.742 109.833,358.833 109.833 C 358.925 109.833,359.000 110.021,359.000 110.250 C 359.000 110.509,359.094 110.667,359.250 110.667 C 359.389 110.667,359.500 110.815,359.500 111.000 C 359.500 111.183,359.575 111.333,359.667 111.333 C 359.758 111.333,359.833 111.446,359.833 111.583 C 359.833 111.721,359.908 111.833,360.000 111.833 C 360.092 111.833,360.167 111.956,360.167 112.107 C 360.167 112.400,361.053 113.333,361.332 113.333 C 361.424 113.333,361.500 113.412,361.500 113.508 C 361.500 113.826,363.145 115.333,363.492 115.333 C 363.680 115.333,363.833 115.414,363.833 115.512 C 363.833 115.806,364.286 116.167,364.655 116.167 C 364.851 116.167,365.000 116.275,365.000 116.417 C 365.000 116.591,365.176 116.667,365.583 116.667 C 365.904 116.667,366.167 116.742,366.167 116.833 C 366.167 116.925,366.542 117.000,367.000 117.000 C 367.458 117.000,367.833 117.075,367.833 117.167 C 367.833 117.269,368.611 117.333,369.833 117.333 C 371.056 117.333,371.833 117.269,371.833 117.167 C 371.833 117.075,372.241 117.000,372.740 117.000 C 373.239 117.000,373.693 116.925,373.750 116.833 C 373.807 116.742,374.001 116.667,374.182 116.667 C 374.363 116.667,374.554 116.554,374.606 116.417 C 374.659 116.279,374.844 116.167,375.018 116.167 C 375.191 116.167,375.333 116.092,375.333 116.000 C 375.333 115.908,375.521 115.833,375.750 115.833 C 376.009 115.833,376.167 115.739,376.167 115.583 C 376.167 115.446,376.279 115.333,376.417 115.333 C 376.554 115.333,376.667 115.258,376.667 115.167 C 376.667 115.075,376.817 115.000,377.000 115.000 C 377.183 115.000,377.333 114.925,377.333 114.833 C 377.333 114.742,377.446 114.667,377.583 114.667 C 377.721 114.667,377.833 114.586,377.833 114.488 C 377.833 114.257,378.257 113.833,378.488 113.833 C 378.586 113.833,378.667 113.737,378.667 113.620 C 378.667 113.503,378.817 113.299,379.000 113.167 C 379.183 113.035,379.333 112.755,379.333 112.547 C 379.333 112.320,379.434 112.167,379.583 112.167 C 379.739 112.167,379.833 112.009,379.833 111.750 C 379.833 111.521,379.908 111.333,380.000 111.333 C 380.092 111.333,380.167 111.191,380.167 111.018 C 380.167 110.844,380.279 110.659,380.417 110.606 C 380.554 110.554,380.667 110.358,380.667 110.172 C 380.667 109.986,380.742 109.833,380.833 109.833 C 380.925 109.833,381.000 109.458,381.000 109.000 C 381.000 108.542,381.075 108.167,381.167 108.167 C 381.269 108.167,381.333 107.333,381.333 106.000 C 381.333 104.667,381.269 103.833,381.167 103.833 C 381.075 103.833,381.000 103.458,381.000 103.000 C 381.000 102.542,380.925 102.167,380.833 102.167 C 380.742 102.167,380.667 102.017,380.667 101.833 C 380.667 101.648,380.556 101.500,380.417 101.500 C 380.261 101.500,380.167 101.343,380.167 101.083 C 380.167 100.854,380.092 100.667,380.000 100.667 C 379.908 100.667,379.833 100.479,379.833 100.250 C 379.833 99.991,379.739 99.833,379.583 99.833 C 379.428 99.833,379.333 99.676,379.333 99.417 C 379.333 99.188,379.258 99.000,379.167 99.000 C 379.075 99.000,379.000 98.845,379.000 98.655 C 379.000 98.286,378.639 97.833,378.345 97.833 C 378.247 97.833,378.167 97.646,378.167 97.417 C 378.167 97.188,378.092 97.000,378.000 97.000 C 377.908 97.000,377.833 96.813,377.833 96.583 C 377.833 96.324,377.739 96.167,377.583 96.167 C 377.444 96.167,377.333 96.019,377.333 95.833 C 377.333 95.650,377.258 95.500,377.167 95.500 C 377.075 95.500,377.000 95.388,377.000 95.250 C 377.000 95.112,376.925 95.000,376.833 95.000 C 376.742 95.000,376.667 94.813,376.667 94.583 C 376.667 94.324,376.572 94.167,376.417 94.167 C 376.278 94.167,376.167 94.019,376.167 93.833 C 376.167 93.650,376.092 93.500,376.000 93.500 C 375.908 93.500,375.833 93.313,375.833 93.083 C 375.833 92.824,375.739 92.667,375.583 92.667 C 375.434 92.667,375.333 92.513,375.333 92.287 C 375.333 92.078,375.183 91.799,375.000 91.667 C 374.817 91.535,374.667 91.255,374.667 91.047 C 374.667 90.820,374.566 90.667,374.417 90.667 C 374.279 90.667,374.167 90.554,374.167 90.417 C 374.167 90.279,374.092 90.167,374.000 90.167 C 373.908 90.167,373.833 90.017,373.833 89.833 C 373.833 89.648,373.722 89.500,373.583 89.500 C 373.428 89.500,373.333 89.343,373.333 89.083 C 373.333 88.854,373.258 88.667,373.167 88.667 C 373.075 88.667,372.998 88.535,372.995 88.375 C 372.988 88.015,372.613 87.500,372.357 87.500 C 372.252 87.500,372.167 87.313,372.167 87.083 C 372.167 86.854,372.092 86.667,372.000 86.667 C 371.908 86.667,371.833 86.479,371.833 86.250 C 371.833 86.021,371.753 85.833,371.655 85.833 C 371.361 85.833,371.000 85.381,371.000 85.012 C 371.000 84.822,370.925 84.667,370.833 84.667 C 370.742 84.667,370.667 84.479,370.667 84.250 C 370.667 83.991,370.572 83.833,370.417 83.833 C 370.275 83.833,370.167 83.684,370.167 83.488 C 370.167 83.119,369.806 82.667,369.512 82.667 C 369.414 82.667,369.333 82.479,369.333 82.250 C 369.333 82.021,369.258 81.833,369.167 81.833 C 369.075 81.833,369.000 81.646,369.000 81.417 C 369.000 81.188,368.925 81.000,368.833 81.000 C 368.742 81.000,368.667 80.861,368.667 80.690 C 368.667 80.520,368.479 80.239,368.250 80.067 C 368.021 79.895,367.833 79.585,367.833 79.377 C 367.833 79.170,367.753 79.000,367.655 79.000 C 367.385 79.000,367.000 78.559,367.000 78.250 C 367.000 77.941,366.615 77.500,366.345 77.500 C 366.247 77.500,366.167 77.420,366.167 77.321 C 366.167 77.091,365.743 76.667,365.512 76.667 C 365.414 76.667,365.333 76.588,365.333 76.492 C 365.333 76.189,364.529 75.500,364.174 75.500 C 363.982 75.500,363.833 75.391,363.833 75.250 C 363.833 75.112,363.721 75.000,363.583 75.000 C 363.446 75.000,363.333 74.925,363.333 74.833 C 363.333 74.742,363.183 74.667,363.000 74.667 C 362.815 74.667,362.667 74.556,362.667 74.417 C 362.667 74.261,362.509 74.167,362.250 74.167 C 362.021 74.167,361.833 74.092,361.833 74.000 C 361.833 73.908,361.571 73.833,361.250 73.833 C 360.929 73.833,360.667 73.758,360.667 73.667 C 360.667 73.561,359.472 73.500,357.417 73.500 C 355.361 73.500,354.167 73.561,354.167 73.667 " stroke="none" fill="#f34c54" fill-rule="evenodd"></path><path id="path1" d="M354.667 10.833 C 354.667 10.935,353.889 11.000,352.667 11.000 C 351.000 11.000,350.667 11.042,350.667 11.250 C 350.667 11.450,350.417 11.500,349.417 11.500 C 348.694 11.500,348.167 11.570,348.167 11.667 C 348.167 11.759,347.722 11.833,347.167 11.833 C 346.611 11.833,346.167 11.907,346.167 12.000 C 346.167 12.092,345.904 12.167,345.583 12.167 C 345.176 12.167,345.000 12.242,345.000 12.417 C 345.000 12.602,344.806 12.667,344.250 12.667 C 343.837 12.667,343.500 12.742,343.500 12.833 C 343.500 12.925,343.246 13.000,342.934 13.000 C 342.586 13.000,342.332 13.096,342.273 13.250 C 342.220 13.387,342.025 13.500,341.839 13.500 C 341.652 13.500,341.500 13.575,341.500 13.667 C 341.500 13.758,341.200 13.833,340.833 13.833 C 340.467 13.833,340.167 13.908,340.167 14.000 C 340.167 14.092,340.017 14.167,339.833 14.167 C 339.648 14.167,339.500 14.278,339.500 14.417 C 339.500 14.572,339.343 14.667,339.083 14.667 C 338.854 14.667,338.667 14.742,338.667 14.833 C 338.667 14.925,338.479 15.000,338.250 15.000 C 337.991 15.000,337.833 15.094,337.833 15.250 C 337.833 15.425,337.657 15.500,337.250 15.500 C 336.929 15.500,336.667 15.575,336.667 15.667 C 336.667 15.758,336.554 15.833,336.417 15.833 C 336.279 15.833,336.167 15.908,336.167 16.000 C 336.167 16.092,336.017 16.167,335.833 16.167 C 335.648 16.167,335.500 16.278,335.500 16.417 C 335.500 16.572,335.343 16.667,335.083 16.667 C 334.854 16.667,334.667 16.742,334.667 16.833 C 334.667 16.925,334.554 17.000,334.417 17.000 C 334.279 17.000,334.167 17.112,334.167 17.250 C 334.167 17.389,334.019 17.500,333.833 17.500 C 333.650 17.500,333.500 17.575,333.500 17.667 C 333.500 17.758,333.387 17.833,333.250 17.833 C 333.112 17.833,333.000 17.908,333.000 18.000 C 333.000 18.092,332.813 18.167,332.583 18.167 C 332.354 18.167,332.167 18.247,332.167 18.345 C 332.167 18.639,331.714 19.000,331.345 19.000 C 331.155 19.000,331.000 19.080,331.000 19.179 C 331.000 19.409,330.576 19.833,330.345 19.833 C 330.247 19.833,330.167 19.908,330.167 20.000 C 330.167 20.092,330.017 20.167,329.833 20.167 C 329.648 20.167,329.500 20.278,329.500 20.417 C 329.500 20.554,329.420 20.667,329.321 20.667 C 329.091 20.667,328.667 21.091,328.667 21.321 C 328.667 21.420,328.588 21.500,328.492 21.500 C 328.266 21.500,327.500 22.266,327.500 22.492 C 327.500 22.588,327.420 22.667,327.321 22.667 C 327.091 22.667,326.667 23.091,326.667 23.321 C 326.667 23.420,326.588 23.500,326.492 23.500 C 326.266 23.500,325.500 24.266,325.500 24.492 C 325.500 24.588,325.420 24.667,325.321 24.667 C 325.091 24.667,324.667 25.091,324.667 25.321 C 324.667 25.420,324.586 25.500,324.488 25.500 C 324.218 25.500,323.833 25.941,323.833 26.250 C 323.833 26.559,323.449 27.000,323.179 27.000 C 323.080 27.000,323.000 27.080,323.000 27.179 C 323.000 27.409,322.576 27.833,322.345 27.833 C 322.247 27.833,322.167 28.004,322.167 28.213 C 322.167 28.422,322.017 28.701,321.833 28.833 C 321.650 28.965,321.500 29.245,321.500 29.453 C 321.500 29.662,321.420 29.833,321.321 29.833 C 321.027 29.833,320.667 30.286,320.667 30.655 C 320.667 30.851,320.558 31.000,320.417 31.000 C 320.279 31.000,320.167 31.113,320.167 31.250 C 320.167 31.387,320.092 31.500,320.000 31.500 C 319.908 31.500,319.833 31.650,319.833 31.833 C 319.833 32.017,319.758 32.167,319.667 32.167 C 319.575 32.167,319.500 32.354,319.500 32.583 C 319.500 32.843,319.406 33.000,319.250 33.000 C 319.094 33.000,319.000 33.157,319.000 33.417 C 319.000 33.646,318.925 33.833,318.833 33.833 C 318.742 33.833,318.667 34.021,318.667 34.250 C 318.667 34.509,318.572 34.667,318.417 34.667 C 318.261 34.667,318.167 34.824,318.167 35.083 C 318.167 35.313,318.092 35.500,318.000 35.500 C 317.908 35.500,317.833 35.650,317.833 35.833 C 317.833 36.017,317.758 36.167,317.667 36.167 C 317.575 36.167,317.500 36.354,317.500 36.583 C 317.500 36.843,317.406 37.000,317.250 37.000 C 317.075 37.000,317.000 37.176,317.000 37.583 C 317.000 37.904,316.925 38.167,316.833 38.167 C 316.742 38.167,316.667 38.467,316.667 38.833 C 316.667 39.315,316.597 39.500,316.417 39.500 C 316.242 39.500,316.167 39.676,316.167 40.083 C 316.167 40.404,316.092 40.667,316.000 40.667 C 315.908 40.667,315.833 41.004,315.833 41.417 C 315.833 41.829,315.758 42.167,315.667 42.167 C 315.575 42.167,315.500 42.542,315.500 43.000 C 315.500 43.630,315.439 43.833,315.250 43.833 C 315.056 43.833,315.000 44.056,315.000 44.833 C 315.000 45.389,314.926 45.833,314.833 45.833 C 314.738 45.833,314.667 46.329,314.667 46.986 C 314.667 47.760,314.598 48.162,314.458 48.208 C 314.307 48.258,314.235 48.987,314.197 50.889 C 314.167 52.348,314.075 53.500,313.988 53.500 C 313.902 53.500,313.833 54.347,313.833 55.417 C 313.833 56.583,313.899 57.333,314.000 57.333 C 314.110 57.333,314.167 65.974,314.167 82.922 C 314.167 105.514,314.196 108.522,314.417 108.606 C 314.586 108.672,314.667 108.937,314.667 109.434 C 314.667 109.837,314.742 110.167,314.833 110.167 C 314.925 110.167,315.000 110.354,315.000 110.583 C 315.000 110.843,315.094 111.000,315.250 111.000 C 315.406 111.000,315.500 111.157,315.500 111.417 C 315.500 111.646,315.575 111.833,315.667 111.833 C 315.758 111.833,315.833 111.989,315.833 112.179 C 315.833 112.505,316.185 113.000,316.417 113.000 C 316.590 113.000,317.000 113.461,317.000 113.655 C 317.000 113.753,317.080 113.833,317.179 113.833 C 317.373 113.833,317.833 114.244,317.833 114.417 C 317.833 114.590,318.294 115.000,318.488 115.000 C 318.586 115.000,318.667 115.075,318.667 115.167 C 318.667 115.258,318.854 115.333,319.083 115.333 C 319.343 115.333,319.500 115.428,319.500 115.583 C 319.500 115.722,319.648 115.833,319.833 115.833 C 320.017 115.833,320.167 115.908,320.167 116.000 C 320.167 116.092,320.354 116.167,320.583 116.167 C 320.843 116.167,321.000 116.261,321.000 116.417 C 321.000 116.572,321.157 116.667,321.417 116.667 C 321.646 116.667,321.833 116.742,321.833 116.833 C 321.833 116.926,322.278 117.000,322.833 117.000 C 323.389 117.000,323.833 117.074,323.833 117.167 C 323.833 117.266,324.472 117.333,325.417 117.333 C 326.361 117.333,327.000 117.266,327.000 117.167 C 327.000 117.074,327.444 117.000,328.000 117.000 C 328.556 117.000,329.000 116.926,329.000 116.833 C 329.000 116.742,329.262 116.667,329.583 116.667 C 329.991 116.667,330.167 116.591,330.167 116.417 C 330.167 116.261,330.324 116.167,330.583 116.167 C 330.813 116.167,331.000 116.092,331.000 116.000 C 331.000 115.908,331.188 115.833,331.417 115.833 C 331.646 115.833,331.833 115.753,331.833 115.655 C 331.833 115.385,332.274 115.000,332.583 115.000 C 332.893 115.000,333.333 114.615,333.333 114.345 C 333.333 114.247,333.414 114.167,333.512 114.167 C 333.743 114.167,334.167 113.743,334.167 113.512 C 334.167 113.414,334.247 113.333,334.345 113.333 C 334.639 113.333,335.000 112.881,335.000 112.512 C 335.000 112.322,335.075 112.167,335.167 112.167 C 335.258 112.167,335.333 111.979,335.333 111.750 C 335.333 111.521,335.414 111.333,335.512 111.333 C 335.850 111.333,336.167 110.856,336.167 110.345 C 336.167 110.001,336.249 109.833,336.417 109.833 C 336.591 109.833,336.667 109.657,336.667 109.250 C 336.667 108.929,336.742 108.667,336.833 108.667 C 336.944 108.667,337.000 98.944,337.000 79.833 C 337.000 60.722,337.056 51.000,337.167 51.000 C 337.259 51.000,337.333 50.556,337.333 50.000 C 337.333 49.222,337.389 49.000,337.583 49.000 C 337.772 49.000,337.833 48.796,337.833 48.167 C 337.833 47.708,337.908 47.333,338.000 47.333 C 338.092 47.333,338.167 47.071,338.167 46.750 C 338.167 46.343,338.242 46.167,338.417 46.167 C 338.572 46.167,338.667 46.009,338.667 45.750 C 338.667 45.521,338.742 45.333,338.833 45.333 C 338.925 45.333,339.000 45.183,339.000 45.000 C 339.000 44.817,339.075 44.667,339.167 44.667 C 339.258 44.667,339.333 44.479,339.333 44.250 C 339.333 43.991,339.428 43.833,339.583 43.833 C 339.732 43.833,339.833 43.680,339.833 43.456 C 339.833 43.249,340.021 42.939,340.250 42.766 C 340.479 42.594,340.667 42.314,340.667 42.143 C 340.667 41.973,340.742 41.833,340.833 41.833 C 340.925 41.833,341.000 41.721,341.000 41.583 C 341.000 41.446,341.075 41.333,341.167 41.333 C 341.258 41.333,341.333 41.183,341.333 41.000 C 341.333 40.815,341.444 40.667,341.583 40.667 C 341.721 40.667,341.833 40.586,341.833 40.488 C 341.833 40.257,342.257 39.833,342.488 39.833 C 342.586 39.833,342.667 39.755,342.667 39.659 C 342.667 39.433,343.433 38.667,343.659 38.667 C 343.755 38.667,343.833 38.554,343.833 38.417 C 343.833 38.275,343.983 38.167,344.179 38.167 C 344.505 38.167,345.000 37.815,345.000 37.583 C 345.000 37.410,345.461 37.000,345.655 37.000 C 345.753 37.000,345.833 36.925,345.833 36.833 C 345.833 36.742,345.986 36.667,346.172 36.667 C 346.358 36.667,346.554 36.554,346.606 36.417 C 346.659 36.279,346.844 36.167,347.018 36.167 C 347.191 36.167,347.333 36.092,347.333 36.000 C 347.333 35.908,347.521 35.833,347.750 35.833 C 348.009 35.833,348.167 35.739,348.167 35.583 C 348.167 35.428,348.324 35.333,348.583 35.333 C 348.813 35.333,349.000 35.258,349.000 35.167 C 349.000 35.075,349.188 35.000,349.417 35.000 C 349.646 35.000,349.833 34.925,349.833 34.833 C 349.833 34.742,350.096 34.667,350.417 34.667 C 350.824 34.667,351.000 34.591,351.000 34.417 C 351.000 34.228,351.204 34.167,351.833 34.167 C 352.292 34.167,352.667 34.092,352.667 34.000 C 352.667 33.903,353.222 33.833,354.000 33.833 C 355.074 33.833,355.333 33.785,355.333 33.583 C 355.333 33.217,358.086 33.217,358.227 33.583 C 358.301 33.777,358.625 33.833,359.661 33.833 C 360.443 33.833,361.000 33.903,361.000 34.000 C 361.000 34.092,361.375 34.167,361.833 34.167 C 362.463 34.167,362.667 34.228,362.667 34.417 C 362.667 34.591,362.843 34.667,363.250 34.667 C 363.571 34.667,363.833 34.742,363.833 34.833 C 363.833 34.925,364.021 35.000,364.250 35.000 C 364.479 35.000,364.667 35.075,364.667 35.167 C 364.667 35.258,364.854 35.333,365.083 35.333 C 365.343 35.333,365.500 35.428,365.500 35.583 C 365.500 35.722,365.648 35.833,365.833 35.833 C 366.017 35.833,366.167 35.908,366.167 36.000 C 366.167 36.092,366.354 36.167,366.583 36.167 C 366.843 36.167,367.000 36.261,367.000 36.417 C 367.000 36.566,367.153 36.667,367.380 36.667 C 367.589 36.667,367.868 36.817,368.000 37.000 C 368.132 37.183,368.336 37.333,368.453 37.333 C 368.571 37.333,368.667 37.414,368.667 37.512 C 368.667 37.806,369.119 38.167,369.488 38.167 C 369.678 38.167,369.833 38.247,369.833 38.345 C 369.833 38.539,370.244 39.000,370.417 39.000 C 370.590 39.000,371.000 39.461,371.000 39.655 C 371.000 39.753,371.080 39.833,371.179 39.833 C 371.409 39.833,371.833 40.257,371.833 40.488 C 371.833 40.586,371.908 40.667,372.000 40.667 C 372.092 40.667,372.167 40.817,372.167 41.000 C 372.167 41.185,372.278 41.333,372.417 41.333 C 372.554 41.333,372.667 41.414,372.667 41.512 C 372.667 41.743,373.091 42.167,373.321 42.167 C 373.420 42.167,373.500 42.354,373.500 42.583 C 373.500 42.813,373.575 43.000,373.667 43.000 C 373.758 43.000,373.833 43.155,373.833 43.345 C 373.833 43.714,374.194 44.167,374.488 44.167 C 374.586 44.167,374.667 44.354,374.667 44.583 C 374.667 44.813,374.742 45.000,374.833 45.000 C 374.925 45.000,375.000 45.262,375.000 45.583 C 375.000 45.991,375.075 46.167,375.250 46.167 C 375.406 46.167,375.500 46.324,375.500 46.583 C 375.500 46.813,375.575 47.000,375.667 47.000 C 375.758 47.000,375.833 47.333,375.833 47.740 C 375.833 48.147,375.908 48.527,376.000 48.583 C 376.092 48.640,376.167 49.019,376.167 49.427 C 376.167 49.973,376.232 50.167,376.417 50.167 C 376.630 50.167,376.667 50.609,376.667 53.149 C 376.667 55.646,376.626 56.147,376.417 56.227 C 376.236 56.296,376.167 56.579,376.167 57.245 C 376.167 57.752,376.092 58.167,376.000 58.167 C 375.908 58.167,375.833 58.467,375.833 58.833 C 375.833 59.200,375.758 59.500,375.667 59.500 C 375.575 59.500,375.500 59.762,375.500 60.083 C 375.500 60.491,375.425 60.667,375.250 60.667 C 375.094 60.667,375.000 60.824,375.000 61.083 C 375.000 61.313,374.925 61.500,374.833 61.500 C 374.742 61.500,374.667 61.762,374.667 62.083 C 374.667 62.404,374.586 62.667,374.488 62.667 C 374.207 62.667,373.833 63.113,373.833 63.449 C 373.833 63.617,373.646 63.895,373.417 64.067 C 373.188 64.239,373.000 64.520,373.000 64.690 C 373.000 64.861,372.925 65.000,372.833 65.000 C 372.742 65.000,372.667 65.112,372.667 65.250 C 372.667 65.387,372.586 65.500,372.488 65.500 C 372.218 65.500,371.833 65.941,371.833 66.250 C 371.833 66.559,371.449 67.000,371.179 67.000 C 371.080 67.000,371.000 67.080,371.000 67.179 C 371.000 67.373,370.590 67.833,370.417 67.833 C 370.278 67.833,369.833 68.278,369.833 68.417 C 369.833 68.649,369.339 69.000,369.012 69.000 C 368.816 69.000,368.667 69.108,368.667 69.250 C 368.667 69.387,368.554 69.500,368.417 69.500 C 368.279 69.500,368.167 69.575,368.167 69.667 C 368.167 69.758,368.017 69.833,367.833 69.833 C 367.650 69.833,367.500 69.908,367.500 70.000 C 367.500 70.092,367.387 70.167,367.250 70.167 C 367.113 70.167,367.000 70.279,367.000 70.417 C 367.000 70.572,366.843 70.667,366.583 70.667 C 366.354 70.667,366.167 70.742,366.167 70.833 C 366.167 70.925,366.017 71.000,365.833 71.000 C 365.648 71.000,365.500 71.111,365.500 71.250 C 365.500 71.406,365.343 71.500,365.083 71.500 C 364.854 71.500,364.667 71.575,364.667 71.667 C 364.667 71.758,364.404 71.833,364.083 71.833 C 363.762 71.833,363.500 71.908,363.500 72.000 C 363.500 72.092,363.313 72.167,363.083 72.167 C 362.824 72.167,362.667 72.261,362.667 72.417 C 362.667 72.606,362.463 72.667,361.833 72.667 L 361.000 72.667 361.000 73.250 C 361.000 73.806,361.028 73.833,361.583 73.833 C 361.904 73.833,362.167 73.908,362.167 74.000 C 362.167 74.092,362.354 74.167,362.583 74.167 C 362.843 74.167,363.000 74.261,363.000 74.417 C 363.000 74.554,363.113 74.667,363.250 74.667 C 363.387 74.667,363.500 74.742,363.500 74.833 C 363.500 74.925,363.650 75.000,363.833 75.000 C 364.017 75.000,364.167 75.075,364.167 75.167 C 364.167 75.258,364.279 75.333,364.417 75.333 C 364.554 75.333,364.667 75.414,364.667 75.512 C 364.667 75.743,365.091 76.167,365.321 76.167 C 365.420 76.167,365.500 76.245,365.500 76.341 C 365.500 76.567,366.266 77.333,366.492 77.333 C 366.588 77.333,366.667 77.446,366.667 77.583 C 366.667 77.721,366.742 77.833,366.833 77.833 C 366.925 77.833,367.000 77.973,367.000 78.143 C 367.000 78.314,367.188 78.594,367.417 78.766 C 367.646 78.938,367.833 79.217,367.833 79.385 C 367.833 79.721,368.207 80.167,368.488 80.167 C 368.586 80.167,368.667 80.354,368.667 80.583 C 368.667 80.813,368.742 81.000,368.833 81.000 C 368.925 81.000,369.000 81.188,369.000 81.417 C 369.000 81.676,369.094 81.833,369.250 81.833 C 369.399 81.833,369.500 81.987,369.500 82.213 C 369.500 82.422,369.650 82.701,369.833 82.833 C 370.017 82.965,370.167 83.245,370.167 83.453 C 370.167 83.680,370.268 83.833,370.417 83.833 C 370.558 83.833,370.667 83.983,370.667 84.179 C 370.667 84.548,371.027 85.000,371.321 85.000 C 371.420 85.000,371.500 85.188,371.500 85.417 C 371.500 85.646,371.575 85.833,371.667 85.833 C 371.758 85.833,371.833 86.021,371.833 86.250 C 371.833 86.479,371.908 86.667,372.000 86.667 C 372.092 86.667,372.167 86.817,372.167 87.000 C 372.167 87.183,372.260 87.334,372.375 87.335 C 372.590 87.336,373.000 88.067,373.000 88.450 C 373.000 88.569,373.113 88.667,373.250 88.667 C 373.389 88.667,373.500 88.815,373.500 89.000 C 373.500 89.183,373.575 89.333,373.667 89.333 C 373.758 89.333,373.833 89.493,373.833 89.689 C 373.833 89.885,374.021 90.219,374.250 90.431 C 374.479 90.644,374.667 90.933,374.667 91.075 C 374.667 91.217,374.742 91.333,374.833 91.333 C 374.925 91.333,375.000 91.446,375.000 91.583 C 375.000 91.739,375.157 91.833,375.417 91.833 C 375.676 91.833,375.833 91.739,375.833 91.583 C 375.833 91.428,375.991 91.333,376.250 91.333 C 376.479 91.333,376.667 91.258,376.667 91.167 C 376.667 91.075,376.817 91.000,377.000 91.000 C 377.183 91.000,377.333 90.925,377.333 90.833 C 377.333 90.742,377.521 90.667,377.750 90.667 C 378.009 90.667,378.167 90.572,378.167 90.417 C 378.167 90.275,378.316 90.167,378.512 90.167 C 378.881 90.167,379.333 89.806,379.333 89.512 C 379.333 89.414,379.521 89.333,379.750 89.333 C 379.979 89.333,380.167 89.258,380.167 89.167 C 380.167 89.075,380.279 89.000,380.417 89.000 C 380.554 89.000,380.667 88.925,380.667 88.833 C 380.667 88.742,380.817 88.667,381.000 88.667 C 381.185 88.667,381.333 88.556,381.333 88.417 C 381.333 88.279,381.446 88.167,381.583 88.167 C 381.721 88.167,381.833 88.092,381.833 88.000 C 381.833 87.908,382.021 87.833,382.250 87.833 C 382.479 87.833,382.667 87.755,382.667 87.659 C 382.667 87.433,383.433 86.667,383.659 86.667 C 383.755 86.667,383.833 86.554,383.833 86.417 C 383.833 86.275,383.983 86.167,384.179 86.167 C 384.505 86.167,385.000 85.815,385.000 85.583 C 385.000 85.444,385.444 85.000,385.583 85.000 C 385.756 85.000,386.167 84.539,386.167 84.345 C 386.167 84.247,386.247 84.167,386.345 84.167 C 386.539 84.167,387.000 83.756,387.000 83.583 C 387.000 83.444,387.444 83.000,387.583 83.000 C 387.756 83.000,388.167 82.539,388.167 82.345 C 388.167 82.247,388.247 82.167,388.345 82.167 C 388.539 82.167,389.000 81.756,389.000 81.583 C 389.000 81.410,389.461 81.000,389.655 81.000 C 389.753 81.000,389.833 80.845,389.833 80.655 C 389.833 80.286,390.194 79.833,390.488 79.833 C 390.586 79.833,390.667 79.737,390.667 79.620 C 390.667 79.503,390.817 79.299,391.000 79.167 C 391.183 79.035,391.333 78.755,391.333 78.547 C 391.333 78.338,391.414 78.167,391.512 78.167 C 391.806 78.167,392.167 77.714,392.167 77.345 C 392.167 77.155,392.247 77.000,392.345 77.000 C 392.639 77.000,393.000 76.548,393.000 76.179 C 393.000 75.989,393.075 75.833,393.167 75.833 C 393.258 75.833,393.333 75.721,393.333 75.583 C 393.333 75.446,393.446 75.333,393.583 75.333 C 393.722 75.333,393.833 75.185,393.833 75.000 C 393.833 74.817,393.908 74.667,394.000 74.667 C 394.092 74.667,394.167 74.479,394.167 74.250 C 394.167 73.991,394.261 73.833,394.417 73.833 C 394.572 73.833,394.667 73.676,394.667 73.417 C 394.667 73.188,394.742 73.000,394.833 73.000 C 394.925 73.000,395.000 72.813,395.000 72.583 C 395.000 72.354,395.075 72.167,395.167 72.167 C 395.258 72.167,395.333 71.979,395.333 71.750 C 395.333 71.491,395.428 71.333,395.583 71.333 C 395.722 71.333,395.833 71.185,395.833 71.000 C 395.833 70.817,395.908 70.667,396.000 70.667 C 396.092 70.667,396.167 70.367,396.167 70.000 C 396.167 69.519,396.236 69.333,396.417 69.333 C 396.556 69.333,396.667 69.185,396.667 69.000 C 396.667 68.817,396.742 68.667,396.833 68.667 C 396.925 68.667,397.000 68.367,397.000 68.000 C 397.000 67.633,397.075 67.333,397.167 67.333 C 397.258 67.333,397.333 67.071,397.333 66.750 C 397.333 66.343,397.409 66.167,397.583 66.167 C 397.758 66.167,397.833 65.991,397.833 65.583 C 397.833 65.262,397.908 65.000,398.000 65.000 C 398.092 65.000,398.167 64.625,398.167 64.167 C 398.167 63.537,398.228 63.333,398.417 63.333 C 398.611 63.333,398.667 63.111,398.667 62.333 C 398.667 61.778,398.741 61.333,398.833 61.333 C 398.929 61.333,399.000 60.833,399.000 60.167 C 399.000 59.500,399.071 59.000,399.167 59.000 C 399.271 59.000,399.333 58.034,399.333 56.434 C 399.333 54.308,399.376 53.853,399.583 53.773 C 399.729 53.717,399.833 53.467,399.833 53.172 C 399.833 52.834,399.751 52.667,399.583 52.667 C 399.372 52.667,399.333 52.269,399.333 50.083 C 399.333 48.472,399.271 47.500,399.167 47.500 C 399.070 47.500,399.000 46.972,399.000 46.250 C 399.000 45.528,398.930 45.000,398.833 45.000 C 398.742 45.000,398.667 44.663,398.667 44.250 C 398.667 43.694,398.602 43.500,398.417 43.500 C 398.228 43.500,398.167 43.296,398.167 42.667 C 398.167 42.208,398.092 41.833,398.000 41.833 C 397.908 41.833,397.833 41.493,397.833 41.078 C 397.833 40.561,397.755 40.293,397.583 40.227 C 397.446 40.174,397.333 39.989,397.333 39.816 C 397.333 39.642,397.258 39.500,397.167 39.500 C 397.075 39.500,397.000 39.200,397.000 38.833 C 397.000 38.467,396.925 38.167,396.833 38.167 C 396.742 38.167,396.667 37.904,396.667 37.583 C 396.667 37.176,396.591 37.000,396.417 37.000 C 396.261 37.000,396.167 36.843,396.167 36.583 C 396.167 36.354,396.092 36.167,396.000 36.167 C 395.908 36.167,395.833 36.017,395.833 35.833 C 395.833 35.648,395.722 35.500,395.583 35.500 C 395.428 35.500,395.333 35.343,395.333 35.083 C 395.333 34.854,395.258 34.667,395.167 34.667 C 395.075 34.667,395.000 34.479,395.000 34.250 C 395.000 34.021,394.925 33.833,394.833 33.833 C 394.742 33.833,394.667 33.646,394.667 33.417 C 394.667 33.157,394.572 33.000,394.417 33.000 C 394.261 33.000,394.167 32.843,394.167 32.583 C 394.167 32.354,394.092 32.167,394.000 32.167 C 393.908 32.167,393.833 32.017,393.833 31.833 C 393.833 31.648,393.722 31.500,393.583 31.500 C 393.446 31.500,393.333 31.387,393.333 31.250 C 393.333 31.113,393.258 31.000,393.167 31.000 C 393.075 31.000,393.000 30.845,393.000 30.655 C 393.000 30.286,392.639 29.833,392.345 29.833 C 392.247 29.833,392.167 29.678,392.167 29.488 C 392.167 29.119,391.806 28.667,391.512 28.667 C 391.414 28.667,391.333 28.554,391.333 28.417 C 391.333 28.279,391.258 28.167,391.167 28.167 C 391.075 28.167,391.000 28.017,391.000 27.833 C 391.000 27.650,390.925 27.500,390.833 27.500 C 390.742 27.500,390.667 27.387,390.667 27.250 C 390.667 27.113,390.586 27.000,390.488 27.000 C 390.194 27.000,389.833 26.548,389.833 26.179 C 389.833 25.989,389.753 25.833,389.655 25.833 C 389.461 25.833,389.000 25.423,389.000 25.250 C 389.000 25.077,388.539 24.667,388.345 24.667 C 388.247 24.667,388.167 24.586,388.167 24.488 C 388.167 24.294,387.756 23.833,387.583 23.833 C 387.444 23.833,387.000 23.389,387.000 23.250 C 387.000 23.077,386.539 22.667,386.345 22.667 C 386.247 22.667,386.167 22.586,386.167 22.488 C 386.167 22.294,385.756 21.833,385.583 21.833 C 385.444 21.833,385.000 21.389,385.000 21.250 C 385.000 21.085,384.543 20.667,384.363 20.667 C 384.275 20.667,384.159 20.554,384.106 20.417 C 384.054 20.279,383.875 20.167,383.709 20.167 C 383.543 20.167,383.299 20.017,383.167 19.833 C 383.035 19.650,382.755 19.500,382.547 19.500 C 382.338 19.500,382.167 19.420,382.167 19.321 C 382.167 19.091,381.743 18.667,381.512 18.667 C 381.414 18.667,381.333 18.554,381.333 18.417 C 381.333 18.278,381.185 18.167,381.000 18.167 C 380.817 18.167,380.667 18.092,380.667 18.000 C 380.667 17.908,380.554 17.833,380.417 17.833 C 380.279 17.833,380.167 17.758,380.167 17.667 C 380.167 17.575,379.979 17.500,379.750 17.500 C 379.491 17.500,379.333 17.406,379.333 17.250 C 379.333 17.111,379.185 17.000,379.000 17.000 C 378.817 17.000,378.667 16.925,378.667 16.833 C 378.667 16.742,378.554 16.667,378.417 16.667 C 378.279 16.667,378.167 16.554,378.167 16.417 C 378.167 16.261,378.009 16.167,377.750 16.167 C 377.521 16.167,377.333 16.092,377.333 16.000 C 377.333 15.908,377.183 15.833,377.000 15.833 C 376.817 15.833,376.667 15.758,376.667 15.667 C 376.667 15.575,376.479 15.500,376.250 15.500 C 375.991 15.500,375.833 15.406,375.833 15.250 C 375.833 15.094,375.676 15.000,375.417 15.000 C 375.188 15.000,375.000 14.925,375.000 14.833 C 375.000 14.742,374.813 14.667,374.583 14.667 C 374.324 14.667,374.167 14.572,374.167 14.417 C 374.167 14.261,374.009 14.167,373.750 14.167 C 373.521 14.167,373.333 14.092,373.333 14.000 C 373.333 13.908,373.071 13.833,372.750 13.833 C 372.429 13.833,372.167 13.758,372.167 13.667 C 372.167 13.575,371.904 13.500,371.583 13.500 C 371.176 13.500,371.000 13.425,371.000 13.250 C 371.000 13.075,370.824 13.000,370.417 13.000 C 370.096 13.000,369.833 12.925,369.833 12.833 C 369.833 12.742,369.571 12.667,369.250 12.667 C 368.843 12.667,368.667 12.591,368.667 12.417 C 368.667 12.228,368.463 12.167,367.833 12.167 C 367.375 12.167,367.000 12.092,367.000 12.000 C 367.000 11.908,366.625 11.833,366.167 11.833 C 365.708 11.833,365.333 11.758,365.333 11.667 C 365.333 11.569,364.778 11.500,364.000 11.500 C 362.926 11.500,362.667 11.451,362.667 11.250 C 362.667 11.043,362.352 11.000,360.833 11.000 C 359.722 11.000,359.000 10.934,359.000 10.833 C 359.000 10.731,358.167 10.667,356.833 10.667 C 355.500 10.667,354.667 10.731,354.667 10.833 M144.000 43.250 C 143.828 43.457,143.212 43.500,140.396 43.500 C 138.243 43.500,137.000 43.561,137.000 43.667 C 137.000 43.764,136.444 43.833,135.667 43.833 C 134.889 43.833,134.333 43.903,134.333 44.000 C 134.333 44.092,134.041 44.167,133.684 44.167 C 133.262 44.167,133.002 44.254,132.940 44.417 C 132.884 44.563,132.634 44.667,132.339 44.667 C 132.061 44.667,131.833 44.742,131.833 44.833 C 131.833 44.925,131.655 45.000,131.437 45.000 C 131.219 45.000,130.947 45.112,130.833 45.250 C 130.719 45.387,130.523 45.500,130.396 45.500 C 130.270 45.500,130.167 45.575,130.167 45.667 C 130.167 45.758,130.017 45.833,129.833 45.833 C 129.650 45.833,129.500 45.908,129.500 46.000 C 129.500 46.092,129.387 46.167,129.250 46.167 C 129.112 46.167,129.000 46.244,129.000 46.339 C 129.000 46.433,128.869 46.560,128.708 46.621 C 128.271 46.786,127.500 47.604,127.500 47.904 C 127.500 48.048,127.388 48.167,127.250 48.167 C 127.112 48.167,127.000 48.279,127.000 48.417 C 127.000 48.554,126.925 48.667,126.833 48.667 C 126.742 48.667,126.667 48.854,126.667 49.083 C 126.667 49.343,126.572 49.500,126.417 49.500 C 126.278 49.500,126.167 49.648,126.167 49.833 C 126.167 50.017,126.092 50.167,126.000 50.167 C 125.908 50.167,125.833 50.354,125.833 50.583 C 125.833 50.813,125.758 51.000,125.667 51.000 C 125.575 51.000,125.500 51.179,125.500 51.399 C 125.500 51.618,125.388 51.841,125.250 51.894 C 125.079 51.959,125.000 52.227,125.000 52.745 C 125.000 53.160,124.925 53.500,124.833 53.500 C 124.742 53.500,124.664 53.931,124.661 54.458 C 124.658 55.035,124.559 55.545,124.411 55.740 C 124.050 56.218,124.050 64.282,124.411 64.760 C 124.559 64.955,124.658 65.465,124.661 66.042 C 124.664 66.569,124.742 67.000,124.833 67.000 C 124.925 67.000,125.000 67.329,125.000 67.732 C 125.000 68.229,125.080 68.495,125.250 68.560 C 125.396 68.616,125.500 68.866,125.500 69.161 C 125.500 69.439,125.575 69.667,125.667 69.667 C 125.758 69.667,125.833 69.854,125.833 70.083 C 125.833 70.313,125.908 70.500,126.000 70.500 C 126.092 70.500,126.167 70.652,126.167 70.839 C 126.167 71.025,126.279 71.220,126.417 71.273 C 126.554 71.326,126.667 71.473,126.667 71.601 C 126.667 71.729,126.742 71.833,126.833 71.833 C 126.925 71.833,127.000 71.955,127.000 72.104 C 127.000 72.252,127.450 72.812,128.000 73.346 C 128.550 73.881,129.000 74.397,129.000 74.493 C 129.000 74.588,129.096 74.667,129.213 74.667 C 129.330 74.667,129.535 74.817,129.667 75.000 C 129.799 75.183,130.078 75.333,130.287 75.333 C 130.496 75.333,130.667 75.414,130.667 75.512 C 130.667 75.782,131.107 76.167,131.417 76.167 C 131.567 76.167,131.803 76.279,131.940 76.417 C 132.078 76.554,132.331 76.667,132.502 76.667 C 132.673 76.667,132.860 76.742,132.917 76.833 C 132.973 76.925,133.236 77.000,133.500 77.000 C 133.764 77.000,134.027 77.075,134.083 77.167 C 134.140 77.258,134.736 77.333,135.409 77.333 C 136.341 77.333,136.654 77.393,136.727 77.583 C 136.855 77.917,138.320 77.921,138.760 77.589 C 138.968 77.431,139.484 77.342,140.208 77.339 C 140.844 77.336,141.333 77.261,141.333 77.167 C 141.333 77.075,141.591 77.000,141.907 77.000 C 142.222 77.000,142.527 76.925,142.583 76.833 C 142.640 76.742,142.827 76.667,142.998 76.667 C 143.169 76.667,143.412 76.573,143.536 76.458 C 143.891 76.133,144.471 75.833,144.748 75.833 C 144.886 75.833,145.000 75.753,145.000 75.655 C 145.000 75.397,145.435 75.000,145.718 75.000 C 145.993 75.000,147.333 73.755,147.333 73.500 C 147.333 73.408,147.432 73.333,147.552 73.333 C 147.673 73.333,147.874 73.071,148.000 72.750 C 148.126 72.429,148.300 72.167,148.388 72.167 C 148.618 72.167,148.989 71.632,148.995 71.292 C 148.998 71.131,149.075 71.000,149.167 71.000 C 149.258 71.000,149.333 70.813,149.333 70.583 C 149.333 70.324,149.428 70.167,149.583 70.167 C 149.758 70.167,149.833 69.991,149.833 69.583 C 149.833 69.262,149.908 69.000,150.000 69.000 C 150.092 69.000,150.169 68.756,150.172 68.458 C 150.175 68.160,150.287 67.771,150.422 67.593 C 150.783 67.116,150.778 61.969,150.417 61.607 C 150.279 61.470,150.167 61.089,150.167 60.762 C 150.167 60.435,150.092 60.167,150.000 60.167 C 149.908 60.167,149.833 59.939,149.833 59.661 C 149.833 59.366,149.729 59.116,149.583 59.060 C 149.446 59.008,149.333 58.785,149.333 58.566 C 149.333 58.346,149.258 58.167,149.167 58.167 C 149.075 58.167,149.000 58.044,149.000 57.894 C 149.000 57.744,148.813 57.448,148.583 57.235 C 148.354 57.023,148.167 56.777,148.167 56.689 C 148.167 56.601,147.904 56.258,147.583 55.928 C 147.262 55.598,147.000 55.266,147.000 55.192 C 147.000 55.117,146.813 54.956,146.583 54.833 C 146.354 54.711,146.167 54.525,146.167 54.420 C 146.167 54.315,145.904 54.126,145.583 54.000 C 145.262 53.874,145.000 53.710,145.000 53.636 C 145.000 53.561,144.896 53.500,144.768 53.500 C 144.640 53.500,144.492 53.387,144.440 53.250 C 144.387 53.112,144.229 53.000,144.089 53.000 C 143.948 53.000,143.833 52.925,143.833 52.833 C 143.833 52.742,143.678 52.667,143.488 52.667 C 143.298 52.667,143.030 52.554,142.893 52.417 C 142.755 52.279,142.465 52.167,142.248 52.167 C 142.031 52.167,141.807 52.092,141.750 52.000 C 141.693 51.908,141.243 51.833,140.750 51.833 C 140.257 51.833,139.807 51.758,139.750 51.667 C 139.691 51.571,138.832 51.500,137.740 51.500 C 136.580 51.500,135.833 51.565,135.833 51.667 C 135.833 51.758,135.425 51.833,134.927 51.833 C 134.428 51.833,133.973 51.908,133.917 52.000 C 133.860 52.092,133.631 52.167,133.407 52.167 C 133.156 52.167,133.000 52.263,133.000 52.417 C 133.000 52.583,132.833 52.667,132.500 52.667 C 132.225 52.667,132.000 52.742,132.000 52.833 C 132.000 52.925,131.887 53.000,131.750 53.000 C 131.612 53.000,131.500 53.112,131.500 53.250 C 131.500 53.406,131.343 53.500,131.083 53.500 C 130.854 53.500,130.667 53.567,130.667 53.649 C 130.667 53.731,130.554 53.841,130.417 53.894 C 130.247 53.959,130.167 53.885,130.167 53.661 C 130.167 53.481,130.279 53.333,130.417 53.333 C 130.554 53.333,130.667 53.242,130.667 53.130 C 130.667 52.817,131.399 51.340,131.556 51.336 C 131.632 51.335,131.949 51.071,132.261 50.750 C 132.573 50.429,132.941 50.167,133.080 50.167 C 133.220 50.167,133.333 50.092,133.333 50.000 C 133.333 49.908,133.521 49.833,133.750 49.833 C 134.009 49.833,134.167 49.739,134.167 49.583 C 134.167 49.400,134.357 49.333,134.883 49.333 C 135.278 49.333,135.671 49.263,135.758 49.178 C 135.939 49.000,137.736 48.880,142.820 48.706 C 145.438 48.616,146.408 48.528,146.459 48.375 C 146.507 48.230,146.956 48.167,147.931 48.167 L 149.333 48.167 149.333 45.583 L 149.333 43.000 146.770 43.000 C 144.696 43.000,144.168 43.048,144.000 43.250 M0.667 60.583 L 0.667 77.000 3.417 77.000 L 6.167 77.000 6.167 70.000 L 6.167 63.000 9.073 63.000 C 10.832 63.000,12.021 62.934,12.083 62.833 C 12.140 62.742,12.814 62.667,13.581 62.667 C 14.599 62.667,15.044 62.599,15.226 62.417 C 15.364 62.279,15.707 62.167,15.988 62.167 C 16.270 62.167,16.500 62.092,16.500 62.000 C 16.500 61.908,16.688 61.833,16.917 61.833 C 17.176 61.833,17.333 61.739,17.333 61.583 C 17.333 61.428,17.491 61.333,17.750 61.333 C 17.979 61.333,18.167 61.258,18.167 61.167 C 18.167 61.075,18.245 61.000,18.340 61.000 C 18.664 61.000,19.947 59.751,20.095 59.292 C 20.147 59.131,20.297 59.000,20.428 59.000 C 20.559 59.000,20.667 58.887,20.667 58.750 C 20.667 58.612,20.742 58.500,20.833 58.500 C 20.925 58.500,21.000 58.354,21.000 58.177 C 21.000 57.999,21.075 57.807,21.167 57.750 C 21.258 57.693,21.333 57.434,21.333 57.175 C 21.333 56.909,21.442 56.660,21.583 56.606 C 21.792 56.526,21.833 56.034,21.833 53.609 C 21.833 51.233,21.788 50.670,21.583 50.500 C 21.446 50.386,21.333 50.114,21.333 49.896 C 21.333 49.678,21.258 49.500,21.167 49.500 C 21.075 49.500,21.000 49.313,21.000 49.083 C 21.000 48.854,20.925 48.667,20.833 48.667 C 20.742 48.667,20.667 48.558,20.667 48.424 C 20.667 48.291,20.479 47.994,20.250 47.765 C 20.021 47.536,19.833 47.270,19.833 47.174 C 19.833 47.078,19.739 47.000,19.623 47.000 C 19.507 47.000,19.272 46.813,19.100 46.583 C 18.927 46.354,18.664 46.167,18.513 46.167 C 18.363 46.167,18.132 46.017,18.000 45.833 C 17.868 45.650,17.589 45.500,17.380 45.500 C 17.153 45.500,17.000 45.399,17.000 45.250 C 17.000 45.075,16.824 45.000,16.417 45.000 C 16.096 45.000,15.833 44.925,15.833 44.833 C 15.833 44.742,15.453 44.667,14.988 44.667 C 14.459 44.667,14.049 44.573,13.893 44.417 C 13.679 44.203,12.700 44.167,7.155 44.167 L 0.667 44.167 0.667 60.583 M13.750 50.000 C 13.807 50.092,14.036 50.167,14.260 50.167 C 14.484 50.167,14.667 50.247,14.667 50.345 C 14.667 50.539,15.077 51.000,15.250 51.000 C 15.482 51.000,15.833 51.495,15.833 51.821 C 15.833 52.011,15.908 52.167,16.000 52.167 C 16.241 52.167,16.207 54.513,15.958 55.049 C 15.844 55.296,15.694 55.498,15.625 55.499 C 15.556 55.499,15.500 55.650,15.500 55.833 C 15.500 56.019,15.389 56.167,15.250 56.167 C 15.112 56.167,15.000 56.279,15.000 56.417 C 15.000 56.554,14.854 56.667,14.677 56.667 C 14.499 56.667,14.307 56.742,14.250 56.833 C 14.193 56.925,14.007 57.000,13.835 57.000 C 13.664 57.000,13.411 57.112,13.274 57.250 C 13.068 57.456,12.421 57.500,9.595 57.500 L 6.167 57.500 6.167 53.667 L 6.167 49.833 9.907 49.833 C 12.220 49.833,13.686 49.897,13.750 50.000 M34.333 51.667 C 34.333 51.758,33.925 51.833,33.427 51.833 C 32.928 51.833,32.473 51.908,32.417 52.000 C 32.360 52.092,32.140 52.167,31.927 52.167 C 31.715 52.167,31.447 52.279,31.333 52.417 C 31.219 52.554,30.948 52.667,30.730 52.667 C 30.512 52.667,30.333 52.742,30.333 52.833 C 30.333 52.925,30.221 53.000,30.083 53.000 C 29.946 53.000,29.833 53.112,29.833 53.250 C 29.833 53.399,29.680 53.500,29.453 53.500 C 29.245 53.500,28.965 53.650,28.833 53.833 C 28.701 54.017,28.494 54.167,28.373 54.167 C 28.105 54.167,26.167 56.130,26.167 56.401 C 26.167 56.507,26.017 56.701,25.833 56.833 C 25.650 56.965,25.500 57.245,25.500 57.453 C 25.500 57.662,25.400 57.833,25.278 57.833 C 25.063 57.833,24.896 58.110,24.369 59.333 C 24.231 59.654,24.054 60.047,23.975 60.206 C 23.897 60.365,23.833 60.792,23.833 61.155 C 23.833 61.517,23.758 61.860,23.667 61.917 C 23.568 61.978,23.500 63.030,23.500 64.510 C 23.500 66.059,23.563 67.000,23.667 67.000 C 23.758 67.000,23.833 67.371,23.833 67.823 C 23.833 68.276,23.908 68.693,24.000 68.750 C 24.092 68.807,24.167 69.038,24.167 69.265 C 24.167 69.492,24.279 69.720,24.417 69.773 C 24.554 69.826,24.667 69.996,24.667 70.151 C 24.667 70.588,25.060 71.331,25.292 71.332 C 25.406 71.333,25.500 71.521,25.500 71.750 C 25.500 71.979,25.575 72.167,25.667 72.167 C 25.758 72.167,25.833 72.247,25.833 72.345 C 25.833 72.576,26.257 73.000,26.488 73.000 C 26.586 73.000,26.667 73.095,26.667 73.210 C 26.667 73.525,28.146 75.000,28.462 75.000 C 28.531 75.000,28.728 75.188,28.900 75.417 C 29.073 75.646,29.353 75.833,29.523 75.833 C 29.694 75.833,29.833 75.908,29.833 76.000 C 29.833 76.092,30.021 76.167,30.250 76.167 C 30.509 76.167,30.667 76.261,30.667 76.417 C 30.667 76.572,30.824 76.667,31.083 76.667 C 31.313 76.667,31.500 76.742,31.500 76.833 C 31.500 76.925,31.762 77.000,32.083 77.000 C 32.404 77.000,32.667 77.075,32.667 77.167 C 32.667 77.262,33.160 77.333,33.813 77.333 C 34.628 77.333,35.019 77.405,35.167 77.583 C 35.298 77.742,35.666 77.833,36.175 77.833 C 36.665 77.833,37.073 77.736,37.226 77.583 C 37.401 77.408,37.829 77.333,38.655 77.333 C 39.329 77.333,39.833 77.262,39.833 77.167 C 39.833 77.075,40.096 77.000,40.417 77.000 C 40.737 77.000,41.000 76.925,41.000 76.833 C 41.000 76.742,41.152 76.667,41.339 76.667 C 41.525 76.667,41.720 76.554,41.773 76.417 C 41.826 76.279,42.048 76.167,42.268 76.167 C 42.487 76.167,42.667 76.092,42.667 76.000 C 42.667 75.908,42.817 75.833,43.000 75.833 C 43.185 75.833,43.333 75.722,43.333 75.583 C 43.333 75.446,43.446 75.333,43.583 75.333 C 43.772 75.333,43.833 75.537,43.833 76.167 L 43.833 77.000 46.583 77.000 L 49.333 77.000 49.333 64.579 L 49.333 52.158 46.625 52.204 L 43.917 52.250 43.866 53.037 C 43.814 53.842,43.404 53.918,42.950 53.208 C 42.877 53.094,42.670 53.000,42.492 53.000 C 42.313 53.000,42.167 52.925,42.167 52.833 C 42.167 52.742,42.011 52.667,41.821 52.667 C 41.632 52.667,41.364 52.554,41.226 52.417 C 41.089 52.279,40.798 52.167,40.581 52.167 C 40.364 52.167,40.140 52.092,40.083 52.000 C 40.027 51.908,39.572 51.833,39.073 51.833 C 38.575 51.833,38.167 51.758,38.167 51.667 C 38.167 51.565,37.417 51.500,36.250 51.500 C 35.083 51.500,34.333 51.565,34.333 51.667 M56.333 51.667 C 56.333 51.758,56.038 51.833,55.677 51.833 C 55.315 51.833,54.973 51.908,54.917 52.000 C 54.860 52.092,54.628 52.167,54.402 52.167 C 54.175 52.167,53.946 52.279,53.894 52.417 C 53.841 52.554,53.618 52.667,53.399 52.667 C 53.179 52.667,53.000 52.742,53.000 52.833 C 53.000 52.925,52.885 53.000,52.745 53.000 C 52.604 53.000,52.446 53.112,52.394 53.250 C 52.341 53.387,52.193 53.500,52.066 53.500 C 51.938 53.500,51.833 53.575,51.833 53.667 C 51.833 53.758,51.702 53.836,51.542 53.839 C 51.181 53.845,50.667 54.221,50.667 54.477 C 50.667 54.581,50.554 54.667,50.417 54.667 C 49.988 54.667,50.108 55.576,50.583 55.933 C 50.813 56.105,51.000 56.340,51.000 56.456 C 51.000 56.572,51.112 56.667,51.250 56.667 C 51.389 56.667,51.500 56.815,51.500 57.000 C 51.500 57.183,51.575 57.333,51.667 57.333 C 51.758 57.333,51.833 57.414,51.833 57.512 C 51.833 57.743,52.257 58.167,52.488 58.167 C 52.586 58.167,52.667 58.266,52.667 58.389 C 52.667 58.926,53.511 59.104,53.902 58.649 C 54.104 58.415,54.508 58.117,54.801 57.988 C 55.094 57.858,55.333 57.658,55.333 57.543 C 55.333 57.428,55.521 57.333,55.750 57.333 C 55.979 57.333,56.167 57.258,56.167 57.167 C 56.167 57.075,56.429 57.000,56.750 57.000 C 57.071 57.000,57.333 56.925,57.333 56.833 C 57.333 56.742,57.629 56.667,57.990 56.667 C 58.351 56.667,58.693 56.742,58.750 56.833 C 58.807 56.925,59.041 57.000,59.272 57.000 C 59.691 57.000,60.167 57.337,60.167 57.634 C 60.167 57.721,60.279 57.886,60.417 58.000 C 60.939 58.434,60.746 59.929,60.083 60.572 C 59.762 60.884,59.500 61.220,59.500 61.319 C 59.500 61.439,58.825 61.500,57.500 61.500 L 55.500 61.500 55.500 64.083 L 55.500 66.667 57.500 66.667 C 58.722 66.667,59.500 66.731,59.500 66.833 C 59.500 66.925,59.650 67.000,59.833 67.000 C 60.017 67.000,60.167 67.075,60.167 67.167 C 60.167 67.258,60.279 67.333,60.417 67.333 C 60.554 67.333,60.667 67.446,60.667 67.583 C 60.667 67.721,60.742 67.833,60.833 67.833 C 60.925 67.833,61.000 67.975,61.000 68.149 C 61.000 68.322,61.112 68.508,61.250 68.560 C 61.420 68.625,61.500 68.892,61.500 69.391 C 61.500 69.841,61.403 70.206,61.250 70.333 C 61.112 70.447,61.000 70.625,61.000 70.729 C 61.000 70.990,60.253 71.833,60.022 71.833 C 59.918 71.833,59.833 71.908,59.833 72.000 C 59.833 72.092,59.580 72.167,59.270 72.167 C 58.961 72.167,58.614 72.279,58.500 72.417 C 58.386 72.554,58.077 72.667,57.813 72.667 C 57.498 72.667,57.333 72.581,57.333 72.417 C 57.333 72.243,57.159 72.167,56.760 72.167 C 56.444 72.167,56.140 72.092,56.083 72.000 C 56.027 71.908,55.835 71.833,55.657 71.833 C 55.479 71.833,55.333 71.758,55.333 71.667 C 55.333 71.575,55.220 71.500,55.083 71.500 C 54.945 71.500,54.460 71.120,54.005 70.656 C 53.093 69.725,52.312 69.569,51.933 70.243 C 51.669 70.714,51.383 71.000,51.179 71.000 C 51.080 71.000,51.000 71.085,51.000 71.189 C 51.000 71.388,50.171 72.166,49.958 72.166 C 49.890 72.167,49.833 72.279,49.833 72.417 C 49.833 72.554,49.758 72.667,49.667 72.667 C 49.575 72.667,49.500 72.978,49.500 73.359 C 49.500 74.115,50.545 75.333,51.194 75.333 C 51.362 75.333,51.500 75.414,51.500 75.512 C 51.500 75.800,51.950 76.167,52.304 76.167 C 52.484 76.167,52.674 76.279,52.727 76.417 C 52.780 76.554,52.975 76.667,53.161 76.667 C 53.348 76.667,53.500 76.742,53.500 76.833 C 53.500 76.925,53.762 77.000,54.083 77.000 C 54.404 77.000,54.667 77.075,54.667 77.167 C 54.667 77.259,55.105 77.333,55.649 77.333 C 56.368 77.333,56.657 77.400,56.727 77.583 C 56.867 77.947,59.633 77.947,59.773 77.583 C 59.843 77.400,60.132 77.333,60.851 77.333 C 61.395 77.333,61.833 77.259,61.833 77.167 C 61.833 77.075,61.968 77.000,62.133 77.000 C 62.585 77.000,63.331 76.611,63.332 76.375 C 63.333 76.260,63.489 76.167,63.680 76.167 C 64.094 76.167,65.333 74.892,65.333 74.466 C 65.333 74.301,65.446 74.167,65.583 74.167 C 65.721 74.167,65.833 74.054,65.833 73.917 C 65.833 73.779,65.908 73.667,66.000 73.667 C 66.092 73.667,66.167 73.517,66.167 73.333 C 66.167 73.150,66.241 73.000,66.331 73.000 C 66.422 73.000,66.544 72.698,66.603 72.330 C 66.662 71.961,66.776 71.619,66.855 71.570 C 67.063 71.442,67.041 66.667,66.833 66.667 C 66.742 66.667,66.667 66.404,66.667 66.083 C 66.667 65.676,66.591 65.500,66.417 65.500 C 66.261 65.500,66.167 65.343,66.167 65.083 C 66.167 64.854,66.092 64.667,66.000 64.667 C 65.908 64.667,65.833 64.577,65.833 64.467 C 65.833 64.358,65.640 64.066,65.404 63.820 C 64.957 63.354,65.043 62.822,65.625 62.450 C 65.745 62.373,65.833 61.972,65.833 61.502 C 65.833 61.053,65.908 60.640,66.000 60.583 C 66.092 60.527,66.167 59.810,66.167 58.990 C 66.167 58.108,66.099 57.500,66.000 57.500 C 65.908 57.500,65.833 57.125,65.833 56.667 C 65.833 56.037,65.772 55.833,65.583 55.833 C 65.428 55.833,65.333 55.676,65.333 55.417 C 65.333 55.188,65.258 55.000,65.167 55.000 C 65.075 55.000,65.000 54.884,65.000 54.742 C 65.000 54.399,63.609 53.000,63.268 53.000 C 63.121 53.000,63.000 52.925,63.000 52.833 C 63.000 52.742,62.894 52.667,62.764 52.667 C 62.634 52.667,62.500 52.584,62.466 52.482 C 62.388 52.248,61.225 51.839,60.625 51.836 C 60.373 51.834,60.167 51.758,60.167 51.667 C 60.167 51.565,59.417 51.500,58.250 51.500 C 57.083 51.500,56.333 51.565,56.333 51.667 M80.417 51.667 C 80.360 51.758,79.943 51.833,79.490 51.833 C 79.037 51.833,78.667 51.908,78.667 52.000 C 78.667 52.092,78.404 52.167,78.083 52.167 C 77.676 52.167,77.500 52.242,77.500 52.417 C 77.500 52.572,77.343 52.667,77.083 52.667 C 76.854 52.667,76.667 52.742,76.667 52.833 C 76.667 52.925,76.479 53.000,76.250 53.000 C 75.991 53.000,75.833 53.094,75.833 53.250 C 75.833 53.406,75.676 53.500,75.417 53.500 C 75.188 53.500,75.000 53.575,75.000 53.667 C 75.000 53.758,74.925 53.833,74.833 53.833 C 74.742 53.833,74.667 53.458,74.667 53.000 L 74.667 52.167 72.083 52.167 L 69.500 52.167 69.500 68.754 L 69.500 85.342 72.042 85.296 L 74.583 85.250 74.627 80.292 C 74.655 77.177,74.733 75.333,74.836 75.333 C 74.926 75.333,75.000 75.407,75.000 75.497 C 75.000 75.587,75.188 75.707,75.417 75.765 C 75.646 75.822,75.833 75.936,75.833 76.018 C 75.833 76.100,75.989 76.167,76.179 76.167 C 76.368 76.167,76.636 76.279,76.774 76.417 C 76.911 76.554,77.164 76.667,77.335 76.667 C 77.507 76.667,77.693 76.742,77.750 76.833 C 77.807 76.925,78.069 77.000,78.333 77.000 C 78.598 77.000,78.860 77.075,78.917 77.167 C 78.973 77.258,79.531 77.333,80.156 77.333 C 80.963 77.333,81.353 77.406,81.500 77.583 C 81.631 77.741,81.999 77.833,82.500 77.833 C 83.001 77.833,83.369 77.741,83.500 77.583 C 83.647 77.406,84.037 77.333,84.844 77.333 C 85.469 77.333,86.027 77.258,86.083 77.167 C 86.140 77.075,86.344 77.000,86.537 77.000 C 86.968 77.000,88.167 76.486,88.167 76.301 C 88.167 76.227,88.298 76.164,88.458 76.161 C 88.819 76.155,89.333 75.779,89.333 75.523 C 89.333 75.419,89.496 75.333,89.695 75.333 C 89.907 75.333,90.356 75.021,90.776 74.583 C 91.171 74.171,91.571 73.833,91.664 73.833 C 91.757 73.833,91.833 73.739,91.833 73.623 C 91.833 73.507,92.014 73.277,92.235 73.111 C 92.455 72.945,92.727 72.590,92.838 72.321 C 92.949 72.053,93.106 71.833,93.187 71.833 C 93.267 71.833,93.333 71.646,93.333 71.417 C 93.333 71.157,93.428 71.000,93.583 71.000 C 93.739 71.000,93.833 70.843,93.833 70.583 C 93.833 70.354,93.908 70.167,94.000 70.167 C 94.092 70.167,94.167 69.987,94.167 69.768 C 94.167 69.548,94.279 69.326,94.417 69.273 C 94.561 69.218,94.667 68.968,94.667 68.682 C 94.667 68.409,94.742 68.140,94.833 68.083 C 94.925 68.027,95.000 67.281,95.000 66.421 C 95.000 65.324,95.062 64.839,95.208 64.786 C 95.375 64.725,95.375 64.640,95.208 64.357 C 95.083 64.145,95.000 63.405,95.000 62.502 C 95.000 61.612,94.932 61.000,94.833 61.000 C 94.742 61.000,94.667 60.773,94.667 60.495 C 94.667 60.199,94.563 59.950,94.417 59.894 C 94.262 59.834,94.167 59.581,94.167 59.232 C 94.167 58.921,94.092 58.667,94.000 58.667 C 93.908 58.667,93.833 58.572,93.833 58.457 C 93.833 58.341,93.646 58.044,93.417 57.797 C 93.188 57.550,93.000 57.226,93.000 57.078 C 93.000 56.782,91.786 55.500,91.507 55.500 C 91.411 55.500,91.333 55.422,91.333 55.327 C 91.333 55.041,90.123 53.913,89.542 53.657 C 89.244 53.526,89.000 53.324,89.000 53.209 C 89.000 53.094,88.813 53.000,88.583 53.000 C 88.354 53.000,88.167 52.925,88.167 52.833 C 88.167 52.742,87.979 52.667,87.750 52.667 C 87.491 52.667,87.333 52.572,87.333 52.417 C 87.333 52.242,87.157 52.167,86.750 52.167 C 86.429 52.167,86.167 52.092,86.167 52.000 C 86.167 51.907,85.722 51.833,85.167 51.833 C 84.611 51.833,84.167 51.759,84.167 51.667 C 84.167 51.566,83.448 51.500,82.343 51.500 C 81.307 51.500,80.475 51.572,80.417 51.667 M107.917 51.667 C 107.860 51.758,107.410 51.833,106.917 51.833 C 106.423 51.833,105.973 51.908,105.917 52.000 C 105.860 52.092,105.628 52.167,105.402 52.167 C 105.175 52.167,104.946 52.279,104.894 52.417 C 104.841 52.554,104.637 52.669,104.441 52.672 C 104.026 52.678,103.500 53.035,103.500 53.310 C 103.500 53.415,103.313 53.500,103.083 53.500 C 102.854 53.500,102.667 53.575,102.667 53.667 C 102.667 53.758,102.589 53.833,102.493 53.833 C 102.397 53.833,102.229 53.910,102.118 54.003 C 101.248 54.738,100.899 55.000,100.792 55.000 C 100.723 55.000,100.667 55.095,100.667 55.210 C 100.667 55.326,100.479 55.562,100.250 55.734 C 100.021 55.906,99.833 56.154,99.833 56.285 C 99.833 56.565,99.435 57.000,99.179 57.000 C 99.080 57.000,99.000 57.188,99.000 57.417 C 99.000 57.646,98.936 57.833,98.857 57.833 C 98.659 57.833,97.833 59.459,97.833 59.849 C 97.833 60.024,97.758 60.167,97.667 60.167 C 97.575 60.167,97.500 60.532,97.500 60.980 C 97.500 61.499,97.410 61.867,97.250 62.000 C 97.049 62.167,97.000 62.677,97.000 64.604 C 97.000 66.623,97.039 67.000,97.250 67.000 C 97.442 67.000,97.500 67.212,97.500 67.907 C 97.500 68.406,97.575 68.860,97.667 68.917 C 97.758 68.973,97.833 69.203,97.833 69.427 C 97.833 69.650,97.908 69.833,98.000 69.833 C 98.092 69.833,98.167 69.974,98.167 70.146 C 98.167 70.318,98.279 70.553,98.417 70.667 C 98.554 70.781,98.667 70.977,98.667 71.104 C 98.667 71.230,98.742 71.333,98.833 71.333 C 98.925 71.333,99.000 71.521,99.000 71.750 C 99.000 72.009,99.094 72.167,99.250 72.167 C 99.388 72.167,99.500 72.244,99.500 72.339 C 99.500 72.689,102.129 75.333,102.476 75.333 C 102.561 75.333,102.674 75.446,102.727 75.583 C 102.780 75.721,102.975 75.833,103.161 75.833 C 103.348 75.833,103.500 75.908,103.500 76.000 C 103.500 76.092,103.642 76.167,103.816 76.167 C 103.989 76.167,104.174 76.279,104.227 76.417 C 104.280 76.554,104.475 76.667,104.661 76.667 C 104.848 76.667,105.000 76.742,105.000 76.833 C 105.000 76.925,105.258 77.000,105.573 77.000 C 105.889 77.000,106.193 77.075,106.250 77.167 C 106.307 77.258,106.841 77.333,107.438 77.333 C 108.181 77.333,108.603 77.412,108.774 77.583 C 109.096 77.906,110.336 77.909,110.760 77.589 C 110.968 77.431,111.484 77.342,112.208 77.339 C 112.844 77.336,113.333 77.261,113.333 77.167 C 113.333 77.075,113.591 77.000,113.907 77.000 C 114.222 77.000,114.527 76.925,114.583 76.833 C 114.640 76.742,114.832 76.667,115.010 76.667 C 115.188 76.667,115.333 76.554,115.333 76.417 C 115.333 76.261,115.491 76.167,115.750 76.167 C 115.979 76.167,116.167 76.092,116.167 76.000 C 116.167 75.908,116.354 75.833,116.583 75.833 C 116.843 75.833,117.000 75.739,117.000 75.583 C 117.000 75.446,117.112 75.333,117.250 75.333 C 117.439 75.333,117.500 75.537,117.500 76.167 L 117.500 77.000 120.250 77.000 L 123.000 77.000 123.000 64.583 L 123.000 52.167 120.250 52.167 L 117.500 52.167 117.500 53.033 C 117.500 53.707,117.456 53.856,117.300 53.700 C 117.190 53.590,116.965 53.500,116.800 53.500 C 116.635 53.500,116.500 53.387,116.500 53.250 C 116.500 53.111,116.352 53.000,116.167 53.000 C 115.983 53.000,115.833 52.925,115.833 52.833 C 115.833 52.742,115.655 52.667,115.437 52.667 C 115.219 52.667,114.947 52.554,114.833 52.417 C 114.719 52.279,114.452 52.167,114.239 52.167 C 114.027 52.167,113.807 52.092,113.750 52.000 C 113.693 51.908,113.239 51.833,112.740 51.833 C 112.241 51.833,111.833 51.758,111.833 51.667 C 111.833 51.565,111.087 51.500,109.927 51.500 C 108.835 51.500,107.976 51.571,107.917 51.667 M163.083 51.667 C 163.027 51.758,162.577 51.833,162.083 51.833 C 161.590 51.833,161.140 51.908,161.083 52.000 C 161.027 52.092,160.806 52.167,160.594 52.167 C 160.381 52.167,160.114 52.279,160.000 52.417 C 159.886 52.554,159.614 52.667,159.396 52.667 C 159.178 52.667,159.000 52.742,159.000 52.833 C 159.000 52.925,158.885 53.000,158.745 53.000 C 158.604 53.000,158.446 53.112,158.394 53.250 C 158.341 53.387,158.193 53.500,158.066 53.500 C 157.938 53.500,157.833 53.570,157.833 53.655 C 157.833 53.741,157.682 53.859,157.497 53.918 C 157.312 53.976,156.920 54.244,156.626 54.512 C 156.333 54.780,156.034 55.000,155.963 55.000 C 155.892 55.000,155.833 55.095,155.833 55.210 C 155.833 55.326,155.646 55.562,155.417 55.734 C 155.188 55.906,155.000 56.130,155.000 56.232 C 155.000 56.333,154.737 56.712,154.417 57.072 C 154.096 57.432,153.833 57.826,153.833 57.947 C 153.833 58.068,153.758 58.167,153.667 58.167 C 153.575 58.167,153.500 58.346,153.500 58.566 C 153.500 58.785,153.387 59.008,153.250 59.060 C 153.104 59.116,153.000 59.366,153.000 59.661 C 153.000 59.939,152.925 60.167,152.833 60.167 C 152.742 60.167,152.667 60.534,152.667 60.982 C 152.667 61.553,152.592 61.826,152.417 61.894 C 152.209 61.973,152.167 62.431,152.167 64.583 C 152.167 66.735,152.209 67.193,152.417 67.273 C 152.592 67.340,152.667 67.613,152.667 68.184 C 152.667 68.633,152.742 69.000,152.833 69.000 C 152.925 69.000,153.000 69.227,153.000 69.505 C 153.000 69.801,153.104 70.050,153.250 70.106 C 153.387 70.159,153.500 70.382,153.500 70.601 C 153.500 70.821,153.561 71.000,153.636 71.000 C 153.710 71.000,153.874 71.262,154.000 71.583 C 154.126 71.904,154.327 72.167,154.448 72.167 C 154.568 72.167,154.667 72.279,154.667 72.417 C 154.667 72.554,154.742 72.667,154.833 72.667 C 154.925 72.667,155.000 72.782,155.000 72.922 C 155.000 73.062,155.112 73.220,155.250 73.273 C 155.387 73.326,155.500 73.439,155.500 73.524 C 155.500 73.796,156.729 74.928,157.292 75.176 C 157.590 75.307,157.835 75.490,157.838 75.582 C 157.840 75.675,158.309 75.965,158.880 76.227 C 159.450 76.490,160.047 76.771,160.206 76.852 C 160.365 76.933,160.721 77.000,160.998 77.000 C 161.274 77.000,161.500 77.075,161.500 77.167 C 161.500 77.261,161.990 77.336,162.625 77.339 C 163.349 77.342,163.865 77.431,164.074 77.589 C 164.491 77.904,165.842 77.904,166.260 77.589 C 166.473 77.427,166.994 77.342,167.792 77.339 C 168.483 77.336,169.000 77.262,169.000 77.167 C 169.000 77.075,169.262 77.000,169.583 77.000 C 169.904 77.000,170.167 76.925,170.167 76.833 C 170.167 76.742,170.319 76.667,170.505 76.667 C 170.691 76.667,170.887 76.554,170.940 76.417 C 170.992 76.279,171.215 76.167,171.434 76.167 C 171.654 76.167,171.833 76.092,171.833 76.000 C 171.833 75.908,171.948 75.833,172.089 75.833 C 172.229 75.833,172.387 75.721,172.440 75.583 C 172.492 75.446,172.624 75.333,172.731 75.333 C 172.838 75.333,173.035 75.183,173.167 75.000 C 173.299 74.817,173.503 74.667,173.620 74.667 C 173.737 74.667,173.833 74.586,173.833 74.488 C 173.833 74.257,174.257 73.833,174.488 73.833 C 174.586 73.833,174.667 73.752,174.667 73.653 C 174.667 73.553,174.929 73.217,175.250 72.906 C 175.571 72.594,175.833 72.225,175.833 72.086 C 175.833 71.947,175.908 71.833,176.000 71.833 C 176.092 71.833,176.167 71.721,176.167 71.583 C 176.167 71.446,176.225 71.333,176.295 71.333 C 176.366 71.333,176.562 71.052,176.731 70.708 C 176.899 70.365,177.104 69.953,177.185 69.794 C 177.267 69.635,177.333 69.279,177.333 69.002 C 177.333 68.667,177.416 68.500,177.583 68.500 C 177.778 68.500,177.833 68.279,177.833 67.510 C 177.833 66.965,177.908 66.473,178.000 66.417 C 178.093 66.359,178.167 65.585,178.167 64.667 C 178.167 63.748,178.093 62.974,178.000 62.917 C 177.908 62.860,177.833 62.366,177.833 61.818 C 177.833 61.087,177.767 60.797,177.583 60.727 C 177.429 60.668,177.333 60.414,177.333 60.066 C 177.333 59.754,177.258 59.500,177.167 59.500 C 177.075 59.500,177.000 59.313,177.000 59.083 C 177.000 58.854,176.925 58.667,176.833 58.667 C 176.742 58.667,176.667 58.514,176.667 58.328 C 176.667 58.142,176.567 57.951,176.445 57.904 C 176.323 57.858,176.122 57.560,175.997 57.243 C 175.873 56.926,175.673 56.667,175.552 56.667 C 175.432 56.667,175.333 56.586,175.333 56.488 C 175.333 56.223,173.814 54.667,173.556 54.667 C 173.433 54.667,173.333 54.586,173.333 54.488 C 173.333 54.257,172.909 53.833,172.679 53.833 C 172.580 53.833,172.500 53.758,172.500 53.667 C 172.500 53.575,172.350 53.500,172.167 53.500 C 171.981 53.500,171.833 53.389,171.833 53.250 C 171.833 53.094,171.676 53.000,171.417 53.000 C 171.188 53.000,171.000 52.925,171.000 52.833 C 171.000 52.742,170.813 52.667,170.583 52.667 C 170.324 52.667,170.167 52.572,170.167 52.417 C 170.167 52.242,169.991 52.167,169.583 52.167 C 169.262 52.167,169.000 52.092,169.000 52.000 C 169.000 51.907,168.556 51.833,168.000 51.833 C 167.444 51.833,167.000 51.759,167.000 51.667 C 167.000 51.565,166.253 51.500,165.093 51.500 C 164.002 51.500,163.142 51.571,163.083 51.667 M206.333 51.667 C 206.333 51.758,205.925 51.833,205.427 51.833 C 204.928 51.833,204.473 51.908,204.417 52.000 C 204.360 52.092,204.140 52.167,203.927 52.167 C 203.715 52.167,203.447 52.279,203.333 52.417 C 203.219 52.554,202.948 52.667,202.730 52.667 C 202.512 52.667,202.333 52.742,202.333 52.833 C 202.333 52.925,202.221 53.000,202.083 53.000 C 201.946 53.000,201.833 53.112,201.833 53.250 C 201.833 53.399,201.680 53.500,201.453 53.500 C 201.245 53.500,200.965 53.650,200.833 53.833 C 200.701 54.017,200.494 54.167,200.373 54.167 C 200.105 54.167,198.167 56.130,198.167 56.401 C 198.167 56.507,198.017 56.701,197.833 56.833 C 197.650 56.965,197.500 57.245,197.500 57.453 C 197.500 57.662,197.400 57.833,197.278 57.833 C 197.063 57.833,196.896 58.110,196.369 59.333 C 196.231 59.654,196.054 60.047,195.975 60.206 C 195.897 60.365,195.833 60.792,195.833 61.155 C 195.833 61.517,195.758 61.860,195.667 61.917 C 195.568 61.978,195.500 63.030,195.500 64.510 C 195.500 66.059,195.563 67.000,195.667 67.000 C 195.758 67.000,195.833 67.371,195.833 67.823 C 195.833 68.276,195.908 68.693,196.000 68.750 C 196.092 68.807,196.167 69.038,196.167 69.265 C 196.167 69.492,196.279 69.720,196.417 69.773 C 196.554 69.826,196.667 69.996,196.667 70.151 C 196.667 70.588,197.060 71.331,197.292 71.332 C 197.406 71.333,197.500 71.521,197.500 71.750 C 197.500 71.979,197.575 72.167,197.667 72.167 C 197.758 72.167,197.833 72.247,197.833 72.345 C 197.833 72.576,198.257 73.000,198.488 73.000 C 198.586 73.000,198.667 73.095,198.667 73.210 C 198.667 73.525,200.146 75.000,200.462 75.000 C 200.531 75.000,200.728 75.188,200.900 75.417 C 201.073 75.646,201.353 75.833,201.523 75.833 C 201.694 75.833,201.833 75.908,201.833 76.000 C 201.833 76.092,202.021 76.167,202.250 76.167 C 202.509 76.167,202.667 76.261,202.667 76.417 C 202.667 76.572,202.824 76.667,203.083 76.667 C 203.313 76.667,203.500 76.742,203.500 76.833 C 203.500 76.925,203.762 77.000,204.083 77.000 C 204.404 77.000,204.667 77.075,204.667 77.167 C 204.667 77.262,205.160 77.333,205.813 77.333 C 206.628 77.333,207.019 77.405,207.167 77.583 C 207.298 77.742,207.666 77.833,208.175 77.833 C 208.665 77.833,209.073 77.736,209.226 77.583 C 209.401 77.408,209.829 77.333,210.655 77.333 C 211.329 77.333,211.833 77.262,211.833 77.167 C 211.833 77.075,212.096 77.000,212.417 77.000 C 212.737 77.000,213.000 76.925,213.000 76.833 C 213.000 76.742,213.152 76.667,213.339 76.667 C 213.525 76.667,213.720 76.554,213.773 76.417 C 213.826 76.279,214.048 76.167,214.268 76.167 C 214.487 76.167,214.667 76.092,214.667 76.000 C 214.667 75.908,214.817 75.833,215.000 75.833 C 215.185 75.833,215.333 75.722,215.333 75.583 C 215.333 75.446,215.446 75.333,215.583 75.333 C 215.772 75.333,215.833 75.537,215.833 76.167 L 215.833 77.000 218.583 77.000 L 221.333 77.000 221.333 64.579 L 221.333 52.158 218.625 52.204 L 215.917 52.250 215.866 53.037 C 215.814 53.842,215.404 53.918,214.950 53.208 C 214.877 53.094,214.670 53.000,214.492 53.000 C 214.313 53.000,214.167 52.925,214.167 52.833 C 214.167 52.742,214.011 52.667,213.821 52.667 C 213.632 52.667,213.364 52.554,213.226 52.417 C 213.089 52.279,212.798 52.167,212.581 52.167 C 212.364 52.167,212.140 52.092,212.083 52.000 C 212.027 51.908,211.572 51.833,211.073 51.833 C 210.575 51.833,210.167 51.758,210.167 51.667 C 210.167 51.565,209.417 51.500,208.250 51.500 C 207.083 51.500,206.333 51.565,206.333 51.667 M258.333 51.667 C 258.333 51.759,257.889 51.833,257.333 51.833 C 256.778 51.833,256.333 51.907,256.333 52.000 C 256.333 52.092,256.160 52.167,255.949 52.167 C 255.737 52.167,255.418 52.277,255.240 52.411 C 255.062 52.546,254.785 52.658,254.625 52.661 C 254.465 52.664,254.333 52.742,254.333 52.833 C 254.333 52.925,254.181 53.000,253.995 53.000 C 253.809 53.000,253.613 53.112,253.560 53.250 C 253.508 53.387,253.360 53.500,253.232 53.500 C 253.104 53.500,253.000 53.566,253.000 53.646 C 253.000 53.727,252.780 53.884,252.512 53.995 C 252.243 54.106,251.888 54.378,251.722 54.599 C 251.557 54.819,251.326 55.000,251.210 55.000 C 251.095 55.000,251.000 55.085,251.000 55.189 C 251.000 55.293,250.863 55.499,250.696 55.647 C 250.530 55.795,250.251 56.160,250.077 56.458 C 249.904 56.756,249.703 57.000,249.631 57.000 C 249.559 57.000,249.500 57.112,249.500 57.250 C 249.500 57.387,249.430 57.500,249.346 57.500 C 249.168 57.500,248.667 58.441,248.667 58.776 C 248.667 58.899,248.595 59.000,248.508 59.000 C 248.420 59.000,248.299 59.263,248.239 59.585 C 248.178 59.907,248.062 60.211,247.981 60.262 C 247.900 60.312,247.833 60.686,247.833 61.093 C 247.833 61.500,247.758 61.833,247.667 61.833 C 247.562 61.833,247.500 62.861,247.500 64.583 C 247.500 66.306,247.562 67.333,247.667 67.333 C 247.758 67.333,247.833 67.708,247.833 68.167 C 247.833 68.625,247.908 69.000,248.000 69.000 C 248.092 69.000,248.167 69.182,248.167 69.405 C 248.167 69.627,248.279 69.922,248.417 70.060 C 248.554 70.197,248.667 70.431,248.667 70.578 C 248.667 70.830,248.771 70.996,249.292 71.577 C 249.406 71.705,249.500 71.890,249.500 71.988 C 249.500 72.086,249.575 72.167,249.667 72.167 C 249.758 72.167,249.833 72.245,249.833 72.340 C 249.833 72.504,249.964 72.692,250.458 73.244 C 250.573 73.372,250.667 73.524,250.667 73.583 C 250.667 73.744,251.121 74.167,251.293 74.167 C 251.376 74.167,251.538 74.343,251.653 74.558 C 251.768 74.773,252.118 75.050,252.431 75.172 C 252.744 75.295,253.001 75.475,253.001 75.573 C 253.003 75.743,253.746 76.167,254.045 76.167 C 254.125 76.167,254.303 76.279,254.440 76.417 C 254.578 76.554,254.873 76.667,255.095 76.667 C 255.318 76.667,255.500 76.742,255.500 76.833 C 255.500 76.925,255.762 77.000,256.083 77.000 C 256.404 77.000,256.667 77.075,256.667 77.167 C 256.667 77.261,257.156 77.336,257.792 77.339 C 258.516 77.342,259.032 77.431,259.240 77.589 C 259.658 77.904,261.009 77.904,261.426 77.589 C 261.640 77.427,262.161 77.342,262.958 77.339 C 263.649 77.336,264.167 77.262,264.167 77.167 C 264.167 77.075,264.429 77.000,264.750 77.000 C 265.071 77.000,265.333 76.925,265.333 76.833 C 265.333 76.742,265.521 76.667,265.750 76.667 C 266.009 76.667,266.167 76.572,266.167 76.417 C 266.167 76.261,266.324 76.167,266.583 76.167 C 266.813 76.167,267.000 76.092,267.000 76.000 C 267.000 75.908,267.109 75.833,267.242 75.833 C 267.376 75.833,267.672 75.646,267.902 75.417 C 268.131 75.188,268.364 75.000,268.421 75.000 C 268.557 75.000,269.000 74.553,269.000 74.417 C 269.000 74.244,269.461 73.833,269.655 73.833 C 269.753 73.833,269.833 73.753,269.833 73.655 C 269.833 73.454,270.246 73.000,270.428 73.000 C 270.624 73.000,270.989 72.437,270.995 72.125 C 270.998 71.965,271.075 71.833,271.167 71.833 C 271.258 71.833,271.333 71.721,271.333 71.583 C 271.333 71.446,271.446 71.333,271.583 71.333 C 271.721 71.333,271.833 71.220,271.833 71.081 C 271.833 70.827,271.890 70.689,272.393 69.724 C 272.543 69.435,272.667 69.041,272.667 68.849 C 272.667 68.657,272.742 68.500,272.833 68.500 C 272.926 68.500,273.000 68.059,273.000 67.510 C 273.000 66.965,273.075 66.473,273.167 66.417 C 273.260 66.359,273.333 65.585,273.333 64.667 C 273.333 63.748,273.260 62.974,273.167 62.917 C 273.075 62.860,273.000 62.331,273.000 61.740 C 273.000 61.136,272.927 60.667,272.833 60.667 C 272.742 60.667,272.667 60.485,272.667 60.262 C 272.667 60.039,272.554 59.745,272.417 59.607 C 272.279 59.470,272.167 59.202,272.167 59.012 C 272.167 58.822,272.092 58.667,272.000 58.667 C 271.908 58.667,271.833 58.479,271.833 58.250 C 271.833 57.991,271.739 57.833,271.583 57.833 C 271.444 57.833,271.333 57.685,271.333 57.500 C 271.333 57.317,271.258 57.167,271.167 57.167 C 271.075 57.167,271.000 57.080,271.000 56.975 C 271.000 56.624,267.717 53.500,267.348 53.500 C 267.150 53.500,267.000 53.393,267.000 53.250 C 267.000 53.094,266.843 53.000,266.583 53.000 C 266.354 53.000,266.167 52.925,266.167 52.833 C 266.167 52.742,265.979 52.667,265.750 52.667 C 265.491 52.667,265.333 52.572,265.333 52.417 C 265.333 52.242,265.157 52.167,264.750 52.167 C 264.429 52.167,264.167 52.092,264.167 52.000 C 264.167 51.907,263.722 51.833,263.167 51.833 C 262.611 51.833,262.167 51.759,262.167 51.667 C 262.167 51.565,261.417 51.500,260.250 51.500 C 259.083 51.500,258.333 51.565,258.333 51.667 M177.833 54.582 L 177.833 57.000 180.833 57.000 L 183.833 57.000 183.833 67.000 L 183.833 77.000 186.583 77.000 L 189.333 77.000 189.333 67.000 L 189.333 57.000 192.338 57.000 L 195.342 57.000 195.296 54.625 L 195.250 52.250 186.542 52.207 L 177.833 52.164 177.833 54.582 M223.833 64.583 L 223.833 77.000 226.417 77.000 L 229.000 77.000 229.000 71.583 L 229.000 66.167 234.250 66.167 L 239.500 66.167 239.500 71.583 L 239.500 77.000 242.250 77.000 L 245.000 77.000 245.000 64.579 L 245.000 52.158 242.292 52.204 L 239.583 52.250 239.539 56.625 L 239.494 61.000 234.247 61.000 L 229.000 61.000 229.000 56.583 L 229.000 52.167 226.417 52.167 L 223.833 52.167 223.833 64.583 M286.667 64.583 L 286.667 77.000 292.157 77.000 C 295.637 77.000,297.685 76.939,297.750 76.833 C 297.807 76.742,298.106 76.667,298.415 76.667 C 298.723 76.667,299.089 76.554,299.226 76.417 C 299.364 76.279,299.632 76.167,299.821 76.167 C 300.011 76.167,300.167 76.092,300.167 76.000 C 300.167 75.908,300.306 75.833,300.477 75.833 C 300.647 75.833,300.927 75.646,301.100 75.417 C 301.272 75.188,301.475 75.000,301.551 75.000 C 301.750 75.000,302.167 74.557,302.167 74.345 C 302.167 74.247,302.260 74.166,302.375 74.165 C 302.611 74.164,303.000 73.419,303.000 72.967 C 303.000 72.802,303.075 72.667,303.167 72.667 C 303.258 72.667,303.333 72.300,303.333 71.851 C 303.333 71.280,303.408 71.007,303.583 70.940 C 303.776 70.866,303.833 70.544,303.833 69.526 C 303.833 68.557,303.767 68.152,303.583 68.000 C 303.413 67.859,303.333 67.480,303.333 66.813 C 303.333 66.271,303.259 65.833,303.167 65.833 C 303.075 65.833,303.000 65.646,303.000 65.417 C 303.000 65.188,302.942 65.000,302.871 65.000 C 302.800 65.000,302.601 64.737,302.428 64.417 C 302.256 64.096,302.023 63.833,301.911 63.833 C 301.552 63.833,301.287 63.387,301.579 63.275 C 301.730 63.217,301.833 62.971,301.833 62.672 C 301.833 62.394,301.908 62.167,302.000 62.167 C 302.104 62.167,302.167 61.139,302.167 59.417 C 302.167 57.694,302.104 56.667,302.000 56.667 C 301.908 56.667,301.833 56.479,301.833 56.250 C 301.833 55.991,301.739 55.833,301.583 55.833 C 301.443 55.833,301.333 55.684,301.333 55.492 C 301.333 55.145,299.826 53.500,299.508 53.500 C 299.412 53.500,299.333 53.387,299.333 53.250 C 299.333 53.112,299.188 53.000,299.010 53.000 C 298.832 53.000,298.640 52.925,298.583 52.833 C 298.527 52.742,298.222 52.667,297.907 52.667 C 297.508 52.667,297.333 52.590,297.333 52.417 C 297.333 52.200,296.630 52.167,292.000 52.167 L 286.667 52.167 286.667 64.583 M38.750 57.167 C 38.807 57.258,39.074 57.333,39.343 57.333 C 39.668 57.333,39.833 57.418,39.833 57.583 C 39.833 57.722,39.981 57.833,40.164 57.833 C 40.600 57.833,43.000 60.234,43.000 60.669 C 43.000 60.852,43.112 61.000,43.250 61.000 C 43.406 61.000,43.500 61.157,43.500 61.417 C 43.500 61.646,43.575 61.833,43.667 61.833 C 43.758 61.833,43.833 62.129,43.833 62.490 C 43.833 62.851,43.908 63.193,44.000 63.250 C 44.092 63.307,44.167 63.986,44.167 64.760 C 44.167 65.587,44.098 66.167,44.000 66.167 C 43.908 66.167,43.833 66.467,43.833 66.833 C 43.833 67.200,43.758 67.500,43.667 67.500 C 43.575 67.500,43.500 67.653,43.500 67.840 C 43.500 68.158,43.407 68.317,42.875 68.911 C 42.760 69.038,42.667 69.205,42.667 69.281 C 42.667 69.358,42.479 69.622,42.250 69.869 C 42.021 70.117,41.833 70.397,41.833 70.493 C 41.833 70.588,41.702 70.669,41.542 70.672 C 41.181 70.679,40.667 71.054,40.667 71.310 C 40.667 71.415,40.479 71.500,40.250 71.500 C 40.021 71.500,39.833 71.575,39.833 71.667 C 39.833 71.758,39.646 71.833,39.417 71.833 C 39.188 71.833,39.000 71.908,39.000 72.000 C 39.000 72.092,38.662 72.167,38.250 72.167 C 37.694 72.167,37.500 72.231,37.500 72.417 C 37.500 72.753,36.040 72.749,35.593 72.411 C 35.415 72.277,35.021 72.167,34.718 72.167 C 34.415 72.167,34.167 72.092,34.167 72.000 C 34.167 71.908,33.979 71.833,33.750 71.833 C 33.521 71.833,33.333 71.758,33.333 71.667 C 33.333 71.575,33.183 71.500,33.000 71.500 C 32.817 71.500,32.667 71.425,32.667 71.333 C 32.667 71.241,32.367 71.036,32.000 70.877 C 31.633 70.718,31.333 70.493,31.333 70.377 C 31.333 70.261,31.263 70.167,31.178 70.167 C 31.092 70.167,30.978 70.025,30.923 69.853 C 30.868 69.680,30.600 69.306,30.328 69.021 C 30.056 68.736,29.833 68.352,29.833 68.168 C 29.833 67.982,29.723 67.833,29.583 67.833 C 29.409 67.833,29.333 67.657,29.333 67.250 C 29.333 66.929,29.258 66.667,29.167 66.667 C 29.065 66.667,29.000 65.892,29.000 64.677 C 29.000 63.530,29.071 62.643,29.167 62.583 C 29.258 62.527,29.333 62.222,29.333 61.907 C 29.333 61.508,29.410 61.333,29.583 61.333 C 29.722 61.333,29.833 61.185,29.833 61.000 C 29.833 60.817,29.908 60.667,30.000 60.667 C 30.092 60.667,30.167 60.588,30.167 60.493 C 30.167 60.397,30.354 60.117,30.583 59.869 C 30.813 59.622,31.000 59.358,31.000 59.281 C 31.000 59.063,31.397 58.722,31.799 58.594 C 32.001 58.530,32.167 58.408,32.167 58.322 C 32.167 58.237,32.279 58.167,32.417 58.167 C 32.554 58.167,32.667 58.092,32.667 58.000 C 32.667 57.908,32.817 57.833,33.000 57.833 C 33.185 57.833,33.333 57.722,33.333 57.583 C 33.333 57.428,33.491 57.333,33.750 57.333 C 33.979 57.333,34.167 57.258,34.167 57.167 C 34.167 57.064,35.024 57.000,36.407 57.000 C 37.720 57.000,38.690 57.069,38.750 57.167 M84.333 57.167 C 84.333 57.258,84.540 57.335,84.792 57.336 C 85.060 57.338,85.412 57.510,85.642 57.753 C 85.858 57.980,86.177 58.167,86.351 58.167 C 86.525 58.167,86.667 58.247,86.667 58.345 C 86.667 58.539,87.077 59.000,87.250 59.000 C 87.386 59.000,87.833 59.443,87.833 59.578 C 87.833 59.676,88.006 59.906,88.458 60.411 C 88.573 60.538,88.667 60.723,88.667 60.821 C 88.667 60.920,88.742 61.000,88.833 61.000 C 88.925 61.000,89.000 61.188,89.000 61.417 C 89.000 61.676,89.094 61.833,89.250 61.833 C 89.435 61.833,89.500 62.028,89.500 62.583 C 89.500 62.996,89.575 63.333,89.667 63.333 C 89.763 63.333,89.833 63.861,89.833 64.583 C 89.833 65.306,89.763 65.833,89.667 65.833 C 89.575 65.833,89.500 66.124,89.500 66.480 C 89.500 66.851,89.394 67.214,89.250 67.333 C 89.112 67.447,89.000 67.682,89.000 67.854 C 89.000 68.026,88.934 68.167,88.853 68.167 C 88.772 68.167,88.661 68.298,88.608 68.458 C 88.396 69.088,86.684 71.000,86.331 71.000 C 86.241 71.000,86.167 71.112,86.167 71.250 C 86.167 71.389,86.019 71.500,85.833 71.500 C 85.650 71.500,85.500 71.575,85.500 71.667 C 85.500 71.758,85.313 71.833,85.083 71.833 C 84.854 71.833,84.667 71.908,84.667 72.000 C 84.667 72.092,84.327 72.167,83.911 72.167 C 83.394 72.167,83.126 72.245,83.060 72.417 C 82.995 72.587,82.728 72.667,82.220 72.667 C 81.781 72.667,81.374 72.564,81.226 72.417 C 81.089 72.279,80.723 72.167,80.415 72.167 C 80.106 72.167,79.807 72.092,79.750 72.000 C 79.693 71.908,79.426 71.833,79.157 71.833 C 78.887 71.833,78.667 71.758,78.667 71.667 C 78.667 71.575,78.554 71.500,78.417 71.500 C 78.279 71.500,78.167 71.430,78.167 71.345 C 78.167 71.259,78.001 71.137,77.799 71.073 C 77.370 70.936,77.000 70.599,77.000 70.345 C 77.000 70.247,76.944 70.167,76.875 70.166 C 76.615 70.166,75.833 69.366,75.833 69.100 C 75.833 68.948,75.721 68.780,75.583 68.727 C 75.446 68.674,75.333 68.493,75.333 68.325 C 75.333 68.157,75.258 67.973,75.167 67.917 C 75.075 67.860,75.000 67.631,75.000 67.407 C 75.000 67.183,74.925 67.000,74.833 67.000 C 74.730 67.000,74.667 66.142,74.667 64.760 C 74.667 63.446,74.736 62.477,74.833 62.417 C 74.925 62.360,75.000 62.093,75.000 61.823 C 75.000 61.554,75.075 61.333,75.167 61.333 C 75.258 61.333,75.333 61.225,75.333 61.092 C 75.333 60.959,75.521 60.648,75.750 60.401 C 75.979 60.154,76.167 59.812,76.167 59.642 C 76.167 59.472,76.245 59.333,76.341 59.333 C 76.437 59.333,76.696 59.165,76.916 58.958 C 77.585 58.333,77.811 58.167,77.993 58.167 C 78.089 58.167,78.167 58.100,78.167 58.018 C 78.167 57.936,78.354 57.822,78.583 57.765 C 78.813 57.707,79.000 57.587,79.000 57.497 C 79.000 57.407,79.188 57.333,79.417 57.333 C 79.646 57.333,79.833 57.258,79.833 57.167 C 79.833 57.064,80.694 57.000,82.083 57.000 C 83.472 57.000,84.333 57.064,84.333 57.167 M112.333 57.167 C 112.333 57.258,112.596 57.333,112.917 57.333 C 113.324 57.333,113.500 57.409,113.500 57.583 C 113.500 57.722,113.648 57.833,113.833 57.833 C 114.017 57.833,114.167 57.908,114.167 58.000 C 114.167 58.092,114.266 58.167,114.389 58.167 C 114.511 58.167,114.711 58.354,114.833 58.583 C 114.956 58.813,115.124 59.000,115.207 59.000 C 115.379 59.000,115.833 59.423,115.833 59.583 C 115.833 59.756,116.294 60.167,116.488 60.167 C 116.586 60.167,116.667 60.354,116.667 60.583 C 116.667 60.813,116.742 61.000,116.833 61.000 C 116.925 61.000,117.000 61.152,117.000 61.339 C 117.000 61.525,117.112 61.720,117.250 61.773 C 117.412 61.835,117.500 62.094,117.500 62.508 C 117.500 62.859,117.575 63.193,117.667 63.250 C 117.758 63.307,117.833 63.986,117.833 64.760 C 117.833 65.587,117.765 66.167,117.667 66.167 C 117.575 66.167,117.500 66.459,117.500 66.816 C 117.500 67.238,117.413 67.498,117.250 67.560 C 117.112 67.613,117.000 67.772,117.000 67.914 C 117.000 68.226,116.654 68.871,116.397 69.038 C 116.294 69.104,116.116 69.386,116.002 69.663 C 115.887 69.940,115.727 70.167,115.646 70.167 C 115.566 70.167,115.500 70.279,115.500 70.417 C 115.500 70.554,115.361 70.667,115.191 70.667 C 115.021 70.667,114.680 70.854,114.432 71.083 C 114.185 71.313,113.874 71.500,113.741 71.500 C 113.609 71.500,113.500 71.575,113.500 71.667 C 113.500 71.758,113.313 71.833,113.083 71.833 C 112.854 71.833,112.667 71.908,112.667 72.000 C 112.667 72.092,112.327 72.167,111.911 72.167 C 111.394 72.167,111.126 72.245,111.060 72.417 C 110.995 72.587,110.728 72.667,110.220 72.667 C 109.781 72.667,109.374 72.564,109.226 72.417 C 109.089 72.279,108.756 72.167,108.486 72.167 C 108.216 72.167,107.828 72.080,107.623 71.974 C 106.841 71.570,106.664 71.500,106.419 71.500 C 106.280 71.500,106.167 71.401,106.167 71.281 C 106.167 71.161,105.904 70.959,105.583 70.833 C 105.263 70.707,105.000 70.540,105.000 70.462 C 105.000 70.383,104.813 70.117,104.583 69.869 C 104.354 69.622,104.167 69.358,104.167 69.281 C 104.167 69.083,103.723 68.667,103.512 68.667 C 103.414 68.667,103.333 68.479,103.333 68.250 C 103.333 68.021,103.258 67.833,103.167 67.833 C 103.075 67.833,103.000 67.571,103.000 67.250 C 103.000 66.929,102.925 66.667,102.833 66.667 C 102.731 66.667,102.667 65.861,102.667 64.583 C 102.667 63.306,102.731 62.500,102.833 62.500 C 102.925 62.500,103.000 62.237,103.000 61.917 C 103.000 61.596,103.075 61.333,103.167 61.333 C 103.258 61.333,103.333 61.183,103.333 61.000 C 103.333 60.815,103.444 60.667,103.583 60.667 C 103.721 60.667,103.833 60.554,103.833 60.417 C 103.833 60.279,103.908 60.167,104.000 60.167 C 104.092 60.167,104.167 60.089,104.167 59.993 C 104.167 59.897,104.243 59.729,104.336 59.618 C 104.430 59.507,104.636 59.261,104.795 59.071 C 104.953 58.882,105.327 58.584,105.625 58.411 C 105.923 58.237,106.167 58.036,106.167 57.964 C 106.167 57.892,106.319 57.833,106.505 57.833 C 106.691 57.833,106.887 57.721,106.940 57.583 C 106.992 57.446,107.215 57.333,107.434 57.333 C 107.654 57.333,107.833 57.258,107.833 57.167 C 107.833 57.064,108.694 57.000,110.083 57.000 C 111.472 57.000,112.333 57.064,112.333 57.167 M139.833 57.167 C 139.833 57.258,140.013 57.333,140.232 57.333 C 140.452 57.333,140.674 57.446,140.727 57.583 C 140.780 57.721,140.941 57.833,141.086 57.833 C 141.230 57.833,141.536 58.021,141.765 58.250 C 141.994 58.479,142.245 58.667,142.321 58.667 C 142.543 58.667,143.500 59.707,143.500 59.948 C 143.500 60.068,143.566 60.167,143.648 60.167 C 143.729 60.167,143.920 60.429,144.072 60.750 C 144.224 61.071,144.420 61.333,144.508 61.333 C 144.595 61.333,144.667 61.521,144.667 61.750 C 144.667 61.979,144.742 62.167,144.833 62.167 C 144.926 62.167,145.000 62.607,145.000 63.155 C 145.000 63.811,145.084 64.227,145.250 64.393 C 145.387 64.530,145.500 64.715,145.500 64.804 C 145.500 64.892,145.387 65.008,145.250 65.060 C 145.070 65.129,145.000 65.411,145.000 66.068 C 145.000 66.570,144.925 67.027,144.833 67.083 C 144.742 67.140,144.667 67.407,144.667 67.677 C 144.667 67.946,144.590 68.167,144.497 68.167 C 144.404 68.167,144.198 68.448,144.039 68.792 C 143.742 69.433,143.439 69.833,143.250 69.833 C 143.077 69.833,142.667 70.294,142.667 70.488 C 142.667 70.586,142.582 70.667,142.477 70.667 C 142.373 70.667,142.114 70.854,141.902 71.083 C 141.690 71.313,141.400 71.500,141.258 71.500 C 141.116 71.500,141.000 71.575,141.000 71.667 C 141.000 71.758,140.779 71.833,140.510 71.833 C 140.240 71.833,139.973 71.908,139.917 72.000 C 139.856 72.098,138.887 72.167,137.573 72.167 C 136.191 72.167,135.333 72.103,135.333 72.000 C 135.333 71.908,135.188 71.833,135.010 71.833 C 134.832 71.833,134.640 71.758,134.583 71.667 C 134.527 71.575,134.335 71.500,134.157 71.500 C 133.979 71.500,133.833 71.387,133.833 71.250 C 133.833 71.112,133.754 71.000,133.658 71.000 C 133.561 71.000,133.242 70.775,132.949 70.501 C 132.656 70.226,132.360 70.001,132.292 70.001 C 132.223 70.000,132.167 69.887,132.167 69.750 C 132.167 69.612,132.092 69.500,132.000 69.500 C 131.908 69.500,131.833 69.387,131.833 69.250 C 131.833 69.112,131.721 69.000,131.583 69.000 C 131.444 69.000,131.333 68.852,131.333 68.667 C 131.333 68.483,131.258 68.333,131.167 68.333 C 131.075 68.333,131.000 68.146,131.000 67.917 C 131.000 67.688,130.925 67.500,130.833 67.500 C 130.742 67.500,130.667 67.280,130.667 67.012 C 130.667 66.743,130.554 66.411,130.417 66.274 C 130.236 66.094,130.167 65.654,130.167 64.699 C 130.167 63.725,130.233 63.319,130.417 63.167 C 130.554 63.053,130.667 62.706,130.667 62.396 C 130.667 62.087,130.742 61.833,130.833 61.833 C 130.925 61.833,131.000 61.646,131.000 61.417 C 131.000 61.188,131.075 61.000,131.167 61.000 C 131.258 61.000,131.333 60.922,131.333 60.826 C 131.333 60.663,131.464 60.474,131.958 59.923 C 132.073 59.795,132.167 59.610,132.167 59.512 C 132.167 59.414,132.245 59.333,132.341 59.333 C 132.567 59.333,133.333 58.567,133.333 58.341 C 133.333 58.245,133.472 58.167,133.642 58.167 C 133.812 58.167,134.154 57.979,134.401 57.750 C 134.669 57.501,135.049 57.333,135.342 57.333 C 135.612 57.333,135.833 57.258,135.833 57.167 C 135.833 57.065,136.611 57.000,137.833 57.000 C 139.056 57.000,139.833 57.065,139.833 57.167 M167.083 57.167 C 167.140 57.258,167.407 57.333,167.677 57.333 C 167.946 57.333,168.167 57.409,168.167 57.500 C 168.167 57.592,168.467 57.798,168.833 57.956 C 169.200 58.115,169.500 58.313,169.500 58.395 C 169.500 58.565,170.352 59.333,170.542 59.333 C 170.610 59.333,170.667 59.414,170.667 59.512 C 170.667 59.743,171.091 60.167,171.321 60.167 C 171.420 60.167,171.500 60.354,171.500 60.583 C 171.500 60.813,171.575 61.000,171.667 61.000 C 171.758 61.000,171.833 61.146,171.833 61.323 C 171.833 61.501,171.908 61.693,172.000 61.750 C 172.092 61.807,172.167 62.076,172.167 62.348 C 172.167 62.635,172.272 62.884,172.417 62.940 C 172.770 63.075,172.765 65.939,172.411 66.407 C 172.277 66.585,172.167 66.867,172.167 67.034 C 172.167 67.201,172.097 67.468,172.011 67.627 C 171.925 67.786,171.757 68.160,171.637 68.458 C 171.517 68.756,171.343 69.000,171.250 69.000 C 171.157 69.000,170.974 69.242,170.844 69.537 C 170.553 70.193,169.700 71.000,169.296 71.000 C 169.133 71.000,169.000 71.112,169.000 71.250 C 169.000 71.389,168.852 71.500,168.667 71.500 C 168.483 71.500,168.333 71.575,168.333 71.667 C 168.333 71.758,168.146 71.833,167.917 71.833 C 167.688 71.833,167.500 71.908,167.500 72.000 C 167.500 72.103,166.639 72.167,165.250 72.167 C 163.861 72.167,163.000 72.103,163.000 72.000 C 163.000 71.908,162.737 71.833,162.417 71.833 C 162.096 71.833,161.833 71.758,161.833 71.667 C 161.833 71.575,161.729 71.500,161.601 71.500 C 161.473 71.500,161.326 71.387,161.273 71.250 C 161.220 71.112,161.062 71.000,160.922 71.000 C 160.782 71.000,160.667 70.925,160.667 70.833 C 160.667 70.742,160.554 70.667,160.417 70.667 C 160.279 70.667,160.167 70.586,160.167 70.488 C 160.167 70.294,159.756 69.833,159.583 69.833 C 159.351 69.833,159.000 69.339,159.000 69.012 C 159.000 68.822,158.933 68.667,158.851 68.667 C 158.770 68.667,158.656 68.479,158.598 68.250 C 158.541 68.021,158.420 67.833,158.330 67.833 C 158.240 67.833,158.167 67.646,158.167 67.417 C 158.167 67.188,158.092 67.000,158.000 67.000 C 157.897 67.000,157.833 66.139,157.833 64.750 C 157.833 63.361,157.897 62.500,158.000 62.500 C 158.092 62.500,158.167 62.246,158.167 61.934 C 158.167 61.586,158.262 61.332,158.417 61.273 C 158.554 61.220,158.667 61.062,158.667 60.922 C 158.667 60.782,158.742 60.667,158.833 60.667 C 158.925 60.667,159.000 60.554,159.000 60.417 C 159.000 60.279,159.075 60.167,159.167 60.167 C 159.258 60.167,159.333 60.054,159.333 59.917 C 159.333 59.779,159.403 59.667,159.489 59.667 C 159.574 59.667,159.687 59.533,159.739 59.369 C 159.790 59.206,160.077 58.930,160.375 58.756 C 160.673 58.583,161.038 58.304,161.186 58.137 C 161.334 57.970,161.581 57.833,161.733 57.833 C 161.886 57.833,162.054 57.721,162.106 57.583 C 162.159 57.446,162.382 57.333,162.601 57.333 C 162.821 57.333,163.000 57.258,163.000 57.167 C 163.000 57.065,163.774 57.000,164.990 57.000 C 166.137 57.000,167.024 57.071,167.083 57.167 M210.750 57.167 C 210.807 57.258,211.074 57.333,211.343 57.333 C 211.668 57.333,211.833 57.418,211.833 57.583 C 211.833 57.722,211.981 57.833,212.164 57.833 C 212.353 57.833,213.030 58.369,213.747 59.086 C 214.465 59.803,215.000 60.480,215.000 60.669 C 215.000 60.852,215.112 61.000,215.250 61.000 C 215.406 61.000,215.500 61.157,215.500 61.417 C 215.500 61.646,215.575 61.833,215.667 61.833 C 215.758 61.833,215.833 62.129,215.833 62.490 C 215.833 62.851,215.908 63.193,216.000 63.250 C 216.092 63.307,216.167 63.986,216.167 64.760 C 216.167 65.587,216.098 66.167,216.000 66.167 C 215.908 66.167,215.833 66.467,215.833 66.833 C 215.833 67.200,215.758 67.500,215.667 67.500 C 215.575 67.500,215.500 67.653,215.500 67.840 C 215.500 68.158,215.407 68.317,214.875 68.911 C 214.760 69.038,214.667 69.205,214.667 69.281 C 214.667 69.358,214.479 69.622,214.250 69.869 C 214.021 70.117,213.833 70.397,213.833 70.493 C 213.833 70.588,213.702 70.669,213.542 70.672 C 213.181 70.679,212.667 71.054,212.667 71.310 C 212.667 71.415,212.479 71.500,212.250 71.500 C 212.021 71.500,211.833 71.575,211.833 71.667 C 211.833 71.758,211.646 71.833,211.417 71.833 C 211.188 71.833,211.000 71.908,211.000 72.000 C 211.000 72.092,210.662 72.167,210.250 72.167 C 209.694 72.167,209.500 72.231,209.500 72.417 C 209.500 72.753,208.040 72.749,207.593 72.411 C 207.415 72.277,207.021 72.167,206.718 72.167 C 206.415 72.167,206.167 72.092,206.167 72.000 C 206.167 71.908,205.979 71.833,205.750 71.833 C 205.521 71.833,205.333 71.758,205.333 71.667 C 205.333 71.575,205.183 71.500,205.000 71.500 C 204.817 71.500,204.667 71.425,204.667 71.333 C 204.667 71.241,204.367 71.036,204.000 70.877 C 203.633 70.718,203.333 70.493,203.333 70.377 C 203.333 70.261,203.263 70.167,203.178 70.167 C 203.092 70.167,202.978 70.025,202.923 69.853 C 202.868 69.680,202.600 69.306,202.328 69.021 C 202.056 68.736,201.833 68.352,201.833 68.168 C 201.833 67.982,201.723 67.833,201.583 67.833 C 201.409 67.833,201.333 67.657,201.333 67.250 C 201.333 66.929,201.258 66.667,201.167 66.667 C 201.065 66.667,201.000 65.892,201.000 64.677 C 201.000 63.530,201.071 62.643,201.167 62.583 C 201.258 62.527,201.333 62.222,201.333 61.907 C 201.333 61.508,201.410 61.333,201.583 61.333 C 201.722 61.333,201.833 61.185,201.833 61.000 C 201.833 60.817,201.908 60.667,202.000 60.667 C 202.092 60.667,202.167 60.588,202.167 60.493 C 202.167 60.397,202.354 60.117,202.583 59.869 C 202.813 59.622,203.000 59.358,203.000 59.281 C 203.000 59.063,203.397 58.722,203.799 58.594 C 204.001 58.530,204.167 58.408,204.167 58.322 C 204.167 58.237,204.279 58.167,204.417 58.167 C 204.554 58.167,204.667 58.092,204.667 58.000 C 204.667 57.908,204.817 57.833,205.000 57.833 C 205.185 57.833,205.333 57.722,205.333 57.583 C 205.333 57.428,205.491 57.333,205.750 57.333 C 205.979 57.333,206.167 57.258,206.167 57.167 C 206.167 57.064,207.024 57.000,208.407 57.000 C 209.720 57.000,210.690 57.069,210.750 57.167 M262.333 57.167 C 262.333 57.258,262.596 57.333,262.917 57.333 C 263.287 57.333,263.500 57.413,263.500 57.552 C 263.500 57.673,263.762 57.874,264.083 58.000 C 264.404 58.126,264.667 58.295,264.667 58.376 C 264.667 58.546,265.091 59.000,265.250 59.000 C 265.389 59.000,265.833 59.444,265.833 59.583 C 265.833 59.756,266.294 60.167,266.488 60.167 C 266.586 60.167,266.667 60.354,266.667 60.583 C 266.667 60.813,266.742 61.000,266.833 61.000 C 266.925 61.000,267.000 61.152,267.000 61.339 C 267.000 61.525,267.112 61.720,267.250 61.773 C 267.404 61.832,267.500 62.086,267.500 62.434 C 267.500 62.746,267.575 63.000,267.667 63.000 C 267.766 63.000,267.833 63.636,267.833 64.573 C 267.833 65.443,267.759 66.193,267.667 66.250 C 267.575 66.307,267.500 66.603,267.500 66.909 C 267.500 67.223,267.402 67.502,267.274 67.551 C 267.149 67.599,267.004 67.853,266.952 68.116 C 266.899 68.378,266.670 68.795,266.441 69.041 C 266.213 69.288,265.977 69.642,265.918 69.828 C 265.859 70.014,265.741 70.167,265.655 70.167 C 265.570 70.167,265.500 70.261,265.500 70.377 C 265.500 70.493,265.200 70.718,264.833 70.877 C 264.467 71.036,264.167 71.241,264.167 71.333 C 264.167 71.425,264.017 71.500,263.833 71.500 C 263.650 71.500,263.500 71.575,263.500 71.667 C 263.500 71.758,263.313 71.833,263.083 71.833 C 262.854 71.833,262.667 71.908,262.667 72.000 C 262.667 72.103,261.806 72.167,260.417 72.167 C 259.028 72.167,258.167 72.103,258.167 72.000 C 258.167 71.908,257.904 71.833,257.583 71.833 C 257.262 71.833,257.000 71.758,257.000 71.667 C 257.000 71.575,256.896 71.500,256.768 71.500 C 256.640 71.500,256.492 71.387,256.440 71.250 C 256.387 71.112,256.229 71.000,256.089 71.000 C 255.948 71.000,255.833 70.925,255.833 70.833 C 255.833 70.742,255.721 70.667,255.583 70.667 C 255.446 70.667,255.333 70.588,255.333 70.492 C 255.333 70.266,254.567 69.500,254.341 69.500 C 254.245 69.500,254.167 69.313,254.167 69.083 C 254.167 68.854,254.092 68.667,254.000 68.667 C 253.908 68.667,253.833 68.514,253.833 68.328 C 253.833 68.142,253.721 67.946,253.583 67.894 C 253.446 67.841,253.333 67.618,253.333 67.399 C 253.333 67.179,253.258 67.000,253.167 67.000 C 253.064 67.000,253.000 66.139,253.000 64.750 C 253.000 63.361,253.064 62.500,253.167 62.500 C 253.258 62.500,253.333 62.237,253.333 61.917 C 253.333 61.509,253.409 61.333,253.583 61.333 C 253.722 61.333,253.833 61.185,253.833 61.000 C 253.833 60.817,253.908 60.667,254.000 60.667 C 254.092 60.667,254.167 60.588,254.167 60.493 C 254.167 60.397,254.354 60.117,254.583 59.869 C 254.813 59.622,255.000 59.337,255.000 59.236 C 255.000 59.135,255.262 58.911,255.583 58.738 C 255.904 58.566,256.167 58.366,256.167 58.295 C 256.167 58.225,256.279 58.167,256.417 58.167 C 256.554 58.167,256.667 58.092,256.667 58.000 C 256.667 57.908,256.817 57.833,257.000 57.833 C 257.185 57.833,257.333 57.722,257.333 57.583 C 257.333 57.428,257.491 57.333,257.750 57.333 C 257.979 57.333,258.167 57.258,258.167 57.167 C 258.167 57.064,258.972 57.000,260.250 57.000 C 261.528 57.000,262.333 57.064,262.333 57.167 M295.000 57.167 C 295.000 57.258,295.188 57.333,295.417 57.333 C 295.646 57.333,295.833 57.414,295.833 57.512 C 295.833 57.743,296.257 58.167,296.488 58.167 C 296.599 58.167,296.667 58.639,296.667 59.417 C 296.667 60.194,296.599 60.667,296.488 60.667 C 296.257 60.667,295.833 61.091,295.833 61.321 C 295.833 61.438,295.144 61.500,293.833 61.500 L 291.833 61.500 291.833 59.250 L 291.833 57.000 293.417 57.000 C 294.361 57.000,295.000 57.067,295.000 57.167 M295.083 66.833 C 295.140 66.925,295.463 67.002,295.802 67.005 C 296.437 67.011,297.000 67.311,297.000 67.643 C 297.000 67.748,297.112 67.833,297.250 67.833 C 297.389 67.833,297.500 67.981,297.500 68.167 C 297.500 68.350,297.575 68.500,297.667 68.500 C 297.761 68.500,297.833 68.972,297.833 69.583 C 297.833 70.194,297.761 70.667,297.667 70.667 C 297.575 70.667,297.500 70.752,297.500 70.856 C 297.500 71.163,296.614 71.833,296.208 71.833 C 296.002 71.833,295.833 71.908,295.833 72.000 C 295.833 72.102,295.056 72.167,293.833 72.167 L 291.833 72.167 291.833 69.417 L 291.833 66.667 293.407 66.667 C 294.276 66.667,295.026 66.741,295.083 66.833 " stroke="none" fill="#1c345c" fill-rule="evenodd"></path></g></svg>