<svg xmlns="http://www.w3.org/2000/svg" width="148.69" height="39.733" viewBox="0 0 148.69 39.733">
    <g id="prefix__svgg" transform="translate(-.667 -10.667)">
        <path id="prefix__path0" d="M348.937 73.562c0 .034-.1.062-.218.062s-.217.028-.217.062-.07.062-.155.062-.155.035-.155.093-.055.093-.124.093-.124.028-.124.062-.07.062-.155.062-.155.035-.155.093-.029.093-.065.093a.787.787 0 00-.37.37.066.066 0 01-.067.065.349.349 0 00-.244.244.067.067 0 01-.067.067.331.331 0 00-.244.279.33.33 0 01-.244.279c-.037 0-.067.1-.067.217s-.028.218-.062.218-.062.07-.062.155-.035.155-.093.155-.093.076-.093.31c0 .171-.028.311-.062.311s-.062.259-.062.652a1.555 1.555 0 00.062.652c.034 0 .062.14.062.31 0 .235.023.31.093.31s.093.066.093.218c0 .119.028.217.062.217s.062.07.062.155.035.155.093.155.093.059.093.155.028.155.062.155.062.056.062.124.028.124.062.124.062.042.062.093a.093.093 0 00.093.093c.058 0 .093.059.093.155s.028.155.062.155.062.056.062.124.041.124.093.124.093.059.093.155.028.155.062.155.062.042.062.093.028.093.062.093.062.056.062.124.041.124.093.124.093.059.093.155.028.155.062.155.062.07.062.155.03.155.067.155c.11 0 .244.168.244.306 0 .071.028.129.062.129s.062.07.062.155.03.155.066.155c.109 0 .244.168.244.306 0 .073.04.129.093.129s.093.058.093.155.028.155.062.155.062.058.062.129c0 .137.134.306.244.306.036 0 .067.07.067.155s.028.155.062.155.062.07.062.155.03.155.067.155c.11 0 .244.169.244.306 0 .071.028.129.062.129s.062.07.062.155.035.155.093.155.093.056.093.129c0 .137.134.306.244.306.037 0 .067.07.067.155s.028.155.062.155.062.07.062.155.028.155.062.155.062.056.062.124.041.124.093.124a.094.094 0 01.093.093c0 .051.028.093.062.093s.062.07.062.155.035.155.093.155.093.055.093.124.028.124.062.124.062.042.062.093.028.093.062.093.062.046.062.1a.907.907 0 00.434.457.064.064 0 01.063.065 1.965 1.965 0 00.742.68c.07 0 .127.03.127.067 0 .11.169.244.306.244.073 0 .129.04.129.093s.066.093.217.093c.12 0 .218.028.218.062s.14.062.31.062.31.028.31.062a4.519 4.519 0 001.49 0c0-.034.152-.062.338-.062a.737.737 0 00.376-.062.211.211 0 01.161-.062.176.176 0 00.158-.093.172.172 0 01.154-.093c.064 0 .117-.028.117-.062s.07-.062.155-.062.155-.035.155-.093a.093.093 0 01.093-.093c.051 0 .093-.028.093-.062s.056-.062.124-.062.124-.028.124-.062.042-.062.093-.062.093-.03.093-.067a.349.349 0 01.244-.244.074.074 0 00.067-.079.286.286 0 01.124-.169.326.326 0 00.124-.231c0-.085.038-.142.093-.142s.093-.059.093-.155.028-.155.062-.155.062-.053.062-.117a.172.172 0 01.093-.153.18.18 0 00.093-.162c0-.069.028-.126.062-.126s.062-.14.062-.31.028-.31.062-.31a5.3 5.3 0 000-1.614c-.034 0-.062-.14-.062-.31s-.028-.31-.062-.31-.062-.056-.062-.124-.041-.124-.093-.124-.093-.058-.093-.155-.028-.155-.062-.155-.062-.07-.062-.155-.035-.155-.093-.155-.093-.058-.093-.155-.023-.15-.057-.15-.062-.058-.062-.129c0-.137-.134-.306-.244-.306-.036 0-.066-.07-.066-.155s-.028-.155-.062-.155-.062-.07-.062-.155-.035-.155-.093-.155-.093-.055-.093-.124-.028-.124-.062-.124-.062-.042-.062-.093-.028-.093-.062-.093-.062-.07-.062-.155-.035-.155-.093-.155-.093-.055-.093-.124-.028-.124-.062-.124-.062-.07-.062-.155-.035-.155-.093-.155-.093-.057-.093-.142a.325.325 0 00-.124-.231.326.326 0 01-.124-.231c0-.085-.038-.142-.093-.142a.093.093 0 01-.093-.093c0-.051-.028-.093-.062-.093s-.062-.056-.062-.124-.041-.124-.093-.124-.093-.058-.093-.155-.028-.155-.062-.155-.063-.049-.064-.109c0-.134-.142-.326-.238-.326-.039 0-.071-.07-.071-.155s-.028-.155-.062-.155-.062-.07-.062-.155-.03-.155-.066-.155c-.11 0-.244-.168-.244-.306 0-.071-.028-.129-.062-.129s-.062-.07-.062-.155-.035-.155-.093-.155-.093-.055-.093-.129c0-.137-.134-.306-.244-.306-.036 0-.067-.07-.067-.155s-.028-.155-.062-.155-.062-.07-.062-.155-.028-.155-.062-.155-.062-.052-.062-.115a.376.376 0 00-.155-.232.389.389 0 01-.155-.257c0-.077-.03-.14-.066-.14a.331.331 0 01-.244-.279.331.331 0 00-.244-.279.067.067 0 01-.066-.067.349.349 0 00-.244-.244.066.066 0 01-.067-.065c0-.113-.3-.37-.432-.37-.072 0-.127-.041-.127-.093a.093.093 0 00-.093-.093c-.051 0-.093-.028-.093-.062s-.056-.062-.124-.062-.124-.041-.124-.093-.059-.093-.155-.093-.155-.028-.155-.062-.1-.062-.217-.062-.217-.028-.217-.062a11.811 11.811 0 00-2.421 0" transform="translate(-216.591 -39.428)" style="fill-rule:evenodd;fill:#f34c54"/>
        <path id="prefix__path1" d="M132.533 10.729a1.979 1.979 0 01-.745.062c-.621 0-.745.016-.745.093s-.093.093-.466.093c-.269 0-.466.026-.466.062s-.166.062-.373.062-.372.028-.372.062-.1.062-.218.062c-.152 0-.217.028-.217.093s-.072.093-.279.093c-.154 0-.279.028-.279.062s-.095.062-.211.062-.224.036-.246.093a.18.18 0 01-.162.093c-.07 0-.126.028-.126.062s-.112.062-.248.062-.248.028-.248.062-.056.062-.124.062-.124.041-.124.093-.058.093-.155.093-.155.028-.155.062-.07.062-.155.062-.155.035-.155.093-.066.093-.217.093c-.12 0-.217.028-.217.062s-.042.062-.093.062-.093.028-.093.062-.056.062-.124.062-.124.041-.124.093-.058.093-.155.093-.155.028-.155.062-.042.062-.093.062a.093.093 0 00-.093.093c0 .052-.055.093-.124.093s-.124.028-.124.062-.042.062-.093.062-.093.028-.093.062-.07.062-.155.062-.155.03-.155.066c0 .11-.169.244-.306.244-.071 0-.129.03-.129.067a.349.349 0 01-.244.244.064.064 0 00-.066.062c0 .034-.056.062-.124.062s-.124.041-.124.093-.03.093-.067.093a.349.349 0 00-.244.244.066.066 0 01-.065.067.787.787 0 00-.37.37.066.066 0 01-.067.065.349.349 0 00-.244.244.066.066 0 01-.065.067.787.787 0 00-.37.37.066.066 0 01-.067.065.349.349 0 00-.244.244.067.067 0 01-.067.067.331.331 0 00-.244.279.33.33 0 01-.244.279.067.067 0 00-.067.067.349.349 0 01-.244.244c-.037 0-.066.064-.066.142a.324.324 0 01-.124.231.326.326 0 00-.124.231c0 .078-.03.142-.067.142-.11 0-.244.169-.244.306 0 .073-.041.129-.093.129a.093.093 0 00-.093.093c0 .051-.028.093-.062.093s-.062.056-.062.124-.028.124-.062.124-.062.07-.062.155-.035.155-.093.155-.093.058-.093.155-.028.155-.062.155-.062.07-.062.155-.035.155-.093.155-.093.058-.093.155-.028.155-.062.155-.062.056-.062.124-.028.124-.062.124-.062.07-.062.155-.035.155-.093.155-.093.066-.093.217c0 .12-.028.218-.062.218s-.062.112-.062.248c0 .18-.026.248-.093.248s-.093.066-.093.217c0 .12-.028.218-.062.218s-.062.126-.062.279-.028.279-.062.279-.062.14-.062.31c0 .235-.023.31-.093.31s-.093.083-.093.373c0 .207-.028.373-.062.373s-.062.185-.062.429c0 .288-.026.438-.078.455s-.083.29-.1 1a4.087 4.087 0 01-.078.973 2.232 2.232 0 00-.058.714 1.837 1.837 0 00.062.714c.041 0 .062 3.219.062 9.532 0 8.416.011 9.536.093 9.567.063.025.093.123.093.308 0 .15.028.273.062.273s.062.07.062.155.035.155.093.155.093.058.093.155.028.155.062.155.062.058.062.129c0 .121.131.306.218.306.064 0 .217.172.217.244a.067.067 0 00.067.066c.072 0 .244.153.244.218s.172.217.244.217a.065.065 0 01.067.062c0 .034.07.062.155.062s.155.035.155.093.055.093.124.093.124.028.124.062.07.062.155.062.155.035.155.093.058.093.155.093.155.028.155.062.166.062.372.062.373.028.373.062.238.062.59.062.59-.025.59-.062.165-.062.373-.062.372-.028.372-.062.1-.062.217-.062c.152 0 .218-.028.218-.093s.058-.093.155-.093.155-.028.155-.062.07-.062.155-.062.155-.03.155-.066a.331.331 0 01.279-.244.33.33 0 00.279-.244.067.067 0 01.067-.066.349.349 0 00.244-.244.067.067 0 01.066-.067c.11 0 .244-.168.244-.306 0-.071.028-.129.062-.129s.062-.07.062-.155.03-.155.067-.155c.126 0 .244-.178.244-.368 0-.128.031-.191.093-.191s.093-.066.093-.217c0-.12.028-.217.062-.217s.062-3.622.062-10.741.021-10.74.062-10.74.062-.165.062-.373c0-.29.021-.373.093-.373s.093-.076.093-.31c0-.171.028-.311.062-.311s.062-.1.062-.217c0-.152.028-.217.093-.217s.093-.059.093-.155.028-.155.062-.155.062-.056.062-.124.028-.124.062-.124.062-.07.062-.155.035-.155.093-.155.093-.057.093-.14a.39.39 0 01.155-.257.375.375 0 00.155-.232c0-.063.028-.115.062-.115s.062-.042.062-.093.028-.093.062-.093.062-.056.062-.124.041-.124.093-.124.093-.03.093-.067a.349.349 0 01.244-.244.066.066 0 00.067-.065.787.787 0 01.37-.37c.036 0 .065-.042.065-.093s.056-.093.129-.093c.121 0 .306-.131.306-.218 0-.064.172-.217.244-.217a.064.064 0 00.066-.062c0-.034.057-.062.126-.062a.18.18 0 00.162-.093.172.172 0 01.153-.093c.064 0 .117-.028.117-.062s.07-.062.155-.062.155-.035.155-.093.058-.093.155-.093.155-.028.155-.062.07-.062.155-.062.155-.028.155-.062.1-.062.218-.062c.152 0 .217-.028.217-.093s.076-.093.31-.093c.171 0 .311-.028.311-.062s.207-.062.5-.062c.4 0 .5-.018.5-.093 0-.136 1.025-.136 1.078 0 .028.072.148.093.534.093.291 0 .5.026.5.062s.14.062.31.062c.235 0 .311.023.311.093s.066.093.217.093c.12 0 .217.028.217.062s.07.062.155.062.155.028.155.062.07.062.155.062.155.035.155.093.055.093.124.093.124.028.124.062.07.062.155.062.155.035.155.093.057.093.142.093a.325.325 0 01.231.124.286.286 0 00.169.124.074.074 0 01.08.067c0 .11.168.244.306.244.071 0 .129.03.129.066 0 .072.153.244.218.244s.217.172.217.244a.067.067 0 00.067.066.349.349 0 01.244.244.065.065 0 00.062.067c.034 0 .062.056.062.124s.041.124.093.124.093.03.093.067a.349.349 0 00.244.244c.037 0 .067.07.067.155s.028.155.062.155.062.058.062.129c0 .137.134.306.244.306.036 0 .067.07.067.155s.028.155.062.155.062.1.062.217c0 .152.028.218.093.218s.093.058.093.155.028.155.062.155.062.124.062.276a.545.545 0 00.062.314.546.546 0 01.062.314c0 .2.024.276.093.276s.093.165.093 1.111c0 .93-.015 1.117-.093 1.147s-.093.131-.093.379c0 .189-.028.343-.062.343s-.062.112-.062.248-.028.248-.062.248-.062.1-.062.217c0 .152-.028.218-.093.218s-.093.058-.093.155-.028.155-.062.155-.062.1-.062.217-.03.218-.067.218c-.1 0-.244.166-.244.291a.374.374 0 01-.155.23.376.376 0 00-.155.232c0 .064-.028.115-.062.115s-.062.042-.062.093-.03.093-.067.093a.331.331 0 00-.244.279.33.33 0 01-.244.279.067.067 0 00-.067.067c0 .072-.153.244-.217.244a.445.445 0 00-.218.218c0 .086-.184.217-.306.217-.073 0-.129.04-.129.093a.094.094 0 01-.093.093c-.051 0-.093.028-.093.062s-.056.062-.124.062-.124.028-.124.062-.042.062-.093.062a.093.093 0 00-.093.093c0 .058-.058.093-.155.093s-.155.028-.155.062-.056.062-.124.062-.124.041-.124.093-.059.093-.155.093-.155.028-.155.062-.1.062-.218.062-.217.028-.217.062-.07.062-.155.062-.155.035-.155.093-.076.093-.311.093h-.31v.217c0 .207.01.217.217.217.12 0 .218.028.218.062s.07.062.155.062.155.035.155.093a.094.094 0 00.093.093c.051 0 .093.028.093.062s.056.062.124.062.124.028.124.062.042.062.093.062.093.03.093.067a.349.349 0 00.244.244.066.066 0 01.067.065.787.787 0 00.37.37c.036 0 .065.042.065.093s.028.093.062.093.062.052.062.115a.375.375 0 00.155.232.375.375 0 01.155.231c0 .125.139.291.244.291.036 0 .067.07.067.155s.028.155.062.155.062.07.062.155.035.155.093.155.093.057.093.142a.325.325 0 00.124.231.325.325 0 01.124.231c0 .085.038.142.093.142s.093.056.093.129c0 .137.134.306.244.306.037 0 .067.07.067.155s.028.155.062.155.062.07.062.155.028.155.062.155.062.056.062.124.035.124.077.125c.08 0 .233.273.233.415a.088.088 0 00.093.081c.052 0 .093.055.093.124s.028.124.062.124.062.06.062.133a.477.477 0 00.155.276.472.472 0 01.155.24c0 .053.028.1.062.1s.062.042.062.093.058.093.155.093.155-.035.155-.093.059-.093.155-.093.155-.028.155-.062.056-.062.124-.062.124-.028.124-.062.07-.062.155-.062.155-.035.155-.093.056-.093.129-.093c.137 0 .306-.134.306-.244 0-.037.07-.067.155-.067s.155-.028.155-.062.042-.062.093-.062.093-.028.093-.062.056-.062.124-.062.124-.041.124-.093a.093.093 0 01.093-.093c.051 0 .093-.028.093-.062s.07-.062.155-.062.155-.029.155-.065a.787.787 0 01.37-.37c.036 0 .065-.042.065-.093s.056-.093.129-.093c.121 0 .306-.131.306-.218a.443.443 0 01.217-.217c.064 0 .218-.172.218-.244a.066.066 0 01.066-.066c.072 0 .244-.153.244-.218a.443.443 0 01.217-.217c.064 0 .218-.172.218-.244a.066.066 0 01.066-.066c.072 0 .244-.153.244-.218s.172-.217.244-.217c.036 0 .066-.058.066-.129 0-.137.134-.306.244-.306a.074.074 0 00.067-.079.286.286 0 01.124-.169.326.326 0 00.124-.231c0-.078.03-.142.067-.142.11 0 .244-.169.244-.306 0-.071.03-.129.066-.129.11 0 .244-.168.244-.306 0-.071.028-.129.062-.129s.062-.042.062-.093a.094.094 0 01.093-.093c.052 0 .093-.055.093-.124s.028-.124.062-.124.062-.07.062-.155.035-.155.093-.155.093-.058.093-.155.028-.155.062-.155.062-.07.062-.155.028-.155.062-.155.062-.07.062-.155.035-.155.093-.155.093-.055.093-.124.028-.124.062-.124.062-.112.062-.248c0-.179.026-.248.093-.248.052 0 .093-.055.093-.124s.028-.124.062-.124.062-.112.062-.248.028-.248.062-.248.062-.1.062-.217c0-.152.028-.217.093-.217s.093-.066.093-.218c0-.12.028-.217.062-.217s.062-.14.062-.31c0-.235.023-.311.093-.311s.093-.083.093-.373c0-.207.028-.373.062-.373s.062-.186.062-.434.026-.435.062-.435a3.134 3.134 0 00.062-.956c0-.792.016-.961.093-.991.054-.021.093-.114.093-.224 0-.126-.031-.188-.093-.188-.079 0-.093-.148-.093-.963a3.175 3.175 0 00-.062-.962c-.036 0-.062-.2-.062-.466s-.026-.466-.062-.466-.062-.126-.062-.279c0-.207-.024-.279-.093-.279s-.093-.076-.093-.31c0-.171-.028-.311-.062-.311s-.062-.127-.062-.281c0-.193-.029-.292-.093-.317a.172.172 0 01-.093-.153c0-.065-.028-.118-.062-.118s-.062-.112-.062-.248-.028-.248-.062-.248-.062-.1-.062-.218c0-.152-.028-.217-.093-.217s-.093-.058-.093-.155-.028-.155-.062-.155-.062-.056-.062-.124-.041-.124-.093-.124-.093-.058-.093-.155-.028-.155-.062-.155-.062-.07-.062-.155-.028-.155-.062-.155-.062-.07-.062-.155-.035-.155-.093-.155-.093-.058-.093-.155-.028-.155-.062-.155-.062-.056-.062-.124-.041-.124-.093-.124a.094.094 0 01-.093-.093c0-.051-.028-.093-.062-.093s-.062-.058-.062-.129c0-.137-.134-.306-.244-.306-.036 0-.066-.058-.066-.129 0-.137-.134-.306-.244-.306-.036 0-.067-.042-.067-.093s-.028-.093-.062-.093-.062-.056-.062-.124-.028-.124-.062-.124-.062-.042-.062-.093-.03-.093-.067-.093c-.11 0-.244-.168-.244-.306 0-.071-.03-.129-.066-.129-.072 0-.244-.153-.244-.217s-.172-.217-.244-.217a.067.067 0 01-.066-.067c0-.072-.153-.244-.218-.244a.443.443 0 01-.217-.217c0-.064-.172-.217-.244-.217a.067.067 0 01-.066-.067c0-.072-.153-.244-.218-.244a.443.443 0 01-.217-.217c0-.061-.17-.217-.237-.217-.033 0-.076-.042-.1-.093a.166.166 0 00-.148-.093.3.3 0 01-.2-.124.326.326 0 00-.231-.124c-.078 0-.142-.03-.142-.067a.349.349 0 00-.244-.244c-.036 0-.067-.042-.067-.093s-.055-.093-.124-.093-.124-.028-.124-.062-.042-.062-.093-.062-.093-.028-.093-.062-.07-.062-.155-.062-.155-.035-.155-.093-.055-.093-.124-.093-.124-.028-.124-.062-.042-.062-.093-.062a.093.093 0 01-.093-.093c0-.058-.059-.093-.155-.093s-.155-.028-.155-.062-.056-.062-.124-.062-.124-.028-.124-.062-.07-.062-.155-.062-.155-.035-.155-.093-.058-.093-.155-.093-.155-.028-.155-.062-.07-.062-.155-.062-.155-.035-.155-.093-.059-.093-.155-.093-.155-.028-.155-.062-.1-.062-.217-.062-.217-.028-.217-.062-.1-.062-.218-.062c-.152 0-.217-.028-.217-.093s-.066-.093-.217-.093c-.12 0-.218-.028-.218-.062s-.1-.062-.217-.062c-.152 0-.217-.028-.217-.093s-.076-.093-.311-.093c-.171 0-.31-.028-.31-.062s-.14-.062-.31-.062-.311-.028-.311-.062-.207-.062-.5-.062c-.4 0-.5-.018-.5-.093s-.117-.093-.683-.093a1.692 1.692 0 01-.683-.062 5.3 5.3 0 00-1.614 0M54.059 22.8c-.064.077-.294.093-1.343.093a5.288 5.288 0 00-1.265.062c0 .036-.207.062-.5.062s-.5.026-.5.062-.109.062-.242.062c-.157 0-.254.032-.277.093s-.114.093-.224.093-.188.028-.188.062-.066.062-.148.062a.328.328 0 00-.225.093.258.258 0 01-.163.093c-.047 0-.085.028-.085.062s-.056.062-.124.062-.124.028-.124.062-.042.062-.093.062-.093.029-.093.064-.049.082-.109.105c-.163.061-.45.366-.45.478a.1.1 0 01-.093.1.093.093 0 00-.093.093c0 .051-.028.093-.062.093s-.062.07-.062.155-.035.155-.093.155-.093.055-.093.124-.028.124-.062.124-.062.07-.062.155-.028.155-.062.155-.062.067-.062.149a.2.2 0 01-.093.184c-.064.024-.093.124-.093.317 0 .155-.028.281-.062.281s-.063.161-.064.357a.96.96 0 01-.093.478 14.043 14.043 0 000 3.36.96.96 0 01.093.478c0 .2.03.357.064.357s.062.123.062.273c0 .185.03.284.093.308s.093.114.093.224.028.188.062.188.062.07.062.155.028.155.062.155.062.057.062.126a.18.18 0 00.093.162.147.147 0 01.093.122c0 .048.028.086.062.086s.062.045.062.1a1.554 1.554 0 00.373.463 2.026 2.026 0 01.373.427.074.074 0 00.079.065.287.287 0 01.169.124.325.325 0 00.231.124c.078 0 .142.03.142.067a.33.33 0 00.279.244.329.329 0 01.195.093.348.348 0 00.209.093.2.2 0 01.155.062.31.31 0 00.217.062.31.31 0 01.217.062 1.193 1.193 0 00.494.062c.347 0 .464.022.491.093.048.124.593.126.757 0a1.066 1.066 0 01.539-.093c.237 0 .419-.029.419-.064s.1-.062.214-.062a.385.385 0 00.252-.062.2.2 0 01.155-.062.342.342 0 00.2-.078.917.917 0 01.451-.233c.051 0 .094-.03.094-.066a.334.334 0 01.267-.244 1.639 1.639 0 00.6-.559.074.074 0 01.082-.062c.045 0 .12-.1.167-.217s.112-.217.145-.217c.086 0 .224-.2.226-.326 0-.06.03-.109.064-.109s.062-.07.062-.155.035-.155.093-.155.093-.066.093-.218c0-.12.028-.217.062-.217s.063-.091.064-.2a.637.637 0 01.093-.322 6.211 6.211 0 000-2.23.523.523 0 01-.093-.315c0-.122-.028-.222-.062-.222s-.062-.085-.062-.188-.039-.2-.093-.224a.2.2 0 01-.093-.184c0-.082-.028-.149-.062-.149s-.062-.046-.062-.1a.468.468 0 00-.155-.245.519.519 0 01-.155-.2.976.976 0 00-.218-.283 1.069 1.069 0 01-.217-.274c0-.028-.07-.088-.155-.134s-.155-.115-.155-.154-.1-.11-.218-.156-.217-.108-.217-.136-.039-.051-.086-.051a.147.147 0 01-.122-.093.153.153 0 00-.131-.093c-.053 0-.1-.028-.1-.062s-.058-.062-.129-.062a.362.362 0 01-.222-.093.389.389 0 00-.24-.093.251.251 0 01-.186-.062.725.725 0 00-.362-.063.73.73 0 01-.373-.062 2.4 2.4 0 00-.749-.062 1.812 1.812 0 00-.71.062c0 .034-.152.062-.337.062a.736.736 0 00-.376.062.258.258 0 01-.19.062c-.093 0-.152.036-.152.093s-.062.093-.186.093c-.1 0-.186.028-.186.062s-.042.062-.093.062a.093.093 0 00-.093.093c0 .058-.058.093-.155.093s-.155.025-.155.056-.042.072-.093.091-.093 0-.093-.087a.111.111 0 01.093-.12.086.086 0 00.093-.076 1.8 1.8 0 01.331-.668 1 1 0 00.263-.218.745.745 0 01.305-.217c.052 0 .094-.028.094-.062s.07-.062.155-.062.155-.035.155-.093.071-.093.267-.093a.682.682 0 00.326-.058 13.784 13.784 0 012.631-.176 4.112 4.112 0 001.356-.123c.018-.054.185-.077.548-.077h.522v-1.926h-.955c-.773 0-.969.018-1.032.093M.667 29.261v6.115h2.049v-5.215H3.8a4.788 4.788 0 001.119-.061 1.487 1.487 0 01.558-.062c.379 0 .545-.025.613-.093a.464.464 0 01.284-.093c.105 0 .191-.028.191-.062s.07-.062.155-.062.155-.035.155-.093.059-.093.155-.093.155-.028.155-.062a.064.064 0 01.064-.062 1.675 1.675 0 00.651-.638.152.152 0 01.124-.109.092.092 0 00.089-.093c0-.051.028-.093.062-.093s.062-.054.062-.12a.207.207 0 01.062-.159.307.307 0 00.062-.214c0-.1.041-.192.093-.212.078-.03.093-.213.093-1.116 0-.885-.017-1.095-.093-1.158a.33.33 0 01-.093-.225c0-.081-.028-.148-.062-.148s-.062-.07-.062-.155-.028-.155-.062-.155-.062-.041-.062-.091a.521.521 0 00-.155-.245.56.56 0 01-.155-.22.072.072 0 00-.078-.065c-.043 0-.131-.07-.195-.155a.373.373 0 00-.219-.155.292.292 0 01-.191-.124.325.325 0 00-.231-.124c-.085 0-.142-.038-.142-.093s-.066-.093-.217-.093c-.12 0-.218-.028-.218-.062s-.142-.062-.315-.062a.652.652 0 01-.408-.093 8.975 8.975 0 00-2.51-.093H.667v6.115m4.873-3.944a.258.258 0 00.19.062c.083 0 .152.03.152.066 0 .072.153.244.217.244.086 0 .217.184.217.306 0 .071.028.129.062.129a2.132 2.132 0 01-.015 1.074c-.042.092-.1.167-.124.168s-.047.056-.047.124-.041.124-.093.124a.093.093 0 00-.093.093.11.11 0 01-.12.093.208.208 0 00-.159.062.2.2 0 01-.155.062.344.344 0 00-.209.093c-.077.077-.318.093-1.37.093H2.716v-2.856h1.393a7.431 7.431 0 011.432.062m7.667.621c0 .034-.152.062-.337.062a.736.736 0 00-.376.062.245.245 0 01-.183.062.323.323 0 00-.221.093.329.329 0 01-.225.093c-.081 0-.148.028-.148.062s-.042.062-.093.062a.093.093 0 00-.093.093c0 .056-.057.093-.142.093a.326.326 0 00-.231.124.285.285 0 01-.171.124 3.238 3.238 0 00-.822.832.286.286 0 01-.124.161.326.326 0 00-.124.231c0 .078-.037.142-.083.142-.08 0-.142.1-.339.559-.051.12-.117.266-.147.325a1.049 1.049 0 00-.053.354.468.468 0 01-.062.284 3.7 3.7 0 00-.062.966 2.953 2.953 0 00.062.928c.034 0 .062.138.062.307a.638.638 0 00.062.345.262.262 0 01.062.192.21.21 0 00.093.189.161.161 0 01.093.141c0 .163.146.44.233.44.042 0 .077.07.077.156s.028.155.062.155a.064.064 0 01.062.066.349.349 0 00.244.244.074.074 0 01.067.078 1.819 1.819 0 00.669.667c.026 0 .1.07.163.155a.377.377 0 00.232.155c.064 0 .115.028.115.062s.07.062.155.062.155.035.155.093.058.093.155.093.155.028.155.062.1.062.217.062.218.028.218.062.184.062.427.062c.3 0 .449.027.5.093a.534.534 0 00.375.093.63.63 0 00.392-.093c.065-.065.225-.093.532-.093.251 0 .439-.026.439-.062s.1-.062.218-.062.217-.028.217-.062.057-.062.126-.062a.18.18 0 00.162-.093.2.2 0 01.184-.093c.082 0 .149-.028.149-.062s.056-.062.124-.062.124-.041.124-.093a.094.094 0 01.093-.093c.07 0 .093.076.093.311v.31h2.06v-9.253l-1.009.017-1.009.017-.019.293c-.019.3-.172.328-.341.064a.223.223 0 00-.171-.077c-.067 0-.121-.028-.121-.062s-.058-.062-.129-.062a.364.364 0 01-.222-.093.388.388 0 00-.24-.093.251.251 0 01-.186-.062.736.736 0 00-.38-.065c-.186 0-.337-.028-.337-.062a1.829 1.829 0 00-.714-.062 1.829 1.829 0 00-.714.062m8.2 0c0 .034-.11.062-.244.062a.461.461 0 00-.283.062.262.262 0 01-.192.062.209.209 0 00-.189.093.205.205 0 01-.184.093c-.082 0-.149.028-.149.062s-.043.062-.095.062a.152.152 0 00-.131.093.148.148 0 01-.122.093c-.048 0-.087.028-.087.062s-.049.063-.108.064c-.134 0-.326.142-.326.238a.085.085 0 01-.093.071c-.16 0-.115.339.062.472.086.064.155.152.155.195a.087.087 0 00.093.079c.052 0 .093.055.093.124s.028.124.062.124a.065.065 0 01.062.067.349.349 0 00.244.244.076.076 0 01.067.083c0 .2.314.266.46.1a1.126 1.126 0 01.335-.246c.109-.048.2-.123.2-.166s.07-.078.155-.078.155-.028.155-.062.1-.062.217-.062.217-.028.217-.062.11-.062.245-.062a.466.466 0 01.283.062.266.266 0 00.194.062c.156 0 .333.126.333.236a.247.247 0 00.093.136c.194.162.123.719-.124.958a.847.847 0 00-.217.278c0 .045-.251.067-.745.067h-.745v1.925h.745a1.984 1.984 0 01.745.062c0 .034.056.062.124.062s.124.028.124.062.042.062.093.062a.094.094 0 01.093.093c0 .051.028.093.062.093s.062.053.062.118a.171.171 0 00.093.153c.063.024.093.124.093.31a.506.506 0 01-.093.351.248.248 0 00-.093.148c0 .1-.278.411-.364.411a.067.067 0 00-.07.062c0 .034-.094.062-.21.062a.431.431 0 00-.287.093.378.378 0 01-.256.093c-.117 0-.179-.032-.179-.093s-.065-.093-.213-.093a.386.386 0 01-.252-.062.206.206 0 00-.159-.062c-.066 0-.121-.028-.121-.062s-.042-.062-.093-.062a1.266 1.266 0 01-.4-.314c-.34-.347-.631-.4-.772-.154-.1.175-.2.282-.281.282a.069.069 0 00-.067.07.891.891 0 01-.388.364c-.025 0-.047.042-.047.093s-.028.093-.062.093-.062.116-.062.258c0 .282.389.735.631.735.063 0 .114.03.114.067 0 .107.168.244.3.244a.176.176 0 01.158.093.18.18 0 00.162.093c.07 0 .126.028.126.062s.1.062.217.062.218.028.218.062.163.062.366.062c.268 0 .375.025.4.093a1.633 1.633 0 001.135 0c.026-.068.134-.093.4-.093.2 0 .366-.028.366-.062s.05-.062.112-.062c.168 0 .446-.145.447-.233 0-.043.058-.077.13-.077a1.218 1.218 0 00.616-.634.1.1 0 01.093-.111.093.093 0 00.093-.093c0-.051.028-.093.062-.093s.062-.056.062-.124.028-.124.061-.124.079-.112.1-.25a.623.623 0 01.094-.283 7.192 7.192 0 00-.008-1.826c-.034 0-.062-.1-.062-.218 0-.152-.028-.217-.093-.217s-.093-.058-.093-.155-.028-.155-.062-.155a.069.069 0 01-.062-.075.593.593 0 00-.16-.241.3.3 0 01.082-.51.552.552 0 00.077-.353.629.629 0 01.054-.345 1.647 1.647 0 00.062-.593c0-.329-.025-.555-.062-.555s-.062-.14-.062-.31c0-.235-.023-.311-.093-.311s-.093-.058-.093-.155-.028-.155-.062-.155-.062-.043-.062-.1a1.583 1.583 0 00-.645-.649c-.055 0-.1-.028-.1-.062s-.039-.062-.088-.062a.121.121 0 01-.111-.069A1.207 1.207 0 0023 26c-.094 0-.171-.029-.171-.063a1.829 1.829 0 00-.714-.062 1.829 1.829 0 00-.714.062m8.971 0a.643.643 0 01-.345.062c-.169 0-.307.028-.307.062s-.1.062-.218.062c-.152 0-.217.028-.217.093s-.058.093-.155.093-.155.028-.155.062-.07.062-.155.062-.155.035-.155.093-.058.093-.155.093-.155.028-.155.062a.062.062 0 01-.062.062c-.034 0-.062-.14-.062-.31v-.31h-1.924v12.361l.947-.017.947-.017.016-1.847a11.589 11.589 0 01.078-1.847.061.061 0 01.061.061c0 .034.07.078.155.1s.155.064.155.094.058.056.129.056a.362.362 0 01.222.093.346.346 0 00.209.093.2.2 0 01.155.062.311.311 0 00.217.062.311.311 0 01.218.062 1.057 1.057 0 00.462.062c.3 0 .446.027.5.093a.792.792 0 00.745 0c.055-.066.2-.093.5-.093a1.057 1.057 0 00.462-.062.223.223 0 01.169-.062c.161 0 .607-.191.607-.26 0-.028.049-.051.108-.052.134 0 .326-.142.326-.238 0-.039.061-.071.135-.071a.858.858 0 00.4-.279 1.266 1.266 0 01.331-.279.072.072 0 00.063-.078c0-.043.067-.129.15-.191a.833.833 0 00.226-.296c.041-.1.1-.182.13-.182s.054-.07.054-.155.035-.155.093-.155.093-.058.093-.155.028-.155.062-.155.062-.067.062-.149a.2.2 0 01.093-.184c.054-.02.093-.114.093-.22a.325.325 0 01.062-.223 1.776 1.776 0 00.062-.619c0-.409.023-.589.077-.609s.062-.054 0-.16a2.009 2.009 0 01-.077-.691c0-.332-.025-.559-.062-.559s-.062-.085-.062-.188-.039-.2-.093-.224-.093-.117-.093-.247-.028-.21-.062-.21a.072.072 0 01-.062-.078.589.589 0 00-.155-.246.57.57 0 01-.155-.268 1.471 1.471 0 00-.556-.588.065.065 0 01-.065-.064c0-.107-.451-.527-.667-.622-.111-.049-.2-.124-.2-.167s-.07-.078-.155-.078-.155-.028-.155-.062-.07-.062-.155-.062-.155-.035-.155-.093-.066-.093-.217-.093c-.12 0-.217-.028-.217-.062S32.35 26 32.143 26s-.373-.028-.373-.062a1.677 1.677 0 00-.679-.062 2.243 2.243 0 00-.717.062m10.244 0a.73.73 0 01-.373.062.723.723 0 00-.373.062.262.262 0 01-.192.062.209.209 0 00-.189.093.191.191 0 01-.169.095c-.155 0-.351.135-.351.238 0 .039-.07.071-.155.071s-.155.028-.155.062a.064.064 0 01-.065.062.271.271 0 00-.14.063c-.324.274-.454.371-.494.371s-.047.035-.047.078-.07.131-.155.2a.374.374 0 00-.155.205.335.335 0 01-.244.266c-.037 0-.067.07-.067.155s-.024.155-.053.155a1.81 1.81 0 00-.381.751c0 .065-.028.118-.062.118s-.062.136-.062.3a.541.541 0 01-.093.38c-.075.062-.093.252-.093.97 0 .752.015.893.093.893s.093.079.093.338a.737.737 0 00.062.376.259.259 0 01.062.19c0 .083.028.151.062.151s.062.053.062.117a.288.288 0 00.093.194.258.258 0 01.093.163c0 .047.028.085.062.085s.062.07.062.155.035.155.093.155.093.029.093.064a4.524 4.524 0 001.109 1.115c.032 0 .074.042.093.093a.18.18 0 00.162.093c.07 0 .126.028.126.062s.053.062.118.062a.172.172 0 01.153.093.181.181 0 00.162.093c.07 0 .126.028.126.062s.1.062.213.062a.386.386 0 01.252.062.982.982 0 00.443.062c.277 0 .434.029.5.093a.805.805 0 00.74 0 1.066 1.066 0 01.539-.093c.237 0 .419-.029.419-.064s.1-.062.214-.062a.385.385 0 00.252-.062.208.208 0 01.159-.062.11.11 0 00.12-.093c0-.058.059-.093.155-.093s.155-.028.155-.062.07-.062.155-.062.155-.035.155-.093a.093.093 0 01.093-.093c.07 0 .093.076.093.311v.31h2.049v-9.25h-2.047v.323c0 .251-.016.307-.075.248a.3.3 0 00-.186-.075.1.1 0 01-.112-.093c0-.052-.055-.093-.124-.093s-.124-.028-.124-.062-.066-.062-.148-.062a.33.33 0 01-.225-.093.322.322 0 00-.221-.093.245.245 0 01-.182-.062.737.737 0 00-.376-.06c-.186 0-.338-.028-.338-.062a1.809 1.809 0 00-.71-.062 2.4 2.4 0 00-.749.062m20.549 0a.728.728 0 01-.373.062.725.725 0 00-.373.062.244.244 0 01-.182.062.322.322 0 00-.221.093.33.33 0 01-.225.093c-.081 0-.148.028-.148.062s-.043.062-.095.062a.152.152 0 00-.131.093.148.148 0 01-.122.093c-.048 0-.087.026-.087.058s-.056.076-.125.1a1.212 1.212 0 00-.324.221.912.912 0 01-.247.182c-.026 0-.048.035-.048.078s-.07.131-.155.2-.155.148-.155.186a1.042 1.042 0 01-.217.313.96.96 0 00-.218.326c0 .045-.028.082-.062.082s-.062.067-.062.149a.2.2 0 01-.093.184c-.054.021-.093.114-.093.224s-.028.188-.062.188-.062.137-.062.3c0 .213-.028.314-.093.34s-.093.2-.093 1 .016.972.093 1 .093.127.093.339c0 .167.028.3.062.3s.062.085.062.188.039.2.093.224a.205.205 0 01.093.184c0 .082.023.149.051.149s.089.1.136.217.122.218.167.218a.088.088 0 01.082.093c0 .051.028.093.062.093s.062.043.062.095a.153.153 0 00.093.131c.051.02.093.062.093.093a1.848 1.848 0 00.668.615c.111.049.2.117.2.151a1.064 1.064 0 00.388.24c.212.1.435.2.494.233a.8.8 0 00.3.055c.1 0 .187.028.187.062s.183.063.419.064a1.069 1.069 0 01.54.093.986.986 0 00.814 0 1.127 1.127 0 01.571-.093c.257 0 .45-.029.45-.064s.1-.062.217-.062.218-.028.218-.062.057-.062.126-.062a.181.181 0 00.162-.093.2.2 0 01.184-.093c.082 0 .149-.028.149-.062s.043-.062.1-.062a.153.153 0 00.131-.093.14.14 0 01.108-.093.287.287 0 00.162-.124.286.286 0 01.169-.124.074.074 0 00.079-.067.349.349 0 01.244-.244.067.067 0 00.067-.067.84.84 0 01.217-.278.745.745 0 00.217-.305c0-.052.028-.094.062-.094s.062-.042.062-.093.022-.093.048-.093.1-.1.162-.233.139-.281.169-.34a.788.788 0 00.055-.3q0-.187.093-.187c.073 0 .093-.082.093-.369a.842.842 0 01.062-.407 3.447 3.447 0 000-1.3.851.851 0 01-.062-.409c0-.272-.025-.38-.093-.406s-.093-.117-.093-.246-.028-.211-.062-.211-.062-.07-.062-.155-.028-.155-.062-.155-.062-.057-.062-.126a.175.175 0 00-.083-.158.517.517 0 01-.167-.246c-.046-.118-.121-.215-.166-.215a.076.076 0 01-.082-.067 2.2 2.2 0 00-.662-.678.077.077 0 01-.083-.067.349.349 0 00-.244-.244.065.065 0 01-.067-.062c0-.034-.056-.062-.124-.062s-.124-.041-.124-.093-.058-.093-.155-.093-.155-.028-.155-.062-.07-.062-.155-.062-.155-.035-.155-.093-.066-.093-.218-.093c-.12 0-.217-.028-.217-.062S63.206 26 63 26s-.373-.028-.373-.062a1.812 1.812 0 00-.71-.062 2.4 2.4 0 00-.749.062m16.111 0c0 .034-.152.062-.337.062a.736.736 0 00-.376.062.245.245 0 01-.183.062.323.323 0 00-.221.093.329.329 0 01-.225.093c-.081 0-.148.028-.148.062s-.042.062-.093.062a.093.093 0 00-.093.093c0 .056-.057.093-.142.093a.326.326 0 00-.231.124.285.285 0 01-.171.124 3.238 3.238 0 00-.822.832.286.286 0 01-.124.161.326.326 0 00-.124.231c0 .078-.037.142-.083.142-.08 0-.142.1-.339.559-.051.12-.117.266-.147.325a1.049 1.049 0 00-.053.354.468.468 0 01-.062.284 3.7 3.7 0 00-.062.966 2.953 2.953 0 00.062.928c.034 0 .062.138.062.307a.638.638 0 00.062.345.262.262 0 01.062.192.21.21 0 00.093.189.161.161 0 01.093.141c0 .163.146.44.233.44.042 0 .077.07.077.156s.028.155.062.155a.064.064 0 01.062.066.349.349 0 00.244.244.074.074 0 01.067.078 1.819 1.819 0 00.669.667c.026 0 .1.07.163.155a.377.377 0 00.232.155c.064 0 .115.028.115.062s.07.062.155.062.155.035.155.093.058.093.155.093.155.028.155.062.1.062.217.062.218.028.218.062.184.062.427.062c.3 0 .449.027.5.093a.534.534 0 00.375.093.63.63 0 00.391-.093c.065-.065.225-.093.532-.093.251 0 .439-.026.439-.062s.1-.062.218-.062.217-.028.217-.062.057-.062.126-.062a.18.18 0 00.162-.093.2.2 0 01.184-.093c.082 0 .149-.028.149-.062s.056-.062.124-.062.124-.041.124-.093a.094.094 0 01.093-.093c.07 0 .093.076.093.311v.31h2.049v-9.252l-1.009.017-1.009.017-.019.293c-.019.3-.172.328-.341.064a.223.223 0 00-.171-.077c-.067 0-.121-.028-.121-.062s-.058-.062-.129-.062a.364.364 0 01-.222-.093.388.388 0 00-.24-.093.251.251 0 01-.186-.062.736.736 0 00-.368-.065c-.186 0-.337-.028-.337-.062a4.13 4.13 0 00-1.428 0m19.37 0c0 .034-.165.062-.373.062s-.373.028-.373.062-.064.062-.143.062a.516.516 0 00-.264.091.479.479 0 01-.229.093c-.06 0-.109.03-.109.064s-.057.062-.126.062a.18.18 0 00-.162.093.147.147 0 01-.122.093c-.048 0-.086.025-.086.054s-.082.089-.182.13a.829.829 0 00-.294.225.363.363 0 01-.191.149.075.075 0 00-.078.07.325.325 0 01-.113.171 1.52 1.52 0 00-.231.3c-.064.111-.139.2-.166.2s-.049.042-.049.093-.026.093-.057.093c-.066 0-.253.351-.253.475 0 .046-.027.083-.059.083s-.078.1-.1.218a.538.538 0 01-.1.252.578.578 0 00-.055.31c0 .152-.028.276-.062.276a3.548 3.548 0 00-.062 1.024 3.546 3.546 0 00.062 1.024c.034 0 .062.14.062.311s.028.31.062.31.062.068.062.151a.4.4 0 00.093.244.329.329 0 01.093.193c0 .094.039.156.233.372a.3.3 0 01.077.153.065.065 0 00.062.067.063.063 0 01.062.064c0 .061.049.131.233.337a.308.308 0 01.078.126c0 .06.169.218.233.218.031 0 .091.066.134.146a.634.634 0 00.29.229c.117.046.212.113.212.149 0 .063.278.221.389.221a.309.309 0 01.147.093.4.4 0 00.244.093c.083 0 .151.028.151.062s.1.062.217.062.218.028.218.062.182.063.419.064a1.066 1.066 0 01.539.093.986.986 0 00.814 0 1.129 1.129 0 01.571-.093c.257 0 .45-.029.45-.064s.1-.062.217-.062.217-.028.217-.062.07-.062.155-.062.155-.035.155-.093.058-.093.155-.093.155-.028.155-.062.041-.062.09-.062a.521.521 0 00.246-.155.708.708 0 01.193-.155.449.449 0 00.216-.217c0-.064.172-.218.244-.218a.066.066 0 00.066-.066c0-.075.154-.244.222-.244s.209-.21.211-.326c0-.06.03-.109.064-.109s.062-.042.062-.093a.094.094 0 01.093-.093.094.094 0 00.093-.094c0-.095.021-.146.209-.505a.911.911 0 00.1-.326c0-.072.028-.13.062-.13s.062-.164.062-.369a.842.842 0 01.062-.407 3.467 3.467 0 000-1.3.959.959 0 01-.062-.438c0-.225-.027-.4-.062-.4s-.062-.068-.062-.151a.4.4 0 00-.093-.244.36.36 0 01-.093-.222c0-.071-.028-.129-.062-.129s-.062-.07-.062-.155-.035-.155-.093-.155-.093-.055-.093-.124-.028-.124-.062-.124a.068.068 0 01-.062-.072 6.239 6.239 0 00-1.36-1.294c-.074 0-.13-.04-.13-.093s-.058-.093-.155-.093-.155-.028-.155-.062-.07-.062-.155-.062-.155-.035-.155-.093-.066-.093-.217-.093c-.12 0-.217-.028-.217-.062s-.16-.061-.367-.061-.373-.028-.373-.062a4.13 4.13 0 00-1.428 0m-29.986 1.087v.9H68.9v7.45h2.049v-7.45h2.238l-.017-.885-.017-.885-3.244-.016-3.244-.016v.9M83.8 30.751v4.625h1.925v-4.035h3.911v4.035h2.049v-9.253l-1.009.017-1.009.017-.016 1.63-.017 1.63h-3.912v-3.29H83.8v4.625m23.406 0v4.625h2.045a14.816 14.816 0 002.083-.062.379.379 0 01.248-.062.5.5 0 00.3-.093.362.362 0 01.222-.093c.071 0 .129-.028.129-.062s.052-.062.115-.062a.377.377 0 00.232-.155c.064-.085.14-.155.168-.155a.366.366 0 00.229-.244.073.073 0 01.077-.067c.088 0 .233-.278.233-.446 0-.061.028-.112.062-.112s.062-.137.062-.3c0-.213.028-.314.093-.339s.093-.148.093-.527c0-.361-.025-.512-.093-.568s-.093-.194-.093-.442c0-.2-.028-.365-.062-.365s-.062-.07-.062-.155-.022-.155-.048-.155-.1-.1-.165-.217-.151-.218-.193-.218c-.134 0-.232-.166-.124-.208.056-.022.095-.113.095-.225s.028-.188.062-.188a3.565 3.565 0 00.062-1.024 3.563 3.563 0 00-.062-1.024c-.034 0-.062-.07-.062-.155s-.035-.155-.093-.155-.093-.056-.093-.127a1.965 1.965 0 00-.68-.742c-.036 0-.065-.042-.065-.093a.109.109 0 00-.12-.093.207.207 0 01-.159-.062.388.388 0 00-.252-.062c-.149 0-.214-.029-.214-.093 0-.081-.262-.093-1.987-.093H107.2v4.625m-92.35-2.762a.321.321 0 00.221.062c.121 0 .183.032.183.093s.055.093.123.093a3.286 3.286 0 011.056 1.056.111.111 0 00.093.123c.058 0 .093.058.093.155s.028.155.062.155.062.11.062.245a.463.463 0 00.062.283 1.5 1.5 0 01.062.562c0 .308-.026.524-.062.524s-.062.112-.062.248-.028.248-.062.248-.062.057-.062.127c0 .118-.035.178-.233.4a.293.293 0 00-.077.138.679.679 0 01-.155.219.626.626 0 00-.155.232c0 .035-.049.066-.108.067-.134 0-.326.142-.326.238 0 .039-.07.071-.155.071s-.155.028-.155.062-.07.062-.155.062-.155.028-.155.062-.126.062-.279.062c-.207 0-.279.024-.279.093 0 .125-.544.124-.71 0a.638.638 0 00-.326-.091c-.113 0-.205-.028-.205-.062s-.07-.062-.155-.062-.155-.028-.155-.062-.056-.062-.124-.062-.124-.028-.124-.062-.112-.111-.248-.17-.248-.143-.248-.186-.026-.078-.058-.078-.075-.053-.095-.117a1.145 1.145 0 00-.222-.31.649.649 0 01-.184-.318c0-.069-.041-.125-.093-.125s-.093-.066-.093-.217c0-.12-.028-.217-.062-.217a1.961 1.961 0 01-.062-.741 2.582 2.582 0 01.062-.78.388.388 0 00.062-.252c0-.149.029-.214.093-.214s.093-.055.093-.124.028-.124.062-.124a.064.064 0 00.062-.065.624.624 0 01.155-.232.672.672 0 00.155-.219c0-.081.148-.208.3-.256.075-.024.137-.069.137-.1s.042-.058.093-.058.093-.028.093-.062.056-.062.124-.062.124-.041.124-.093.059-.093.155-.093.155-.028.155-.062a2.431 2.431 0 01.834-.062 3.107 3.107 0 01.873.062m16.98 0c0 .034.077.063.171.063a.492.492 0 01.317.155.482.482 0 00.264.154c.065 0 .118.03.118.066 0 .072.153.244.217.244a.45.45 0 01.217.215c0 .037.064.122.233.31a.3.3 0 01.078.153.065.065 0 00.062.067c.034 0 .062.07.062.155s.035.155.093.155.093.073.093.279c0 .154.028.279.062.279s.062.2.062.466-.026.466-.062.466-.062.108-.062.241a.471.471 0 01-.093.318.288.288 0 00-.093.194c0 .064-.025.117-.055.117s-.072.049-.091.108a2.771 2.771 0 01-.848.947c-.034 0-.061.042-.061.093s-.055.093-.124.093-.124.028-.124.062-.07.062-.155.062-.155.028-.155.062-.127.062-.282.062c-.193 0-.292.029-.317.093s-.124.093-.313.093a.607.607 0 01-.37-.093.5.5 0 00-.3-.093.377.377 0 01-.248-.062.319.319 0 00-.221-.062c-.1 0-.183-.028-.183-.062s-.042-.062-.093-.062-.093-.026-.093-.058-.062-.077-.137-.1c-.16-.051-.3-.177-.3-.271 0-.037-.021-.066-.047-.067a.768.768 0 01-.388-.4.159.159 0 00-.093-.139.169.169 0 01-.093-.15.2.2 0 00-.062-.152.258.258 0 01-.062-.19c0-.083-.028-.152-.062-.152a2.439 2.439 0 01-.062-.834 3.13 3.13 0 01.062-.873.319.319 0 00.062-.221c0-.1.028-.183.062-.183s.062-.04.062-.09a.576.576 0 01.155-.257.568.568 0 00.155-.283c0-.063.029-.115.065-.115a.531.531 0 00.214-.14c.249-.233.333-.295.4-.295a.061.061 0 00.065-.056c0-.031.07-.073.155-.094s.155-.066.155-.1.07-.061.155-.061.155-.028.155-.062a2.452 2.452 0 01.838-.062 2.452 2.452 0 01.838.062m10.43 0c0 .034.1.062.218.062.152 0 .217.028.217.093s.055.093.124.093.124.028.124.062.037.062.083.062.12.07.165.155.108.155.139.155c.064 0 .233.158.233.217s.172.218.244.218c.037 0 .067.07.067.155s.028.155.062.155.062.057.062.126a.18.18 0 00.093.162c.06.023.093.12.093.274a.446.446 0 00.062.276 1.508 1.508 0 01.062.562c0 .308-.025.524-.062.524s-.062.109-.062.242c0 .157-.032.254-.093.277a.154.154 0 00-.093.132.705.705 0 01-.225.419.641.641 0 00-.147.233c-.043.1-.1.188-.133.188s-.054.042-.054.093a.106.106 0 01-.115.093.568.568 0 00-.283.155.573.573 0 01-.257.155c-.049 0-.09.028-.09.062s-.07.062-.155.062-.155.028-.155.062-.127.062-.282.062c-.193 0-.292.029-.317.093s-.124.093-.313.093a.607.607 0 01-.37-.093.447.447 0 00-.276-.093.833.833 0 01-.321-.072c-.291-.15-.357-.177-.448-.177a.089.089 0 01-.094-.082c0-.045-.1-.12-.218-.167s-.217-.109-.217-.138a.669.669 0 00-.155-.221.675.675 0 01-.155-.219c0-.074-.165-.229-.244-.229-.037 0-.067-.07-.067-.155s-.028-.155-.062-.155-.062-.1-.062-.217-.028-.217-.062-.217a2.142 2.142 0 01-.062-.776 2.141 2.141 0 01.062-.776c.034 0 .062-.1.062-.217s.028-.218.062-.218.062-.056.062-.124.041-.124.093-.124a.093.093 0 00.097-.098c0-.051.028-.093.062-.093a.064.064 0 00.062-.065.27.27 0 01.063-.14l.171-.2a1.4 1.4 0 01.309-.246c.111-.065.2-.14.2-.167s.057-.049.126-.049a.18.18 0 00.162-.093.2.2 0 01.184-.093c.082 0 .149-.028.149-.062a2.452 2.452 0 01.838-.062 2.452 2.452 0 01.838.062m10.244 0c0 .034.067.062.149.062a.2.2 0 01.184.093.155.155 0 00.134.093.517.517 0 01.253.155.612.612 0 00.207.155 1.175 1.175 0 01.439.477c0 .045.025.082.055.082s.1.1.158.217.13.217.162.217.059.07.059.155.028.155.062.155.062.164.062.368a.73.73 0 00.093.461.309.309 0 01.093.153c0 .033-.042.076-.093.1-.067.026-.093.131-.093.375a.741.741 0 01-.062.378.321.321 0 00-.062.221c0 .1-.029.183-.063.183s-.111.1-.171.233c-.111.239-.224.388-.294.388s-.217.172-.217.244a.069.069 0 01-.071.067.493.493 0 00-.214.155.468.468 0 01-.24.155c-.053 0-.1.028-.1.062s-.082.062-.183.062a.317.317 0 00-.221.062 3.111 3.111 0 01-.873.062 2.433 2.433 0 01-.834-.062c0-.034-.054-.062-.12-.062a.208.208 0 01-.159-.062.206.206 0 00-.159-.062.11.11 0 01-.121-.093c0-.051-.029-.093-.065-.093a.784.784 0 01-.264-.186.931.931 0 00-.245-.186c-.026 0-.047-.042-.047-.093s-.028-.093-.062-.093-.062-.042-.062-.093a.093.093 0 00-.093-.093c-.052 0-.093-.055-.093-.124s-.028-.124-.062-.124-.062-.07-.062-.155-.028-.155-.062-.155-.062-.082-.062-.182a.448.448 0 00-.089-.283c-.067-.067-.093-.231-.093-.587s.025-.514.093-.571a.434.434 0 00.093-.287c0-.115.028-.21.062-.21s.062-.07.062-.155.028-.155.062-.155a.064.064 0 00.062-.065c0-.061.049-.131.233-.336a.3.3 0 00.078-.153.066.066 0 01.065-.067.787.787 0 00.37-.37c0-.036.052-.065.115-.065a.568.568 0 00.283-.155.568.568 0 01.351-.155c.1 0 .183-.028.183-.062a4.492 4.492 0 011.49 0m10.151 0a.321.321 0 00.221.062c.1 0 .183.028.183.062s.112.111.248.17.248.133.248.164a.98.98 0 00.388.349c.025 0 .047.03.047.067a.349.349 0 00.244.244c.037 0 .067.07.067.155s.028.155.062.155.062.054.062.12a.207.207 0 00.062.159.322.322 0 01.062.223c0 .107.039.2.093.221a2.152 2.152 0 010 1.291.471.471 0 00-.091.234.554.554 0 01-.058.221c-.032.059-.095.2-.139.31s-.11.2-.144.2-.1.09-.151.2c-.108.244-.426.545-.577.545a.1.1 0 00-.11.093c0 .052-.055.093-.124.093s-.124.028-.124.062-.07.062-.155.062-.155.028-.155.062a5.677 5.677 0 01-1.676 0c0-.034-.1-.062-.217-.062s-.218-.028-.218-.062-.039-.062-.086-.062a.147.147 0 01-.122-.093.153.153 0 00-.131-.093c-.052 0-.095-.028-.095-.062s-.042-.062-.093-.062-.093-.03-.093-.067c0-.072-.153-.244-.218-.244-.086 0-.217-.184-.217-.306 0-.071-.025-.129-.056-.129s-.073-.07-.094-.155-.066-.155-.1-.155-.061-.07-.061-.155-.028-.155-.062-.155a2.452 2.452 0 01-.062-.838 2.452 2.452 0 01.062-.838c.034 0 .062-.095.062-.211s.035-.224.093-.246a.154.154 0 00.093-.131c0-.052.028-.095.062-.095s.062-.042.062-.093.028-.093.062-.093.062-.042.062-.093.026-.093.058-.093.074-.05.093-.111a.59.59 0 01.237-.228 1.493 1.493 0 00.3-.231.336.336 0 01.2-.113.158.158 0 00.139-.093.205.205 0 01.184-.093c.082 0 .149-.028.149-.062a1.959 1.959 0 01.741-.062 2.576 2.576 0 01.78.062m16.266 0a.321.321 0 00.221.062c.121 0 .183.032.183.093s.055.093.123.093a3.253 3.253 0 011.056 1.056.111.111 0 00.093.123c.058 0 .093.058.093.155s.028.155.062.155.062.11.062.245a.463.463 0 00.062.283 1.5 1.5 0 01.062.562c0 .308-.026.524-.062.524s-.062.112-.062.248-.028.248-.062.248-.062.057-.062.127c0 .118-.035.178-.233.4a.293.293 0 00-.077.138.679.679 0 01-.155.219.626.626 0 00-.155.232c0 .035-.049.066-.108.067-.134 0-.326.142-.326.238 0 .039-.07.071-.155.071s-.155.028-.155.062-.07.062-.155.062-.155.028-.155.062-.126.062-.279.062c-.207 0-.279.024-.279.093 0 .125-.544.124-.71 0a.638.638 0 00-.326-.091c-.113 0-.205-.028-.205-.062s-.07-.062-.155-.062-.155-.028-.155-.062-.056-.062-.124-.062-.124-.028-.124-.062-.112-.111-.248-.17-.248-.143-.248-.186-.026-.078-.058-.078-.074-.053-.095-.117a1.145 1.145 0 00-.222-.31.649.649 0 01-.184-.318c0-.069-.041-.125-.093-.125s-.093-.066-.093-.217c0-.12-.028-.217-.062-.217a1.961 1.961 0 01-.062-.741 2.581 2.581 0 01.062-.78.388.388 0 00.062-.252c0-.149.029-.214.093-.214s.093-.055.093-.124.028-.124.062-.124a.064.064 0 00.062-.065.624.624 0 01.155-.232.672.672 0 00.155-.219c0-.081.148-.208.3-.256.075-.024.137-.069.137-.1s.042-.058.093-.058.093-.028.093-.062.056-.062.124-.062.124-.041.124-.093.059-.093.155-.093.155-.028.155-.062a2.431 2.431 0 01.834-.062 3.107 3.107 0 01.873.062m19.215 0c0 .034.1.062.218.062.138 0 .217.03.217.082s.1.12.217.167.218.11.218.14c0 .063.158.232.217.232a.443.443 0 01.217.217c0 .064.172.218.244.218.036 0 .067.07.067.155s.028.155.062.155.062.057.062.126a.18.18 0 00.093.162c.057.022.093.117.093.246s.028.211.062.211.062.237.062.586a1.809 1.809 0 01-.062.625.371.371 0 00-.062.245c0 .117-.036.221-.084.239a.312.312 0 00-.12.21.866.866 0 01-.19.345 1.03 1.03 0 00-.195.293c-.022.069-.066.126-.1.126s-.058.035-.058.078-.112.127-.248.186-.248.136-.248.17-.056.062-.124.062-.124.028-.124.062-.07.062-.155.062-.155.028-.155.062a5.677 5.677 0 01-1.676 0c0-.034-.1-.062-.218-.062s-.217-.028-.217-.062-.039-.062-.086-.062a.147.147 0 01-.122-.093.153.153 0 00-.131-.093c-.053 0-.1-.028-.1-.062s-.042-.062-.093-.062-.093-.029-.093-.065a.787.787 0 00-.37-.37c-.036 0-.065-.07-.065-.155s-.028-.155-.062-.155-.062-.057-.062-.126a.179.179 0 00-.093-.162.205.205 0 01-.093-.184c0-.082-.028-.149-.062-.149a2.452 2.452 0 01-.062-.838 2.452 2.452 0 01.062-.838c.034 0 .062-.1.062-.217 0-.152.028-.218.093-.218s.093-.055.093-.124.028-.124.062-.124a.064.064 0 00.062-.065.624.624 0 01.155-.232.609.609 0 00.155-.236c0-.038.1-.121.217-.186s.218-.139.218-.165.042-.048.093-.048.093-.028.093-.062.056-.062.124-.062.124-.041.124-.093.059-.093.155-.093.155-.028.155-.062a4.87 4.87 0 011.552 0m12.169 0c0 .034.07.062.155.062s.155.03.155.067a.349.349 0 00.244.244c.041 0 .067.176.067.466s-.025.466-.067.466a.349.349 0 00-.244.244c0 .044-.257.067-.745.067h-.745v-1.681h.59c.352 0 .59.025.59.062m.031 3.6a.429.429 0 00.268.064c.237 0 .446.114.446.238a.084.084 0 00.093.071c.052 0 .093.055.093.124s.028.124.062.124.062.176.062.4-.027.4-.062.4a.067.067 0 00-.062.07c0 .114-.33.364-.481.364-.077 0-.14.028-.14.062a1.977 1.977 0 01-.745.062h-.745v-2.04h.586a1.808 1.808 0 01.624.062" style="fill:#1c345c;fill-rule:evenodd"/>
    </g>
</svg>
