<svg xmlns="http://www.w3.org/2000/svg" width="21.532" height="17.495" viewBox="0 0 21.532 17.495">
    <g id="prefix__twitter">
        <g id="prefix__Group_8" data-name="Group 8">
            <path id="prefix__Path_10" d="M21.532 50.071a9.2 9.2 0 01-2.544.7 4.39 4.39 0 001.942-2.44 8.822 8.822 0 01-2.8 1.069 4.414 4.414 0 00-7.63 3.015 4.545 4.545 0 00.1 1.007A12.5 12.5 0 011.5 48.8a4.416 4.416 0 001.357 5.9 4.359 4.359 0 01-1.994-.544v.048A4.435 4.435 0 004.4 58.547a4.406 4.406 0 01-1.157.145 3.9 3.9 0 01-.836-.075 4.456 4.456 0 004.123 3.075 8.87 8.87 0 01-5.473 1.883A8.268 8.268 0 010 63.514 12.428 12.428 0 006.772 65.5a12.478 12.478 0 0012.564-12.566c0-.2-.007-.384-.016-.571a8.806 8.806 0 002.212-2.292z" data-name="Path 10" transform="translate(0 -48)" style="fill:#302f2e"/>
        </g>
    </g>
</svg>
