<svg xmlns="http://www.w3.org/2000/svg" width="33.807" height="27.468" viewBox="0 0 33.807 27.468">
    <g id="prefix__twitter">
        <g id="prefix__Group_8" data-name="Group 8">
            <path id="prefix__Path_10" d="M33.807 51.252a14.45 14.45 0 01-3.993 1.095 6.892 6.892 0 003.049-3.831 13.851 13.851 0 01-4.395 1.678 6.93 6.93 0 00-11.989 4.739 7.137 7.137 0 00.161 1.58 19.618 19.618 0 01-14.286-7.25 6.933 6.933 0 002.13 9.263 6.845 6.845 0 01-3.131-.854v.076a6.963 6.963 0 005.553 6.81 6.917 6.917 0 01-1.817.228 6.129 6.129 0 01-1.312-.118 7 7 0 006.475 4.832 13.926 13.926 0 01-8.593 2.956A12.983 12.983 0 010 72.358a19.512 19.512 0 0010.632 3.11c12.754 0 19.727-10.565 19.727-19.722 0-.306-.011-.6-.025-.9a13.827 13.827 0 003.473-3.594z" data-name="Path 10" transform="translate(0 -48)" style="fill:#dea04a"/>
        </g>
    </g>
</svg>
