<svg xmlns="http://www.w3.org/2000/svg" xmlns:xlink="http://www.w3.org/1999/xlink" width="158.734" height="160.301" viewBox="0 0 158.734 160.301">
  <defs>
    <linearGradient id="linear-gradient" x1="0.5" x2="0.5" y2="1" gradientUnits="objectBoundingBox">
      <stop offset="0" stop-color="#ecf0f8"/>
      <stop offset="1" stop-color="#c7cced"/>
    </linearGradient>
  </defs>
  <path id="Union_4" data-name="Union 4" d="M-5219.271-9194.72l-79.446-57.188a2.785,2.785,0,0,0-1.639-.529,2.785,2.785,0,0,0-1.67.552,19.376,19.376,0,0,1-10.729,3.237,19.389,19.389,0,0,1-6.087-.979,19.436,19.436,0,0,1-5.595-2.93,21.706,21.706,0,0,1-8.886-12.326,15.826,15.826,0,0,1-.5-6.837,15.752,15.752,0,0,1,2.452-6.387,15.5,15.5,0,0,1,4.927-4.693,15.254,15.254,0,0,1,6.438-2.083,21.3,21.3,0,0,1,2.391-.135,21.111,21.111,0,0,1,6.383.985,21.308,21.308,0,0,1,5.824,2.885,19.757,19.757,0,0,1,7.715,8.983,20.086,20.086,0,0,1,1.279,11.844,2.89,2.89,0,0,0,1.218,3.124l82.039,53.285a5.518,5.518,0,0,1,2.4,3.545,5.591,5.591,0,0,1-.3,3.25,5.516,5.516,0,0,1-2.057,2.514,5.409,5.409,0,0,1-2.993.9A5.394,5.394,0,0,1-5219.271-9194.72Zm-96.183-64.165a1.092,1.092,0,0,0,1.084,1.1,1.091,1.091,0,0,0,1.081-1.1,1.092,1.092,0,0,0-1.081-1.1A1.093,1.093,0,0,0-5315.453-9258.885Zm6.179-4.7a1.092,1.092,0,0,0,1.086,1.094,1.09,1.09,0,0,0,1.082-1.094,1.091,1.091,0,0,0-1.082-1.1A1.092,1.092,0,0,0-5309.274-9263.585Zm-13.9,0a1.089,1.089,0,0,0,1.081,1.094,1.088,1.088,0,0,0,1.08-1.094,1.088,1.088,0,0,0-1.08-1.1A1.089,1.089,0,0,0-5323.175-9263.585Zm6.177-4.7a1.09,1.09,0,0,0,1.085,1.095,1.089,1.089,0,0,0,1.08-1.095,1.091,1.091,0,0,0-1.08-1.1A1.092,1.092,0,0,0-5317-9268.286Zm7.724-3.136a1.093,1.093,0,0,0,1.086,1.1,1.092,1.092,0,0,0,1.082-1.1,1.09,1.09,0,0,0-1.082-1.1A1.091,1.091,0,0,0-5309.274-9271.422Zm-15.446,0a1.092,1.092,0,0,0,1.082,1.1,1.089,1.089,0,0,0,1.08-1.1,1.088,1.088,0,0,0-1.08-1.1A1.09,1.09,0,0,0-5324.721-9271.422Zm7.723-4.7a1.092,1.092,0,0,0,1.085,1.1,1.091,1.091,0,0,0,1.08-1.1,1.089,1.089,0,0,0-1.08-1.095A1.09,1.09,0,0,0-5317-9276.122Zm19.4,79.974a5.614,5.614,0,0,1-.823-4.221,5.548,5.548,0,0,1,2.412-3.539l28.473-18.52,8.045,5.789-30.422,21.912a5.519,5.519,0,0,1-3.119.969A5.587,5.587,0,0,1-5297.6-9196.148Zm48.275-38.087,35.344-22.99a2.892,2.892,0,0,0,1.219-3.116,20.178,20.178,0,0,1,1.3-11.837,19.857,19.857,0,0,1,7.7-8.991,22.607,22.607,0,0,1,6-2.924,20.666,20.666,0,0,1,6.186-.96,17.857,17.857,0,0,1,7.842,1.757,14.9,14.9,0,0,1,5.932,5.168,15.12,15.12,0,0,1,2.4,6.443,17.632,17.632,0,0,1-.507,6.969,20.716,20.716,0,0,1-3.191,6.653,22.608,22.608,0,0,1-5.646,5.5,19.45,19.45,0,0,1-5.595,2.926,19.357,19.357,0,0,1-6.083.979,19.39,19.39,0,0,1-10.736-3.241,2.8,2.8,0,0,0-1.671-.552,2.791,2.791,0,0,0-1.638.529l-31.347,22.57Zm55.926-24.649a1.093,1.093,0,0,0,1.085,1.1,1.09,1.09,0,0,0,1.08-1.1,1.091,1.091,0,0,0-1.08-1.1A1.094,1.094,0,0,0-5193.4-9258.885Zm6.18-4.7a1.091,1.091,0,0,0,1.084,1.094,1.089,1.089,0,0,0,1.082-1.094,1.09,1.09,0,0,0-1.082-1.1A1.091,1.091,0,0,0-5187.222-9263.585Zm-13.9,0a1.089,1.089,0,0,0,1.081,1.094,1.089,1.089,0,0,0,1.082-1.094,1.09,1.09,0,0,0-1.082-1.1A1.09,1.09,0,0,0-5201.124-9263.585Zm6.177-4.7a1.092,1.092,0,0,0,1.086,1.095,1.089,1.089,0,0,0,1.08-1.095,1.091,1.091,0,0,0-1.08-1.1A1.094,1.094,0,0,0-5194.947-9268.286Zm7.726-3.136a1.092,1.092,0,0,0,1.084,1.1,1.091,1.091,0,0,0,1.082-1.1,1.089,1.089,0,0,0-1.082-1.1A1.09,1.09,0,0,0-5187.222-9271.422Zm-15.446,0a1.09,1.09,0,0,0,1.082,1.1,1.089,1.089,0,0,0,1.078-1.1,1.087,1.087,0,0,0-1.078-1.1A1.089,1.089,0,0,0-5202.668-9271.422Zm7.721-4.7a1.094,1.094,0,0,0,1.086,1.1,1.091,1.091,0,0,0,1.08-1.1,1.089,1.089,0,0,0-1.08-1.095A1.092,1.092,0,0,0-5194.947-9276.122Zm-85.649,11.2-1.134-5.747h54.287l-1.133,5.747Zm43.443-11.5,2.373-16.835-5.61-.815-2.485,17.65h-8.878v-31.61h-5.666v31.61h-8.877l-2.484-17.65-5.61.815,2.372,16.835h-10.844l-5.779-29.312a2.844,2.844,0,0,0-2.777-2.3,19.976,19.976,0,0,1-19.833-20.116,19.978,19.978,0,0,1,19.833-20.119,19.519,19.519,0,0,1,14.4,6.324,2.807,2.807,0,0,0,2.488.865,2.837,2.837,0,0,0,2.118-1.584A19.771,19.771,0,0,1-5254.586-9354a19.771,19.771,0,0,1,17.824,11.347,2.84,2.84,0,0,0,2.117,1.584,2.808,2.808,0,0,0,2.489-.865,19.516,19.516,0,0,1,14.4-6.324,19.98,19.98,0,0,1,19.835,20.119,19.978,19.978,0,0,1-19.835,20.116,2.844,2.844,0,0,0-2.777,2.3l-5.778,29.313Z" transform="translate(5333.99 9354)" fill="url(#linear-gradient)"/>
</svg>
